<svg xmlns="http://www.w3.org/2000/svg" viewBox="0 0 400 300"><rect width="394.72" height="295.65" x="2.64" y="2.18" fill="#231f20" rx="12.5" ry="12.5"/><path fill="#f9f4da" d="M384.86 2.68c6.6 0 12 5.4 12 12v270.64c0 6.6-5.4 12-12 12H15.14c-6.6 0-12-5.4-12-12V14.68c0-6.6 5.4-12 12-12h369.72m0-1H15.14c-7.17 0-13 5.83-13 13v270.64c0 7.17 5.83 13 13 13h369.72c7.17 0 13-5.83 13-13V14.68c0-7.17-5.83-13-13-13Z"/><path fill="#3f3a3b" d="M396.86 28.97V14.68c0-6.6-5.4-12-12-12H15.14c-6.6 0-12 5.4-12 12v14.29h393.72Z"/><rect width="24.12" height="7.82" x="364.64" y="166.86" fill="#fcba28" rx="1.25" ry="1.25"/><path fill="none" stroke="#3f3a3b" stroke-linejoin="round" stroke-width="1.23" d="M200 18.31v279.01m0-136.67h196.86M200 180.88h196.86M3.14 49.2h393.72"/><path fill="none" stroke="#f9f4da" stroke-linecap="round" stroke-linejoin="round" stroke-width="1.23" d="M209.06 170.77h37.16M209.06 39.78h20.87m8.58 0h20.87"/><path fill="none" stroke="#fcba28" stroke-linecap="round" stroke-linejoin="round" stroke-width="1.23" d="M267.93 39.78h20.87"/><path fill="none" stroke="#f9f4da" stroke-linecap="round" stroke-linejoin="round" stroke-width="1.23" d="M21.52 39.78h20.87m8.58 0h20.87m8.55 0h20.87"/><path fill="none" stroke="#fcba28" stroke-miterlimit="10" stroke-width="1.23" d="M21.52 49.2h20.87"/><path fill="none" stroke="#f9f4da" stroke-linecap="round" stroke-linejoin="round" stroke-width="1.23" d="M209.06 170.77h37.16m33.63 81.63h37.16M21.52 16.9h72.53M21.52 85.53h147m-147 9.6h115.93M21.52 225.63h115.93M21.52 104.73h132.31M21.52 216.02h132.31"/><path fill="none" stroke="#f9f4da" stroke-linecap="round" stroke-linejoin="round" stroke-width="2" d="M21.52 71.65H61.4"/><path fill="none" stroke="#f9f4da" stroke-linecap="round" stroke-linejoin="round" stroke-width="1.23" d="M21.52 256.98h56.06m-56.06 9.61h74.97m-74.97 9.6h42.95"/><path fill="none" stroke="#f9f4da" stroke-linecap="round" stroke-linejoin="round" stroke-width="2" d="M21.52 243.1H61.4"/><rect width="158.36" height="80.27" x="21.52" y="120.24" fill="#3f3a3b" rx="5.18" ry="5.18"/><path fill="none" stroke="#f38ba3" stroke-linecap="round" stroke-linejoin="round" stroke-width="1.23" d="M31.95 133.65h35.16"/><path fill="none" stroke="#7b5ea7" stroke-linecap="round" stroke-linejoin="round" stroke-width="1.23" d="M48.23 184.14h27.94"/><path fill="none" stroke="#f9f4da" stroke-linecap="round" stroke-linejoin="round" stroke-width="1.23" d="M31.95 144.31h51.91m-51.91 9.03h51.91m-51.91 9.03h63.41m-63.41 9.04h63.41"/><path fill="#f9f4da" d="M76.39 129.53v.69c-.19 0-.36.02-.51.05-.15.04-.26.1-.34.19s-.11.21-.09.37l.15 1.53c.03.26 0 .48-.06.64s-.18.3-.34.39c-.16.09-.35.16-.57.2.23.04.43.1.58.19.16.09.27.21.33.38.07.17.09.39.06.66l-.15 1.53c-.02.16.01.28.09.37s.19.15.34.19.32.05.51.05v.69c-.29 0-.55-.02-.79-.07-.23-.05-.43-.12-.6-.23a.92.92 0 0 1-.35-.43c-.07-.18-.1-.4-.07-.66l.15-1.44c.02-.2 0-.36-.08-.48-.07-.13-.2-.22-.38-.28s-.44-.09-.76-.09v-.75c.32 0 .57-.03.76-.09.18-.06.31-.15.38-.28s.1-.29.08-.48l-.15-1.44c-.03-.27 0-.49.07-.67a.92.92 0 0 1 .35-.43c.16-.1.36-.18.6-.23.23-.05.5-.07.79-.07Zm-44.15 50.03c.29 0 .55.02.79.07s.43.12.6.23c.16.11.28.25.36.43s.1.4.07.66l-.15 1.44c-.02.2 0 .36.09.48s.21.22.4.28c.19.06.43.09.73.09v.75c-.3 0-.54.03-.73.09-.19.06-.32.15-.4.28-.08.13-.11.29-.09.48l.15 1.43c.03.27 0 .49-.07.67a.92.92 0 0 1-.35.43c-.16.1-.36.18-.6.22s-.5.07-.79.07v-.69c.19 0 .36-.02.51-.05s.26-.1.34-.19.11-.21.09-.37l-.15-1.53c-.03-.27 0-.49.06-.66.07-.17.19-.29.35-.38.16-.09.37-.15.62-.19-.25-.04-.45-.1-.62-.2a.783.783 0 0 1-.35-.39c-.07-.17-.09-.38-.06-.65l.15-1.53c.02-.16-.01-.28-.09-.37s-.19-.15-.34-.19c-.15-.04-.32-.05-.51-.05v-.69Z"/><g fill="#f9f4da"><path d="M82.29 183.61c0 .4.03.76.1 1.08.06.32.17.62.31.9.14.28.32.55.53.82.22.27.47.54.77.83l-.52.5c-.45-.37-.83-.76-1.15-1.16s-.57-.84-.74-1.32c-.17-.48-.26-1.04-.26-1.66s.09-1.18.26-1.66.42-.92.74-1.32.7-.78 1.15-1.15l.52.5c-.29.28-.54.55-.76.82-.21.27-.39.54-.53.82-.14.28-.24.58-.31.91-.07.32-.1.69-.1 1.09Zm6.15 0c0-.4-.03-.77-.1-1.09-.07-.32-.17-.63-.31-.91-.14-.28-.32-.55-.53-.82a9.35 9.35 0 0 0-.76-.82l.52-.5c.45.37.83.75 1.15 1.15.32.4.57.84.74 1.32.17.48.26 1.04.26 1.66s-.09 1.17-.26 1.66c-.17.48-.42.92-.74 1.32s-.7.78-1.15 1.16l-.52-.5c.3-.29.55-.56.77-.83.21-.27.39-.54.53-.82.14-.28.24-.58.31-.9.07-.32.1-.69.1-1.08Zm4.42 1.44a.732.732 0 0 1 .75.75c0 .12-.02.24-.06.37s-.1.28-.18.46l-.64 1.46h-.72l.4-1.67c-.21-.14-.31-.35-.31-.62 0-.21.07-.38.22-.53.14-.14.32-.21.53-.21Zm0-2.87a.732.732 0 0 1 .75.75c0 .21-.07.38-.21.53-.14.15-.32.22-.54.22s-.39-.07-.53-.22a.767.767 0 0 1-.22-.53c0-.14.03-.26.1-.38.07-.11.16-.2.27-.27.11-.07.24-.1.38-.1Z"/></g><path fill="#12b5e5" d="M42.36 182.73v.76h-3.45v-.76h3.45Zm0 1.65v.76h-3.45v-.76h3.45Z"/><path fill="#3f3a3b" d="M205.22 57.7h185.1v12.26h-185.1z"/><path fill="none" stroke="#f38ba3" stroke-linecap="round" stroke-linejoin="round" stroke-width="1.23" d="M211.1 84.38h35.17M211.1 63.7h35.17m32.92 0h35.17"/><path fill="none" stroke="#f9f4da" stroke-linecap="round" stroke-linejoin="round" stroke-width="1.23" d="M254.52 63.7h17.59"/><path fill="none" stroke="#7b5ea7" stroke-linecap="round" stroke-linejoin="round" stroke-width="1.23" d="M227.38 134.87h27.94"/><path fill="none" stroke="#f9f4da" stroke-linecap="round" stroke-linejoin="round" stroke-width="1.23" d="M211.1 95.04h51.91m-51.91 9.03h39.1m-39.1 9.04h71.5m-71.5 9.03h35.17m-35.17 24.8h23.03"/><path fill="#f9f4da" d="M255.54 80.26v.69c-.19 0-.36.02-.51.05-.15.04-.26.1-.34.19s-.11.21-.09.37l.15 1.53c.03.26 0 .48-.06.64s-.18.3-.34.39c-.16.09-.35.16-.57.2.23.04.43.1.58.19.16.09.27.21.33.38.07.17.09.39.06.66l-.15 1.53c-.02.16.01.28.09.37s.19.15.34.19.32.05.51.05v.69c-.29 0-.55-.02-.79-.07-.23-.05-.43-.12-.6-.23a.92.92 0 0 1-.35-.43c-.07-.18-.1-.4-.07-.66l.15-1.44c.02-.2 0-.36-.08-.48-.07-.13-.2-.22-.38-.28s-.44-.09-.76-.09v-.75c.32 0 .57-.03.76-.09.18-.06.31-.15.38-.28s.1-.29.08-.48l-.15-1.44c-.03-.27 0-.49.07-.67a.92.92 0 0 1 .35-.43c.16-.1.36-.18.6-.23.23-.05.5-.07.79-.07Zm-44.15 50.03c.29 0 .55.02.79.07s.43.12.6.23c.16.11.28.25.36.43.07.18.1.4.07.66l-.15 1.44c-.02.2.01.36.09.48s.21.22.4.28c.19.06.43.09.73.09v.75c-.3 0-.54.03-.73.09s-.32.15-.4.28c-.08.13-.11.29-.09.48l.15 1.43c.03.27 0 .49-.07.67a.92.92 0 0 1-.35.43c-.16.1-.36.18-.6.22s-.5.07-.79.07v-.69c.19 0 .36-.02.51-.05.15-.03.26-.1.34-.19s.11-.21.09-.37l-.15-1.53c-.03-.27 0-.49.06-.66s.19-.29.35-.38c.16-.09.37-.15.62-.19-.25-.04-.45-.1-.62-.2a.783.783 0 0 1-.35-.39c-.07-.17-.09-.38-.06-.65l.15-1.53c.02-.16-.01-.28-.09-.37s-.19-.15-.34-.19c-.15-.04-.32-.05-.51-.05v-.69Z"/><g fill="#f9f4da"><path d="M261.44 134.34c0 .4.03.76.1 1.08.06.32.17.62.31.9.14.28.32.55.53.82.22.27.47.54.77.83l-.52.5c-.45-.37-.83-.76-1.15-1.16s-.57-.84-.74-1.32c-.17-.48-.26-1.04-.26-1.66s.09-1.18.26-1.66.42-.92.74-1.32.7-.78 1.15-1.15l.52.5c-.29.28-.54.55-.76.82-.21.27-.39.54-.53.82-.14.28-.24.58-.31.91-.07.32-.1.69-.1 1.09Zm6.15 0c0-.4-.03-.77-.1-1.09-.07-.32-.17-.63-.31-.91-.14-.28-.32-.55-.53-.82a9.35 9.35 0 0 0-.76-.82l.52-.5c.45.37.83.75 1.15 1.15.32.4.57.84.74 1.32.17.48.26 1.04.26 1.66s-.09 1.17-.26 1.66c-.17.48-.42.92-.74 1.32s-.7.78-1.15 1.16l-.52-.5c.3-.29.55-.56.77-.83.21-.27.39-.54.53-.82.14-.28.24-.58.31-.9.07-.32.1-.69.1-1.08Zm4.42 1.44a.732.732 0 0 1 .75.75c0 .12-.02.24-.06.37s-.1.28-.18.46l-.64 1.46h-.72l.4-1.67c-.21-.14-.31-.35-.31-.62 0-.21.07-.38.22-.53.14-.14.32-.21.53-.21Zm0-2.87a.732.732 0 0 1 .75.75c0 .21-.07.38-.21.53-.14.15-.32.22-.54.22s-.39-.07-.53-.22a.767.767 0 0 1-.22-.53c0-.14.03-.26.1-.38.07-.11.16-.2.27-.27.11-.07.24-.1.38-.1Z"/></g><path fill="#12b5e5" d="M221.52 133.46v.76h-3.45v-.76h3.45Zm0 1.65v.76h-3.45v-.76h3.45Z"/><rect width="26.21" height="11.76" x="305.34" y="218.86" fill="#f9f4da" rx="2.16" ry="2.16"/><g fill="#f9f4da"><path d="M266.81 220.56v9h-1.49v-7.45l-2.04 1.26-.64-1.05 2.85-1.75h1.33Zm1.85 8.08v1.18h-5.61v-1.18h5.61Zm4.97-8.27c1.04 0 1.82.42 2.36 1.26.53.84.8 2.02.8 3.55s-.27 2.72-.8 3.57c-.53.84-1.32 1.26-2.36 1.26s-1.83-.42-2.36-1.26c-.53-.84-.8-2.03-.8-3.57s.27-2.71.8-3.55c.53-.84 1.32-1.26 2.36-1.26Zm0 1.15c-.53 0-.94.28-1.23.85-.29.57-.43 1.5-.43 2.81 0 .7.03 1.28.09 1.76.06.47.16.85.29 1.13.13.28.3.48.51.61s.47.18.77.18c.36 0 .66-.12.91-.37.25-.24.43-.64.56-1.18s.19-1.25.19-2.14-.05-1.64-.16-2.18c-.11-.53-.29-.92-.53-1.14s-.56-.34-.97-.34Zm1.25.32.39 1.05-2.77 5.65-.5-.85 2.87-5.85Zm6.81-1.47c1.04 0 1.82.42 2.36 1.26.53.84.8 2.02.8 3.55s-.27 2.72-.8 3.57c-.53.84-1.32 1.26-2.36 1.26s-1.83-.42-2.36-1.26c-.53-.84-.8-2.03-.8-3.57s.27-2.71.8-3.55c.53-.84 1.32-1.26 2.36-1.26Zm0 1.15c-.53 0-.94.28-1.23.85-.29.57-.43 1.5-.43 2.81 0 .7.03 1.28.09 1.76.06.47.16.85.29 1.13.13.28.3.48.51.61s.47.18.77.18c.36 0 .66-.12.91-.37.25-.24.43-.64.56-1.18s.19-1.25.19-2.14-.05-1.64-.16-2.18c-.11-.53-.29-.92-.53-1.14s-.56-.34-.97-.34Zm1.25.32.39 1.05-2.77 5.65-.5-.85 2.87-5.85Zm4.91-1.47c.41 0 .76.1 1.05.29.29.19.51.45.66.77.15.32.23.68.23 1.08s-.08.76-.23 1.08c-.15.32-.38.58-.66.77-.29.19-.64.29-1.05.29s-.76-.1-1.05-.29c-.29-.19-.52-.45-.67-.77-.15-.32-.23-.69-.23-1.08s.08-.75.23-1.07.38-.58.67-.77c.29-.19.64-.29 1.05-.29Zm4.24-.09.88.47-5.69 9.39-.87-.47 5.67-9.39Zm-4.24.99c-.25 0-.44.1-.58.31s-.21.52-.21.92.07.7.21.92c.14.22.33.33.58.33s.44-.1.58-.31c.14-.21.21-.52.21-.95s-.07-.75-.21-.94a.68.68 0 0 0-.58-.29Zm3.81 4.36c.41 0 .76.1 1.05.29.29.19.51.45.66.77s.23.68.23 1.08-.08.76-.23 1.08-.38.58-.66.77c-.29.19-.64.29-1.05.29s-.76-.1-1.05-.29c-.29-.19-.52-.45-.67-.77-.15-.32-.23-.68-.23-1.08s.08-.75.23-1.08c.15-.32.38-.58.67-.77.29-.19.64-.29 1.05-.29Zm0 .89c-.25 0-.44.1-.58.31-.14.21-.21.52-.21.93 0 .39.07.7.21.92s.33.33.58.33.44-.1.58-.31c.14-.21.2-.52.2-.94s-.07-.75-.2-.95c-.14-.2-.33-.3-.58-.3Z"/></g><g stroke="#f9f4da"><rect width="30.92" height="16.7" x="302.98" y="216.48" fill="none" stroke-miterlimit="10" rx="3.58" ry="3.58"/><path fill="#0f0d0e" stroke-linejoin="round" d="m324.29 211.72-14.2 15.25h7.31l-3.55 10.79L328.54 223h-7.03l2.78-11.28z"/><path fill="none" stroke-linejoin="round" d="M333.91 221.32h4.02v6.83h-4.02z"/></g></svg>