<svg xmlns="http://www.w3.org/2000/svg" id="p" viewBox="0 0 92 92"><path fill="#11afdf" stroke="#231f20" stroke-linecap="round" stroke-linejoin="round" d="M86.89 30.42h0c-.26-3.53-1.2-6.53-2.78-8.92-1.66-2.51-3.95-4.44-6.81-5.75-2.38-1.09-5.1-1.71-8.07-1.85-.14 0-.28-.01-.42-.01H61.86c-3.6.05-7.05 1.19-10.04 3.3-2.28-2.16-5.21-3.3-8.53-3.3h-4.28c-3.59 0-6.72 1.33-9.06 3.84v.01l-.11.11-.02.02c-.52.58-.99 1.2-1.39 1.84l-6.17 8.6c-1.67 2.23-2.51 4.86-2.41 7.6v1.65c-2.58.76-4.76 2.39-6.18 4.68l-6.13 8.55c-1.34 1.71-2.14 3.78-2.4 6.15-.03.3-.05.61-.05.91v3.1c0 .2 0 .41.02.62.26 3.53 1.19 6.53 2.78 8.92 1.66 2.51 3.95 4.44 6.81 5.75 2.38 1.09 5.08 1.71 8.04 1.85h6.15c.16 0 .33 0 .49-.01 4.51-.26 8.54-1.88 11.69-4.71 1.26 1.16 2.71 2.11 4.35 2.86 2.38 1.09 5.08 1.71 8.04 1.85H60.91c3.98-.06 7.77-1.46 10.98-4.05 1.71-1.38 3.17-3.01 4.36-4.85l5.94-8.29c.18-.24.36-.49.54-.76.09-.12.17-.25.25-.37.87-1.33 1.59-2.77 2.15-4.3 1.13-3.08 1.7-5.98 1.7-8.61 0-.18 0-.35-.02-.53-.15-2.33-.66-4.47-1.52-6.37.86-1.46 1.39-3.12 1.59-4.96.03-.29.05-.59.05-.89V31c0-.21 0-.42-.02-.63Z"/><g stroke="#231f20" stroke-linecap="round" stroke-linejoin="round"><path fill="#231f20" d="M62.66 39.93c.66-.01 1.35-.02 1.97.2.95.33 1.64 1.13 2.26 1.92.77.96 1.5 1.95 2.2 2.96.52.75 1.03 1.54 1.18 2.44.22 1.37-.45 2.73-1.32 3.8-1.5 1.83-3.68 3.1-6.01 3.5-.78.13-1.59.17-2.34-.06-1.04-.32-1.87-1.11-2.54-1.96-1.23-1.54-2.11-3.33-2.79-5.19-.65-1.79-1.89-6.24.41-7.47.71-.38 1.85-.06 2.62-.06 1.46 0 2.92-.05 4.37-.07Z"/><path fill="#231f20" d="M71.53 56.41c-.15-2.43 1.91-12.89 1.91-12.89L78 35.6l-23.2-9.74-7.63 10.55h0c-.66.91-11.05-12.83-11.05-12.83l-7.03 9.79c-.56.72-.81 1.51-.75 2.37v17.94c-.06 1.09-7.55-6.78-7.55-6.78l-6.54 9.13c-.06.07-.11.15-.16.23v.02h-.01c-.26.42-.42.95-.49 1.6v3.1c.15 2.06.61 3.68 1.39 4.85.77 1.17 1.86 2.07 3.26 2.71 1.4.64 3.04 1 4.92 1.09h5.74c2.67-.15 4.88-1.04 6.63-2.66.71-.66 1.32-1.38 1.86-2.16h0l6.83-9.57.69.91c-.32.44-.52 1.02-.59 1.74v3.1c.15 2.06.61 3.68 1.39 4.85.77 1.17 1.86 2.07 3.26 2.71 1.4.64 3.04 1 4.92 1.09h6.92c2.09-.03 4.01-.75 5.76-2.16.64-.52 1.22-1.09 1.73-1.71h0s0 0 0 0c.34-.41.65-.85.94-1.31l6.59-9.2-4.29 1.48v-.3Z"/><path fill="#f6b428" d="M35.14 26.21c-.06-.97.27-1.85.98-2.64s1.68-1.18 2.89-1.18h4.28c1.21 0 2.18.39 2.89 1.18.71.79 1.04 1.67.98 2.64v18.12c-.06 2.34-.45 4.7-1.16 7.08s-1.94 4.39-3.69 6.01-3.95 2.51-6.63 2.66h-5.74c-1.88-.09-3.52-.46-4.92-1.09-1.4-.64-2.48-1.54-3.26-2.71-.77-1.17-1.24-2.78-1.39-4.85v-3.1c.18-1.7 1.02-2.61 2.5-2.73h6.97c1.52.12 2.37 1.03 2.55 2.73-.03 1 .06 1.61.27 1.82.49.39.94.39 1.37 0 .36-.64.62-1.53.77-2.66.15-1.14.26-2.25.32-3.35V26.21ZM60.66 60.09c-1.88-.09-3.52-.46-4.92-1.09-1.4-.64-2.48-1.54-3.26-2.71-.77-1.17-1.24-2.78-1.39-4.85v-3.1c.18-1.7 1.03-2.61 2.55-2.73h6.92c1.52.12 2.37 1.03 2.55 2.73 0 .82.21 1.43.64 1.82.46.39.89.39 1.32 0 .42-.61.65-1.49.68-2.64-.03-.61-.27-1.13-.73-1.57-.46-.44-2.16-1.06-5.1-1.87-2.95-.8-5.1-1.81-6.47-3.03-1.37-1.21-2.11-3.04-2.23-5.46-.03-1.64.35-3.54 1.14-5.69.79-2.16 2.06-3.94 3.8-5.35 1.75-1.41 3.68-2.13 5.81-2.16h6.83c1.91.09 3.57.46 4.96 1.09 1.4.64 2.48 1.54 3.26 2.71.77 1.17 1.24 2.79 1.39 4.85v3.1c-.18 1.7-1.03 2.61-2.55 2.73H68.8c-1.55-.12-2.4-1.03-2.55-2.73 0-1-.18-1.61-.55-1.82-.49-.39-.94-.39-1.37 0-.36.61-.56 1.49-.59 2.64.03.61.27 1.13.73 1.57.46.44 2.16 1.06 5.1 1.87 2.94.8 5.1 1.81 6.47 3.03 1.37 1.21 2.12 3.04 2.28 5.46 0 1.64-.39 3.54-1.18 5.69-.79 2.16-2.06 3.94-3.8 5.35-1.75 1.41-3.67 2.13-5.76 2.16h-6.92Z"/></g></svg>