<?xml version="1.0" encoding="UTF-8"?><svg id="b" xmlns="http://www.w3.org/2000/svg" viewBox="0 0 92 88"><path d="M91.66,44.39c.17-7.76-5.62-14.28-15.52-17.95,1.86-9.88-.59-17.91-6.97-21.79-2.29-1.39-4.88-2.1-7.7-2.1-5.06,0-10.44,2.29-15.6,6.56-5.01-4.31-10.3-6.61-15.33-6.62,0,0,0,0,0,0-2.54,0-4.9,.59-7.03,1.76-6.81,3.73-9.56,12.01-7.79,22.42C6.23,30,.51,36.14,.34,43.61c-.17,7.76,5.62,14.28,15.52,17.95-1.86,9.88,.59,17.91,6.97,21.79,2.29,1.39,4.89,2.1,7.71,2.1,5.05,0,10.43-2.29,15.59-6.56,5.01,4.3,10.29,6.61,15.31,6.61,2.54,0,4.91-.59,7.04-1.76,6.8-3.73,9.56-12,7.79-22.41,9.49-3.33,15.22-9.46,15.38-16.93Z" fill="#f5f0d6"/><g><path d="M84.58,44.24c.13-5.74-6.73-10.84-17.16-12.88,3.55-9.55,2.82-17.76-1.92-20.64-4.91-2.98-12.75,.41-19.74,8.42-6.5-7.84-13.98-11.32-18.84-8.66-5.04,2.76-6.02,11.25-2.58,21.3-10.04,1.7-16.79,6.44-16.92,11.99-.13,5.74,6.73,10.84,17.16,12.88-3.54,9.55-2.82,17.76,1.92,20.64,1.19,.72,2.55,1.07,4.04,1.07,4.63,0,10.41-3.41,15.7-9.48,5.04,6.08,10.66,9.54,15.2,9.54,1.32,0,2.54-.29,3.63-.89,5.04-2.76,6.02-11.24,2.58-21.3,10.04-1.7,16.79-6.44,16.92-11.99Zm-20.09-31.86c4.02,2.44,4.31,10.4,.71,19.35-.5,1.25-1.07,2.49-1.7,3.73-2.63-5.36-7.64-9.36-13.65-10.57-.06-.1-.12-.19-.18-.28-.24-.38-.47-.77-.72-1.14-.13-.21-.27-.41-.41-.61-.22-.33-.45-.66-.68-.98-.16-.22-.32-.44-.48-.66-.13-.18-.26-.37-.4-.54,6.31-7.35,13.44-10.76,17.5-8.29Zm-36.63-.19c4.12-2.26,11.16,1.46,17.12,9.06,0,0,0,0,0,0,.83,1.06,1.62,2.17,2.38,3.33-.45-.03-.89-.07-1.35-.07-5.81,0-11.01,2.57-14.59,6.61-.68,.01-1.36,.04-2.04,.08-.05,0-.1,0-.15,.01-.88,.06-1.75,.14-2.61,.24-.11,.01-.23,.02-.34,.03-3.21-9.14-2.6-17.02,1.57-19.3ZM9.37,43.81c.1-4.7,6.85-8.93,16.4-10.3,.59-.08,1.18-.15,1.77-.21,.22-.02,.44-.04,.66-.06,.38-.03,.77-.07,1.15-.09,.16,0,.31-.02,.47-.02-2.1,3.11-3.32,6.85-3.32,10.88,0,2.17,.37,4.26,1.03,6.21-.06,.11-.12,.22-.17,.33-.21,.39-.42,.78-.62,1.17-.12,.23-.23,.46-.34,.69-.17,.35-.34,.7-.5,1.05-.12,.25-.22,.5-.33,.75-.09,.2-.19,.41-.27,.61-9.52-1.79-16.03-6.26-15.93-11.01Zm18.15,31.82c-4.02-2.44-4.31-10.4-.71-19.35,.5-1.25,1.07-2.49,1.7-3.73,2.63,5.36,7.64,9.36,13.65,10.57,.07,.11,.14,.22,.21,.33,.22,.36,.45,.73,.68,1.08,.15,.22,.3,.44,.45,.66,.21,.31,.42,.63,.64,.94,.16,.23,.33,.45,.49,.67,.13,.18,.26,.36,.39,.54-6.31,7.35-13.44,10.75-17.5,8.29Zm36.63,.19c-4.12,2.26-11.16-1.47-17.12-9.06-.83-1.06-1.62-2.17-2.38-3.34,.45,.03,.89,.07,1.35,.07,5.81,0,11.02-2.57,14.59-6.61,.1,0,.2,0,.3,0,.24,0,.48-.01,.72-.02,.35-.01,.7-.03,1.04-.05,.27-.02,.53-.03,.8-.06,.3-.02,.6-.05,.9-.08,.32-.03,.63-.06,.94-.1,.14-.02,.28-.03,.42-.04,3.21,9.14,2.6,17.02-1.57,19.3Zm2.08-21.33c-1.32,.19-2.68,.32-4.06,.39,2.1-3.11,3.33-6.85,3.33-10.88,0-2.17-.37-4.26-1.03-6.21,.06-.11,.12-.22,.18-.34,.21-.39,.42-.77,.62-1.16,.11-.22,.22-.45,.33-.67,.17-.36,.35-.72,.51-1.08,.11-.25,.22-.49,.33-.74,.09-.21,.19-.41,.28-.62,9.52,1.79,16.03,6.26,15.93,11.01-.1,4.7-6.85,8.93-16.4,10.3Z" fill="#231f20"/><g><path d="M33.23,46.9c.29-.18,.47-.32,.54-.43s.13-.21,.18-.3c.12-.23,.3-.41,.54-.54,.24-.13,.5-.19,.77-.19,.57,0,.99,.24,1.24,.72,.21,.38,.45,.63,.73,.74-.08,.05-.15,.09-.21,.12s-.13,.08-.18,.12c-.12,.1-.24,.25-.35,.45-.12,.2-.29,.38-.5,.53-.22,.15-.46,.23-.72,.23s-.51-.08-.76-.23c-.24-.15-.43-.34-.55-.57-.15-.26-.28-.42-.4-.49-.12-.07-.23-.12-.32-.16Zm1.7,.47c-.03-.05-.06-.12-.07-.19-.02-.07-.03-.21-.03-.41s.1-.45,.29-.74c-.11,0-.21,.02-.3,.07-.09,.04-.16,.11-.23,.19-.07,.09-.11,.15-.14,.2s-.06,.1-.1,.15c-.1,.14-.18,.23-.24,.26,.08,.05,.16,.12,.23,.22,.07,.1,.15,.21,.24,.32,.14,.16,.32,.25,.54,.25-.03-.06-.06-.11-.1-.16-.03-.05-.07-.1-.1-.15Z" fill="#f5f0d6"/><path d="M39.49,48.46c-.37-.34-.55-.76-.55-1.26,0-.75,.44-1.36,1.33-1.84-.58-.4-1-1.04-1.27-1.92-.09-.27-.17-.46-.26-.55-.13-.15-.35-.31-.66-.46,.26-.12,.45-.27,.59-.45,.13-.18,.25-.42,.35-.72,.1-.3,.24-.58,.42-.85,.18-.27,.42-.51,.7-.71,.63-.44,1.44-.66,2.43-.66,.32,0,.65,.03,.99,.1,.07-.56,.32-1.03,.74-1.42,.42-.39,.91-.59,1.47-.59,.66,0,1.21,.17,1.66,.51,.25,.18,.49,.25,.74,.21,.02,.41-.14,.67-.48,.79-.06,.69-.36,1.03-.9,1.03-.21,0-.34-.02-.39-.05,.08-.07,.12-.15,.12-.26s-.04-.19-.13-.27c-.11,.2-.35,.3-.72,.3-.21,0-.36-.1-.48-.29,.19-.06,.35-.15,.46-.28,.11-.13,.17-.24,.17-.35,0-.28-.15-.42-.44-.42-.57,0-.91,.44-1.01,1.33,.93,.4,1.52,1.02,1.78,1.88,.17,.58,.48,.97,.94,1.17-.4,.2-.66,.42-.79,.67-.05,.1-.1,.21-.14,.34-.28,.87-.71,1.51-1.3,1.92-.59,.41-1.34,.62-2.27,.62-.59,0-1.1-.07-1.53-.21-.17,.11-.25,.23-.25,.36s.03,.24,.08,.33c.05,.09,.14,.17,.28,.24,.26,.14,.76,.26,1.49,.37,.33,.07,.67-.15,1.03-.64,.02,.26,.08,.46,.18,.59s.2,.2,.32,.22c1.41,.21,2.32,.67,2.74,1.38,.14,.24,.21,.55,.21,.92s-.12,.74-.36,1.1c-.24,.36-.56,.66-.97,.91-.85,.51-1.89,.77-3.13,.77-1.45,0-2.56-.24-3.33-.71-.66-.41-.99-.94-.99-1.59,0-.43,.22-.84,.65-1.22,.14-.12,.31-.23,.49-.32Zm.74-3.93c.1-.08,.15-.17,.15-.27,0-.13-.02-.26-.05-.38-.14-.47-.21-.95-.21-1.45s.07-.97,.21-1.44c.04-.12,.05-.22,.05-.29v-.18s-.02-.08-.06-.11c-.21,.26-.36,.55-.46,.87-.1,.33-.17,.62-.23,.87-.02,.08-.16,.17-.43,.29,.27,.13,.41,.23,.43,.3l.15,.64c.13,.54,.28,.93,.44,1.16Zm.02,4.42c-.36,.16-.55,.46-.55,.89,0,.35,.26,.66,.79,.94,.59,.32,1.35,.48,2.28,.48,1.15,0,1.89-.2,2.23-.59,.1-.11,.15-.22,.15-.34s-.06-.23-.17-.32c-.12-.09-.26-.17-.45-.22-.27-.09-.7-.17-1.28-.24-.28-.03-.63,.18-1.04,.62,0-.29-.05-.49-.14-.62-.1-.13-.19-.2-.28-.21-.59-.08-1.1-.21-1.53-.39Zm-.41-1.69s-.07,.11-.07,.2c.02,.55,.81,.97,2.36,1.25,.18,.04,.31,.23,.38,.58,.02-.11,.13-.21,.3-.28s.3-.11,.36-.1c.77,.09,1.29,.18,1.56,.26,.48,.15,.83,.37,1.05,.66,.06-.07,.09-.16,.09-.28s-.06-.23-.17-.34-.3-.22-.55-.3c-.44-.16-1.04-.28-1.79-.37-.75-.09-1.28-.16-1.58-.23s-.59-.15-.84-.25c-.56-.22-.93-.49-1.11-.8Zm2.01-2.68c.11,.16,.22,.26,.34,.3,.11,.04,.25,.06,.4,.06s.28-.02,.4-.06,.21-.12,.28-.23c.15-.21,.22-.56,.22-1.06v-2.12c0-.5-.06-.82-.17-.98-.11-.16-.22-.26-.34-.3s-.24-.07-.4-.07-.28,.02-.4,.07c-.11,.04-.2,.12-.28,.22-.15,.21-.23,.57-.23,1.07v2.12c0,.5,.06,.82,.17,.98Zm2.38-.05c.23-.08,.37-.34,.4-.76,.04-.4,.06-.85,.06-1.34,0-.77-.02-1.26-.06-1.47-.06-.29-.19-.47-.4-.56v4.13Z" fill="#f5f0d6"/><path d="M48.88,48.46c-.37-.34-.55-.76-.55-1.26,0-.75,.44-1.36,1.33-1.84-.58-.4-1-1.04-1.27-1.92-.09-.27-.17-.46-.26-.55-.13-.15-.35-.31-.66-.46,.26-.12,.45-.27,.59-.45,.13-.18,.25-.42,.35-.72,.1-.3,.24-.58,.42-.85,.18-.27,.42-.51,.7-.71,.63-.44,1.44-.66,2.43-.66,.32,0,.65,.03,.99,.1,.07-.56,.32-1.03,.74-1.42,.42-.39,.91-.59,1.47-.59,.66,0,1.21,.17,1.66,.51,.25,.18,.49,.25,.74,.21,.02,.41-.14,.67-.48,.79-.06,.69-.36,1.03-.9,1.03-.21,0-.34-.02-.39-.05,.08-.07,.12-.15,.12-.26s-.04-.19-.13-.27c-.11,.2-.35,.3-.72,.3-.21,0-.36-.1-.48-.29,.19-.06,.35-.15,.46-.28,.11-.13,.17-.24,.17-.35,0-.28-.15-.42-.44-.42-.57,0-.91,.44-1.01,1.33,.93,.4,1.52,1.02,1.78,1.88,.17,.58,.48,.97,.94,1.17-.4,.2-.66,.42-.79,.67-.05,.1-.1,.21-.14,.34-.28,.87-.71,1.51-1.3,1.92-.59,.41-1.34,.62-2.27,.62-.59,0-1.1-.07-1.53-.21-.17,.11-.25,.23-.25,.36s.03,.24,.08,.33c.05,.09,.14,.17,.28,.24,.26,.14,.76,.26,1.49,.37,.33,.07,.67-.15,1.03-.64,.02,.26,.08,.46,.18,.59s.2,.2,.32,.22c1.41,.21,2.32,.67,2.74,1.38,.14,.24,.21,.55,.21,.92s-.12,.74-.36,1.1c-.24,.36-.56,.66-.97,.91-.85,.51-1.89,.77-3.13,.77-1.45,0-2.56-.24-3.33-.71-.66-.41-.99-.94-.99-1.59,0-.43,.22-.84,.65-1.22,.14-.12,.31-.23,.49-.32Zm.74-3.93c.1-.08,.15-.17,.15-.27,0-.13-.02-.26-.05-.38-.14-.47-.21-.95-.21-1.45s.07-.97,.21-1.44c.04-.12,.05-.22,.05-.29v-.18s-.02-.08-.06-.11c-.21,.26-.36,.55-.46,.87-.1,.33-.17,.62-.23,.87-.02,.08-.16,.17-.43,.29,.27,.13,.41,.23,.43,.3l.15,.64c.13,.54,.28,.93,.44,1.16Zm.02,4.42c-.36,.16-.55,.46-.55,.89,0,.35,.26,.66,.79,.94,.59,.32,1.35,.48,2.28,.48,1.15,0,1.89-.2,2.23-.59,.1-.11,.15-.22,.15-.34s-.06-.23-.17-.32c-.12-.09-.26-.17-.45-.22-.27-.09-.7-.17-1.28-.24-.28-.03-.63,.18-1.04,.62,0-.29-.05-.49-.14-.62-.1-.13-.19-.2-.28-.21-.59-.08-1.1-.21-1.53-.39Zm-.41-1.69s-.07,.11-.07,.2c.02,.55,.81,.97,2.36,1.25,.18,.04,.31,.23,.38,.58,.02-.11,.13-.21,.3-.28s.3-.11,.36-.1c.77,.09,1.29,.18,1.56,.26,.48,.15,.83,.37,1.05,.66,.06-.07,.09-.16,.09-.28s-.06-.23-.17-.34-.3-.22-.55-.3c-.44-.16-1.04-.28-1.79-.37-.75-.09-1.28-.16-1.58-.23s-.59-.15-.84-.25c-.56-.22-.93-.49-1.11-.8Zm2.01-2.68c.11,.16,.22,.26,.34,.3,.11,.04,.25,.06,.4,.06s.28-.02,.4-.06,.21-.12,.28-.23c.15-.21,.22-.56,.22-1.06v-2.12c0-.5-.06-.82-.17-.98-.11-.16-.22-.26-.34-.3s-.24-.07-.4-.07-.28,.02-.4,.07c-.11,.04-.2,.12-.28,.22-.15,.21-.23,.57-.23,1.07v2.12c0,.5,.06,.82,.17,.98Zm2.38-.05c.23-.08,.37-.34,.4-.76,.04-.4,.06-.85,.06-1.34,0-.77-.02-1.26-.06-1.47-.06-.29-.19-.47-.4-.56v4.13Z" fill="#f5f0d6"/></g></g></svg>