<?xml version="1.0" encoding="UTF-8"?><svg id="p" xmlns="http://www.w3.org/2000/svg" viewBox="0 0 92 92"><path d="M77.46,44.47c-.19-2.48-.9-4.85-2.11-7.03-1.14-2.08-2.67-3.89-4.55-5.38-3.9-3.11-8.91-4.47-13.77-3.76-2.49,.37-4.57-1.35-5.68-3.07-.74-1.15-.99-2.85-1.27-4.82-.38-2.64-.82-5.64-2.59-8.57-1.47-2.43-3.53-4.51-5.97-6.02-2.48-1.52-5.29-2.43-8.14-2.6-4.88-.31-9.72,1.44-13.29,4.78-3.56,3.35-5.61,8.07-5.61,12.95,0,2.57,.58,5.17,1.69,7.53,1.1,2.34,2.72,4.46,4.69,6.11,1.99,1.67,4.35,2.89,6.81,3.54,2.11,.55,4.05,.49,5.62,.44,.69-.02,1.34-.04,1.89,0,1.65,.11,3.51,.94,4.86,2.17,.73,.67,1.96,2.05,1.91,3.78-.02,.61,0,1.19,0,1.75,.02,.84,.03,1.71-.07,2.18-.39,1.72-2.11,3.4-4.4,4.29-1.14,.45-2.47,.46-4.15,.49-.83,.01-1.68,.02-2.62,.09-3.31,.22-6.17,1.7-7.59,2.55-2.18,1.33-4.1,3.15-5.55,5.28-1.47,2.16-2.45,4.64-2.84,7.18-.75,4.83,.55,9.82,3.55,13.67,3.01,3.85,7.53,6.32,12.39,6.76,.54,.05,1.09,.07,1.63,.07,0,0,0,0,0,0h0c5.55,0,10.86-2.66,14.2-7.11,2.5-3.33,3.03-6.91,3.45-9.79,.2-1.37,.39-2.66,.76-3.74,.56-1.65,1.98-3.3,3.6-4.22,.71-.4,1.44-.41,3.35-.33,.77,.03,1.65,.07,2.6,.05,2.9-.07,5.9-.95,8.45-2.47,5.92-3.48,9.27-9.89,8.73-16.74Z" fill="#11afdf" stroke="#231f20" stroke-linecap="round" stroke-linejoin="round"/><path d="M32.32,83.6c-.38,0-.76-.02-1.15-.05-3.43-.31-6.62-2.05-8.75-4.78-2.12-2.72-3.04-6.24-2.51-9.65,.56-3.64,2.8-6.89,5.94-8.79,1.52-.92,3.44-1.69,5.22-1.81,2.89-.19,5.52,.17,8.31-.92,3.52-1.37,6.75-4.22,7.6-8.02,.35-1.57,.15-3.33,.19-4.93,.16-6.05-5.91-10.92-11.66-11.3-2.19-.14-4.35,.29-6.51-.28-1.75-.46-3.4-1.33-4.79-2.49-2.83-2.37-4.51-5.93-4.51-9.63,0-3.45,1.44-6.78,3.96-9.14,2.52-2.36,5.94-3.59,9.38-3.38,4.08,.26,7.86,2.61,9.96,6.11,2.5,4.15,1.29,9.39,3.94,13.52,2.36,3.66,6.4,6.07,10.84,5.41,7.1-1.05,13.89,4.22,14.45,11.41,.38,4.85-1.99,9.38-6.19,11.83-1.76,1.06-3.85,1.7-5.91,1.74-3.04,.07-5.6-.63-8.4,.96-2.67,1.51-4.97,4.16-5.97,7.08-1.4,4.08-.71,8.45-3.44,12.09-2.35,3.13-6.11,5.02-10.03,5.02Z" fill="#f3eed4" stroke="#231f20" stroke-linecap="round" stroke-linejoin="round"/><path d="M28.48,28.05c-.5,0-.9-.16-1.19-.48-.29-.32-.43-.68-.43-1.07V15.21c.02-.69,.21-1.26,.56-1.73,.35-.46,.72-.7,1.1-.71h4.83c1.08,.06,2.01,.5,2.8,1.3,.78,.81,1.29,1.64,1.53,2.51s.35,1.77,.32,2.72c-.04,1.51-.49,2.62-1.35,3.32,.77,1.09,1.25,2.39,1.42,3.87,.02,.39-.11,.75-.4,1.07-.29,.32-.67,.48-1.15,.48h-1.73c-.5,0-.89-.16-1.15-.49-.26-.33-.42-.68-.47-1.06-.17-1.17-.36-2-.55-2.51l-.85,.33v2.18c.02,.39-.11,.75-.4,1.07-.29,.32-.67,.48-1.15,.48h-1.73Zm4.65-8.45v-.92c-.02-.73-.17-1.35-.44-1.88-.21-.1-.52-.14-.92-.11v3.95h.18c.76-.23,1.16-.58,1.18-1.03Z" fill="#e7203d" stroke="#231f20" stroke-linecap="round" stroke-linejoin="round"/><path d="M28.48,78.2c-.5,0-.9-.16-1.19-.48-.29-.32-.43-.68-.43-1.07v-11.29c.02-.69,.21-1.26,.56-1.73,.35-.46,.72-.7,1.1-.71h4.83c1.08,.06,2.01,.5,2.8,1.3,.78,.81,1.29,1.64,1.53,2.51s.35,1.77,.32,2.72c-.04,1.51-.49,2.62-1.35,3.32,.77,1.09,1.25,2.39,1.42,3.87,.02,.39-.11,.75-.4,1.07-.29,.32-.67,.48-1.15,.48h-1.73c-.5,0-.89-.16-1.15-.49-.26-.33-.42-.68-.47-1.06-.17-1.17-.36-2-.55-2.51l-.85,.33v2.18c.02,.39-.11,.75-.4,1.07-.29,.32-.67,.48-1.15,.48h-1.73Zm4.65-8.45v-.92c-.02-.73-.17-1.35-.44-1.88-.21-.1-.52-.14-.92-.11v3.95h.18c.76-.23,1.16-.58,1.18-1.03Z" fill="#e7203d" stroke="#231f20" stroke-linecap="round" stroke-linejoin="round"/><circle cx="59.48" cy="46" r="6.86" fill="#e7203d" stroke="#231f20" stroke-linecap="round" stroke-linejoin="round"/></svg>