<?xml version="1.0" encoding="UTF-8"?><svg id="p" xmlns="http://www.w3.org/2000/svg" viewBox="0 0 92 92"><path d="M85.01,34.34c-2.08-2.34-4.81-4.4-8.14-6.17,.13-3.77-.29-7.16-1.28-10.13-1.45-4.38-4.13-7.8-7.75-9.89h0c-3.62-2.09-7.92-2.7-12.44-1.76-3.06,.63-6.22,1.96-9.41,3.96-3.19-2-6.35-3.33-9.41-3.96-4.52-.93-8.82-.32-12.44,1.76-3.62,2.09-6.3,5.51-7.75,9.89-.98,2.97-1.41,6.37-1.28,10.13-3.33,1.77-6.06,3.83-8.14,6.17-3.07,3.45-4.69,7.48-4.69,11.66s1.62,8.21,4.69,11.66c2.08,2.34,4.81,4.4,8.14,6.17-.13,3.77,.29,7.16,1.28,10.13,1.45,4.38,4.13,7.8,7.75,9.89,2.52,1.46,5.34,2.19,8.38,2.19,4.31,0,8.83-1.47,13.48-4.39,4.65,2.91,9.17,4.39,13.48,4.39,3.04,0,5.86-.74,8.37-2.19,3.62-2.09,6.3-5.51,7.75-9.89,.98-2.97,1.41-6.37,1.28-10.13,3.33-1.77,6.06-3.83,8.14-6.17,3.07-3.45,4.69-7.48,4.69-11.66s-1.62-8.21-4.69-11.66Z" fill="#7b5ea7" stroke="#231f20" stroke-linecap="round" stroke-linejoin="round"/><g><path d="M49.03,28.38c2.33,.09,4.61,.27,6.83,.55-1.95-2.57-4-4.92-6.1-6.99-1.26,.96-2.51,2.05-3.75,3.25,1.02,.99,2.03,2.05,3.03,3.19Z" fill="#f8f3d9" stroke="#231f20" stroke-linecap="round" stroke-linejoin="round"/><path d="M26.95,29.97c-.65-5.96,.46-10.23,3.03-11.72,.73-.42,1.6-.63,2.57-.63,2.46,0,5.63,1.32,9.09,3.86,.2,.15,.4,.3,.6,.45,1.24-1.22,2.49-2.34,3.75-3.35-.48-.38-.95-.75-1.43-1.1-6.58-4.82-12.64-6.08-17.06-3.53-4.42,2.55-6.36,8.42-5.48,16.54,.06,.59,.14,1.18,.24,1.79,1.51-.59,3.1-1.11,4.77-1.57-.03-.25-.06-.5-.09-.75Z" fill="#f8f3d9" stroke="#231f20" stroke-linecap="round" stroke-linejoin="round"/><path d="M59.74,34.57c-2.1-.42-4.31-.74-6.59-.96,1.35,1.9,2.65,3.92,3.87,6.03,1.22,2.11,2.32,4.24,3.29,6.36,.95-2.08,1.78-4.15,2.46-6.19-.47-.89-.96-1.77-1.46-2.65-.51-.88-1.03-1.74-1.56-2.59Z" fill="#f8f3d9" stroke="#231f20" stroke-linecap="round" stroke-linejoin="round"/><path d="M46,58.72c-2.44,0-4.83-.11-7.15-.34,1.33,1.86,2.71,3.61,4.13,5.23,1,.04,2.01,.06,3.03,.06s2.03-.02,3.03-.06c1.42-1.61,2.8-3.36,4.13-5.23-2.32,.22-4.72,.34-7.15,.34Z" fill="#f8f3d9" stroke="#231f20" stroke-linecap="round" stroke-linejoin="round"/><path d="M32.26,57.43c-1.48-.29-2.91-.64-4.27-1.03-.42,1.67-.74,3.3-.94,4.87,2.84,.79,5.9,1.39,9.1,1.79-1.35-1.78-2.65-3.66-3.89-5.64Z" fill="#f8f3d9" stroke="#231f20" stroke-linecap="round" stroke-linejoin="round"/><path d="M55.85,63.07c3.2-.4,6.26-1.01,9.1-1.79-.2-1.57-.52-3.2-.94-4.87-1.37,.39-2.8,.73-4.27,1.03-1.24,1.97-2.54,3.86-3.89,5.64Z" fill="#f8f3d9" stroke="#231f20" stroke-linecap="round" stroke-linejoin="round"/><path d="M64.49,13.97c-4.42-2.55-10.48-1.3-17.06,3.53-.48,.35-.95,.72-1.43,1.1-1.26,1.01-2.51,2.13-3.75,3.35-2.1,2.07-4.15,4.42-6.1,6.99-1.35,1.78-2.65,3.66-3.89,5.64-.53,.85-1.06,1.71-1.56,2.59-.51,.88-1,1.76-1.46,2.65,.69,2.03,1.51,4.1,2.46,6.19,.97-2.12,2.07-4.25,3.29-6.36,1.22-2.11,2.52-4.13,3.87-6.03,1.33-1.86,2.71-3.61,4.13-5.23,.99-1.13,2.01-2.2,3.03-3.19,1.24-1.2,2.49-2.29,3.75-3.25,.2-.15,.4-.31,.6-.45,3.46-2.54,6.63-3.86,9.09-3.86,.98,0,1.84,.21,2.57,.63,2.58,1.49,3.68,5.76,3.03,11.72-.03,.25-.06,.5-.09,.75,1.67,.46,3.27,.99,4.77,1.57,.09-.6,.17-1.2,.24-1.79,.89-8.11-1.06-13.99-5.48-16.54Z" fill="#f8f3d9" stroke="#231f20" stroke-linecap="round" stroke-linejoin="round"/><path d="M64.02,35.6c-.35,1.38-.76,2.79-1.25,4.22-.69,2.03-1.51,4.1-2.46,6.19-.97,2.12-2.07,4.25-3.29,6.36s-2.52,4.13-3.87,6.03c-1.33,1.86-2.71,3.61-4.13,5.23-.99,1.13-2.01,2.2-3.03,3.19-1.24,1.2-2.49,2.29-3.75,3.25-.2,.15-.4,.31-.6,.45-4.83,3.54-9.09,4.72-11.66,3.23-2.58-1.49-3.68-5.76-3.03-11.72,.03-.25,.06-.5,.09-.75,.2-1.57,.52-3.2,.94-4.87,.35-1.38,.76-2.79,1.25-4.22-1.09-2.06-2.07-4.13-2.94-6.19-1.25,2.98-2.26,5.93-3,8.78-.44,1.68-.78,3.32-1.02,4.92-.09,.6-.17,1.2-.24,1.79-.89,8.11,1.06,13.99,5.48,16.54,1.5,.86,3.18,1.29,5.01,1.29,3.57,0,7.7-1.63,12.05-4.82,.48-.35,.95-.72,1.43-1.1,1.26-1.01,2.51-2.13,3.75-3.35,2.1-2.07,4.15-4.42,6.1-6.99,1.35-1.78,2.65-3.66,3.89-5.64,.53-.85,1.06-1.71,1.56-2.59,.51-.88,1-1.76,1.46-2.65,1.09-2.06,2.07-4.13,2.94-6.19,1.25-2.98,2.26-5.93,3-8.78-1.46-.61-3.03-1.15-4.69-1.62Z" fill="#f8f3d9" stroke="#231f20" stroke-linecap="round" stroke-linejoin="round"/><path d="M71.4,32.99c-.54-.24-1.1-.47-1.67-.69-1.51-.59-3.1-1.11-4.77-1.57-2.84-.79-5.9-1.39-9.1-1.79-2.22-.28-4.5-.46-6.83-.55-1-.04-2.01-.06-3.03-.06s-2.03,.02-3.03,.06c-1.42,1.61-2.8,3.36-4.13,5.23,2.32-.22,4.72-.34,7.15-.34s4.83,.11,7.15,.34c2.28,.22,4.49,.54,6.59,.96,1.48,.29,2.91,.64,4.27,1.03,1.66,.47,3.23,1.02,4.69,1.62,.23,.1,.47,.2,.69,.3,5.48,2.42,8.63,5.51,8.63,8.48s-3.15,6.07-8.63,8.48c-.23,.1-.46,.2-.69,.3,.44,1.68,.78,3.32,1.02,4.92,.57-.22,1.12-.45,1.67-.69,7.47-3.29,11.58-7.91,11.58-13.01s-4.11-9.72-11.58-13.01Z" fill="#f8f3d9" stroke="#231f20" stroke-linecap="round" stroke-linejoin="round"/><path d="M42.97,63.62c-1.42-1.61-2.8-3.36-4.13-5.23-1.35-1.9-2.65-3.92-3.87-6.03-1.22-2.11-2.32-4.24-3.29-6.36-.95-2.08-1.78-4.15-2.46-6.19-.48-1.43-.9-2.84-1.25-4.22-1.66,.47-3.23,1.02-4.69,1.62,.74,2.85,1.75,5.8,3,8.78,.87,2.06,1.85,4.13,2.94,6.19,.47,.89,.96,1.77,1.46,2.65,.51,.88,1.03,1.74,1.56,2.59,1.24,1.97,2.54,3.86,3.89,5.64,1.95,2.57,4,4.92,6.1,6.99,1.26-.96,2.51-2.05,3.75-3.25-1.02-.99-2.03-2.05-3.03-3.19Z" fill="#f8f3d9" stroke="#231f20" stroke-linecap="round" stroke-linejoin="round"/><path d="M69.97,61.49c-.06-.59-.14-1.18-.24-1.79-.24-1.6-.59-3.24-1.02-4.92-.74-2.85-1.75-5.8-3-8.78-.87,2.06-1.85,4.13-2.94,6.19,.48,1.43,.9,2.84,1.25,4.22,.42,1.67,.74,3.3,.94,4.87,.03,.25,.06,.5,.09,.75,.65,5.96-.46,10.23-3.03,11.72-2.58,1.49-6.83,.31-11.66-3.23-.2-.15-.4-.3-.6-.45-1.24,1.22-2.49,2.34-3.75,3.35,.48,.38,.95,.75,1.43,1.1,4.35,3.19,8.48,4.82,12.05,4.82,1.83,0,3.52-.43,5.01-1.29,4.42-2.55,6.36-8.42,5.48-16.54Z" fill="#f8f3d9" stroke="#231f20" stroke-linecap="round" stroke-linejoin="round"/><path d="M27.04,30.72c-1.67,.46-3.27,.99-4.77,1.57-.57,.22-1.12,.45-1.67,.69-7.47,3.29-11.58,7.91-11.58,13.01s4.11,9.72,11.58,13.01c.54,.24,1.1,.47,1.67,.69,.24-1.6,.59-3.24,1.02-4.92-.23-.1-.47-.2-.69-.3-5.48-2.42-8.63-5.51-8.63-8.48s3.15-6.07,8.63-8.48c.23-.1,.46-.2,.69-.3,1.46-.61,3.03-1.15,4.69-1.62,1.37-.39,2.8-.73,4.27-1.03,1.24-1.97,2.54-3.86,3.89-5.64-3.2,.4-6.26,1.01-9.1,1.79Z" fill="#f8f3d9" stroke="#231f20" stroke-linecap="round" stroke-linejoin="round"/></g></svg>