<?xml version="1.0" encoding="UTF-8"?><svg id="p" xmlns="http://www.w3.org/2000/svg" viewBox="0 0 92 92"><path d="M87.64,38.83s0,0,0,0c0,0,0,0,0,0-.26-3.58-1.21-6.62-2.82-9.04-.58-.88-1.26-1.7-2.01-2.45l-4.81-5.76c-1.65-2.27-3.84-4.04-6.51-5.26-2.41-1.1-5.18-1.73-8.21-1.88h0c-.14,0-.27,0-.41,0h-6.94s-.08,0-.11,0c-3.49,.05-6.84,1.11-9.78,3.07-1.86-1.77-4.24-2.83-6.85-3.04-.23-.02-.46-.03-.69-.03H15.56c-.23,0-.46,0-.69,.03-3.15,.25-5.97,1.75-7.93,4.22-1.7,2.13-2.59,4.7-2.59,7.43v3.7c0,2.68,.87,5.21,2.51,7.32,0,.01,.02,.02,.03,.03,0,0,.01,.01,.02,.02l5.31,6.78v13.58c0,3.01,1.1,5.85,3.18,8.22l6.05,7.19c.17,.21,.34,.41,.51,.59,2.36,2.61,5.66,4.05,9.29,4.05h4.44c3.63,0,6.93-1.44,9.29-4.05,.64-.71,1.19-1.46,1.65-2.24,1.56,1.86,3.52,3.34,5.84,4.4,2.41,1.1,5.16,1.73,8.16,1.88,.14,0,.28,.01,.42,.01h7.04s.08,0,.11,0c4.04-.06,7.89-1.48,11.15-4.11,2.99-2.42,5.19-5.51,6.53-9.17,1.15-3.13,1.73-6.07,1.73-8.74,0-.17,0-.35-.02-.53,0,0,0,0,0-.01-.16-2.59-.75-4.73-1.54-6.47,.87-1.47,1.41-3.15,1.6-5.01,.03-.3,.05-.62,.05-.92v-3.14c0-.21,0-.42-.02-.64Z" fill="#f6b428" stroke="#231f20" stroke-linecap="round" stroke-linejoin="round"/><path d="M69.28,45.38h7.16c1.54-.12,2.4-1.05,2.59-2.77v-3.14c-.15-2.1-.62-3.74-1.41-4.92-.33-.49-.71-.94-1.15-1.34h0s-6.25-7.47-6.25-7.47c0,0-23.99,5.4-24.31,5.24l.26-.29-5.82-6.63-26.67,7.81,7.14,9.13,1.01-.51s.07,19.65,.07,19.65l6.17,7.34c.08,.1,.16,.2,.25,.29,.72,.8,1.69,1.2,2.89,1.2h4.44c1.2,0,2.16-.4,2.89-1.2,.72-.8,1.09-1.66,1.09-2.59v-24.68h5.27c.41-.03,.78-.14,1.11-.33l4.73,7.8-4.46,9.51,6.71,8.05c.12,.15,.24,.3,.37,.45h0c.7,.78,1.58,1.41,2.64,1.89,1.42,.65,3.08,1.02,4.99,1.11h7.03c2.13-.03,4.07-.76,5.85-2.2,1.77-1.43,3.06-3.24,3.86-5.43,.8-2.19,1.2-4.11,1.2-5.78-.15-2.47-.92-4.31-2.31-5.55-1.39-1.23-3.57-2.26-6.56-3.07-2.99-.82-2.36-1.67-.79-1.55Z" fill="#231f20" stroke="#231f20" stroke-linecap="round" stroke-linejoin="round"/><path d="M20.82,57.53v-24.68h-5.27c-.77-.06-1.39-.39-1.87-.99-.48-.6-.72-1.29-.72-2.06v-3.7c0-.77,.24-1.46,.72-2.06,.48-.6,1.1-.93,1.87-.99h22.93c.77,.06,1.39,.39,1.87,.99,.48,.6,.72,1.29,.72,2.06v3.7c0,.77-.24,1.46-.72,2.06-.48,.6-1.1,.93-1.87,.99h-5.27v24.68c0,.92-.36,1.79-1.09,2.59-.72,.8-1.69,1.2-2.89,1.2h-4.44c-1.2,0-2.17-.4-2.89-1.2-.72-.8-1.09-1.66-1.09-2.59Z" fill="#f3eed4" stroke="#231f20" stroke-linecap="round" stroke-linejoin="round"/><path d="M54.59,61.32c-1.91-.09-3.57-.46-4.99-1.11-1.42-.65-2.52-1.56-3.3-2.75-.79-1.19-1.26-2.83-1.41-4.92v-3.14c.18-1.73,1.05-2.65,2.59-2.77h7.03c1.54,.12,2.4,1.05,2.59,2.77,0,.83,.22,1.45,.65,1.85,.46,.4,.91,.4,1.34,0,.43-.62,.66-1.51,.69-2.68-.03-.62-.28-1.15-.74-1.59-.46-.45-2.19-1.08-5.18-1.89-2.99-.82-5.18-1.84-6.56-3.07-1.39-1.23-2.14-3.08-2.26-5.55-.03-1.66,.35-3.59,1.16-5.78,.8-2.19,2.09-4,3.86-5.43,1.77-1.43,3.74-2.16,5.89-2.2h6.93c1.94,.09,3.62,.46,5.04,1.11,1.42,.65,2.52,1.56,3.3,2.75,.79,1.19,1.26,2.83,1.41,4.92v3.14c-.19,1.73-1.05,2.65-2.59,2.77h-7.16c-1.57-.12-2.43-1.05-2.59-2.77,0-1.02-.19-1.63-.55-1.85-.49-.4-.96-.4-1.39,0-.37,.62-.57,1.51-.6,2.68,.03,.62,.28,1.15,.74,1.59,.46,.45,2.19,1.08,5.18,1.9,2.99,.82,5.18,1.84,6.56,3.07,1.39,1.23,2.16,3.08,2.31,5.55,0,1.66-.4,3.59-1.2,5.78-.8,2.19-2.09,4-3.86,5.43-1.77,1.43-3.72,2.17-5.85,2.2h-7.03Z" fill="#f3eed4" stroke="#231f20" stroke-linecap="round" stroke-linejoin="round"/></svg>