<svg xmlns="http://www.w3.org/2000/svg" id="p" viewBox="0 0 92 92"><path fill="#7b5ea7" stroke="#231f20" stroke-linecap="round" stroke-linejoin="round" d="M83.19 28.78c-2.12-3.67-5.57-6.39-9.97-7.87-2.81-.95-6-1.39-9.51-1.33-1.7-3.07-3.68-5.61-5.9-7.57-3.49-3.07-7.57-4.7-11.8-4.7s-8.32 1.63-11.8 4.7c-2.22 1.96-4.2 4.5-5.9 7.57-3.51-.06-6.7.38-9.51 1.33-4.41 1.48-7.85 4.2-9.97 7.87-1.49 2.58-2.24 5.46-2.24 8.56 0 5.04 2.1 10.57 6.07 15.98.23.31.48.64.74.98a7.566 7.566 0 0 0 5.58 2.9c.14 1.96.85 3.8 2.09 5.36h0c.84 1.06 1.87 1.9 3.03 2.49v9.62c0 2.5.92 4.83 2.66 6.75 1.91 2.11 4.57 3.28 7.5 3.28h2.91c2.87 0 5.48-1.12 7.38-3.15.85.69 1.79 1.28 2.82 1.74 1.8.82 3.83 1.29 6.04 1.4h5.08c3.07-.04 6-1.12 8.47-3.12 2.23-1.81 3.87-4.1 4.87-6.83.83-2.26 1.25-4.41 1.25-6.38 0-.15 0-.31-.01-.46v-.01c-.1-1.55-.4-2.88-.82-4.03.44-.96.73-2.02.85-3.16.03-.27.04-.54.04-.81v-2.06c0-.18 0-.36-.02-.54V57.19a7.566 7.566 0 0 0 5.58-2.9c.26-.33.51-.66.74-.98 4.03-5.5 6.07-10.88 6.07-15.99 0-3.1-.76-5.98-2.24-8.56Z"/><g fill="none" opacity=".28"><path d="M56.57 59.01c-.17.32-.27.8-.29 1.43.02.27.12.49.33.69.05.05.26.19 1.02.46-.39-.39-.62-.94-.69-1.65v-.04c0-.6-.11-.76-.13-.78-.02-.01-.04-.02-.05-.04-.11-.09-.15-.1-.2-.07ZM55.86 69.34c0 .39.09.68.26.84.07.06.11.07.11.07s.02 0 .05-.03c.2-.32.31-.79.33-1.41-.02-.27-.12-.49-.33-.69-.06-.05-.28-.21-1.19-.52.42.39.68.96.76 1.7v.05Z"/></g><g fill="#f8f3d9" stroke="#231f20" stroke-linecap="round" stroke-linejoin="round"><g><path d="M39.89 39.46c2.03-1.15 4.08-2.18 6.12-3.08-1.98-.93-3.96-1.74-5.89-2.42-.85.44-1.7.9-2.55 1.38s-1.68.97-2.5 1.47c-.42 2.01-.75 4.12-.98 6.29a72.25 72.25 0 0 1 5.8-3.64ZM51.95 34.08c1.37-.45 2.72-.83 4.05-1.15a40.9 40.9 0 0 0-1.51-4.5c-2.74.68-5.57 1.62-8.43 2.79 1.96.85 3.93 1.81 5.89 2.87ZM26.19 49.64c.89-.89 1.85-1.77 2.85-2.64.11-2.23.3-4.41.59-6.52-2.48 1.84-4.75 3.78-6.74 5.77.85 1.14 1.81 2.27 2.86 3.39h.43Z"/><path d="M33.7 49.64c.03-2.23.16-4.42.39-6.54.23-2.18.56-4.29.98-6.29.3-1.41.64-2.77 1.03-4.08.47-1.58 1-3.08 1.6-4.47.1-.22.19-.44.29-.66 2.36-5.22 5.35-8.2 8.2-8.17 2.85.03 5.77 3.07 8.03 8.34.09.22.19.44.28.67a40.9 40.9 0 0 1 1.51 4.5c.36 1.31.67 2.68.94 4.1 1.87 1.2 3.66 2.47 5.35 3.78-.36-3.07-.9-6-1.62-8.73-.43-1.6-.91-3.14-1.46-4.58-.21-.55-.42-1.08-.64-1.6-3.08-7.18-7.46-11.16-12.34-11.21-1.65-.02-3.26.42-4.78 1.28-2.98 1.68-5.65 4.97-7.78 9.68a46.641 46.641 0 0 0-2.22 6.14c-.78 2.71-1.38 5.63-1.8 8.69-.29 2.12-.49 4.3-.59 6.52-.04.87-.07 1.76-.08 2.64h4.74Z"/><path d="M19.53 49.64h6.23a41.172 41.172 0 0 1-2.86-3.39c-.15-.19-.29-.39-.43-.58-3.34-4.66-4.43-8.74-2.98-11.19 1.45-2.45 5.54-3.47 11.24-2.79l.72.09c.46-1.6.98-3.12 1.55-4.55-.58-.09-1.15-.18-1.71-.24-5.13-.61-9.33-.03-12.3 1.65-1.52.86-2.73 2.01-3.57 3.43-2.48 4.2-1.34 10.01 3.21 16.35.29.41.6.81.91 1.22ZM61.38 32c5.71-.56 9.78.53 11.18 3.01 1.4 2.48.23 6.53-3.2 11.12-.14.19-.29.38-.44.57-.77.98-1.62 1.96-2.54 2.93h6.26l.51-.66c4.68-6.25 5.93-12.04 3.54-16.29-2.4-4.25-8-6.17-15.77-5.4-.56.06-1.13.13-1.71.21.55 1.45 1.03 2.98 1.46 4.58.24-.03.48-.06.72-.08Z"/></g><g><path d="M45.98 36.37s.02 0 .03.01c2.02.95 4.05 2.02 6.05 3.21 1.9 1.12 3.71 2.31 5.43 3.54.1.07.2.14.3.22 1.77 1.29 3.43 2.63 4.96 4 .85.76 1.65 1.53 2.41 2.3h6.48l-2.73-2.93c-1.96-2.03-4.19-4.01-6.63-5.91a77.119 77.119 0 0 0-5.35-3.78 67.94 67.94 0 0 0-2.47-1.52c-.84-.49-1.68-.97-2.52-1.43a75.827 75.827 0 0 0-5.89-2.87 61.825 61.825 0 0 0-8.37-2.96 40.32 40.32 0 0 0-1.6 4.47c1.32.34 2.66.76 4.02 1.23 1.93.68 3.89 1.48 5.87 2.4Z"/><path d="M58.05 49.64h4.73c0-.77 0-1.54-.03-2.3a63.583 63.583 0 0 0-4.96-4c.02.22.04.44.05.66.14 1.84.21 3.73.2 5.64Z"/></g></g><g fill="#f3eed4" stroke="#231f20" stroke-linecap="round" stroke-linejoin="round"><path d="M31.55 74.84V58.61h-3.47c-.51-.04-.92-.26-1.23-.65-.31-.4-.47-.85-.47-1.35v-2.43c0-.51.16-.96.47-1.35.31-.4.72-.61 1.23-.65h15.08c.51.04.92.26 1.23.65.31.4.47.85.47 1.35v2.43c0 .51-.16.96-.47 1.35-.31.4-.72.61-1.23.65h-3.47v16.23c0 .61-.24 1.18-.71 1.7-.48.53-1.11.79-1.9.79h-2.92c-.79 0-1.42-.26-1.9-.79s-.71-1.09-.71-1.7ZM53.76 77.33c-1.26-.06-2.35-.3-3.28-.73-.93-.43-1.66-1.03-2.17-1.81-.52-.78-.83-1.86-.93-3.24v-2.07c.12-1.13.69-1.74 1.7-1.82h4.62c1.01.08 1.58.69 1.7 1.82 0 .55.14.95.43 1.22.3.26.6.26.88 0 .28-.41.44-.99.46-1.76-.02-.41-.18-.75-.49-1.05-.3-.29-1.44-.71-3.4-1.25-1.97-.54-3.4-1.21-4.32-2.02-.91-.81-1.41-2.03-1.49-3.65-.02-1.09.23-2.36.76-3.8s1.37-2.63 2.54-3.57 2.46-1.42 3.88-1.44h4.56c1.28.06 2.38.3 3.31.73.93.43 1.66 1.03 2.17 1.81.52.78.83 1.86.93 3.24v2.07c-.12 1.14-.69 1.74-1.7 1.82h-4.71c-1.03-.08-1.6-.69-1.7-1.82 0-.67-.12-1.07-.36-1.22-.32-.26-.63-.26-.91 0-.24.41-.38.99-.4 1.76.02.41.18.76.49 1.05.3.29 1.44.71 3.4 1.25 1.97.54 3.4 1.21 4.32 2.02.91.81 1.42 2.03 1.52 3.65 0 1.09-.26 2.36-.79 3.8s-1.37 2.63-2.54 3.57-2.45 1.42-3.85 1.44h-4.62Z"/></g></svg>