<svg width="322" height="52" viewBox="0 0 322 52" fill="none" xmlns="http://www.w3.org/2000/svg">
<path d="M9.92 25.68C11.3333 25.68 12.8533 25.6133 14.48 25.48C16.1067 25.32 17.1067 25.24 17.48 25.24C17.88 25.24 18.1867 25.3333 18.4 25.52C18.64 25.7067 18.76 25.9333 18.76 26.2C18.76 27.3733 17.6533 28.3067 15.44 29C13.2267 29.6933 10.8667 30.0933 8.36 30.2C7.32 33.4267 6.8 35.4667 6.8 36.32C6.8 36.7733 7.02667 37 7.48 37C10.52 37 13.6533 36.6 16.88 35.8C17.9733 35.5067 18.6 35.36 18.76 35.36C19.2667 35.36 19.52 35.72 19.52 36.44C19.52 37.4 18.8133 38.3333 17.4 39.24C15.9867 40.1467 14.2133 40.8667 12.08 41.4C9.94667 41.9333 7.85333 42.2 5.8 42.2C4.57333 42.2 3.46667 41.7467 2.48 40.84C1.49333 39.9067 1 38.8267 1 37.6C1 36.3467 1.68 33.2267 3.04 28.24C4.42667 23.2533 5.16 19.4933 5.24 16.96C5.21333 16.88 5.2 16.72 5.2 16.48C5.2 16.1067 5.25333 15.8133 5.36 15.6C5.65333 14.8533 6.46667 14.3867 7.8 14.2C9.13333 13.9867 11.5333 13.88 15 13.88C20.76 13.88 23.64 14.52 23.64 15.8C23.64 16.6267 22.9333 17.2 21.52 17.52C20.56 17.7333 19.24 17.9333 17.56 18.12C14.9733 18.4133 12.6667 18.84 10.64 19.4C10.64 21.2133 10.32 23.3067 9.68 25.68H9.92ZM42.9913 13C43.7646 13 44.6179 13.4 45.5512 14.2C46.5113 15 46.9913 15.6533 46.9913 16.16C46.9913 17.84 46.5913 20.76 45.7913 24.92C45.0179 29.0533 44.0179 33.0133 42.7913 36.8C41.5646 40.5867 40.4579 42.48 39.4713 42.48C39.0713 42.48 38.5513 42.2667 37.9113 41.84C37.2713 41.3867 36.8446 40.8667 36.6313 40.28C36.4179 39.6667 36.0046 38.4133 35.3913 36.52C33.9779 32.1733 32.6446 28.5733 31.3913 25.72C31.2046 26.52 30.9513 27.6533 30.6313 29.12C30.3379 30.5867 30.0979 31.7467 29.9113 32.6C29.7246 33.4267 29.4979 34.44 29.2313 35.64C28.9646 36.8133 28.7246 37.7467 28.5113 38.44C28.3246 39.1333 28.1113 39.8267 27.8713 40.52C27.4446 41.8267 27.0446 42.48 26.6713 42.48C26.1379 42.48 25.4446 42 24.5913 41.04C23.7379 40.0533 23.3113 39.2133 23.3113 38.52C23.3113 37.8 24.0713 34.08 25.5913 27.36C27.1379 20.64 27.9779 16.4267 28.1113 14.72C28.1913 13.7067 28.4979 13.2 29.0313 13.2C29.4846 13.2 30.0579 13.4667 30.7513 14C31.4713 14.5333 32.0846 15.1867 32.5912 15.96C33.1246 16.7067 34.0713 19.1733 35.4313 23.36C36.7913 27.5467 37.8713 30.5467 38.6713 32.36C39.7113 29.2667 40.6713 24.6 41.5513 18.36C41.8979 15.88 42.1246 14.3733 42.2312 13.84C42.3379 13.28 42.5913 13 42.9913 13ZM58.3456 29.4C58.3456 28.84 58.9856 28.3867 60.2656 28.04C61.5456 27.6933 62.9323 27.52 64.4256 27.52C65.919 27.52 67.0523 28.12 67.8256 29.32C68.6256 30.52 69.0256 31.8533 69.0256 33.32C69.0256 34.7867 68.399 37.32 67.1456 40.92C65.919 44.4933 64.8523 46.28 63.9456 46.28C63.5723 46.28 63.2523 46.16 62.9856 45.92C62.7456 45.7067 62.6256 45.4267 62.6256 45.08C62.6256 43.16 63.159 40.4133 64.2256 36.84C62.9723 38.44 61.599 39.7333 60.1056 40.72C58.639 41.7067 57.119 42.2 55.5456 42.2C53.999 42.2 52.3723 41.52 50.6656 40.16C48.959 38.8 48.1056 37.3067 48.1056 35.68C48.1056 32.8 48.959 29.6133 50.6656 26.12C52.3723 22.6 54.5323 19.6 57.1456 17.12C59.759 14.64 62.2256 13.4 64.5456 13.4C65.3456 13.4 66.1723 14.0267 67.0256 15.28C67.9056 16.5333 68.3456 17.68 68.3456 18.72C68.3456 19.2 68.1723 19.44 67.8256 19.44C67.7723 19.44 67.519 19.3867 67.0656 19.28C66.6123 19.1733 66.0523 19.12 65.3856 19.12C63.599 19.12 61.7723 20.04 59.9056 21.88C58.039 23.6933 56.519 25.9333 55.3456 28.6C54.1723 31.2667 53.5856 33.7733 53.5856 36.12C53.5856 36.8133 54.039 37.16 54.9456 37.16C56.199 37.16 57.7323 36.6 59.5456 35.48C61.3856 34.36 62.799 33.1067 63.7856 31.72C63.199 31.7467 62.479 31.76 61.6256 31.76C60.799 31.76 60.039 31.5067 59.3456 31C58.679 30.4933 58.3456 29.96 58.3456 29.4ZM79.8528 12.6C80.5195 12.6 81.3328 13.04 82.2928 13.92C83.2528 14.8 83.7328 15.7067 83.7328 16.64C83.7328 19.2 82.4128 24.16 79.7728 31.52C78.8661 34.1067 78.4128 35.9067 78.4128 36.92C78.4128 37.0533 78.4395 37.1333 78.4928 37.16C78.5461 37.1867 79.0395 37.2 79.9728 37.2C80.9061 37.2 82.1861 37.0667 83.8128 36.8C85.4661 36.5067 86.7995 36.2267 87.8128 35.96C88.8528 35.6933 89.4661 35.56 89.6528 35.56C90.3195 35.56 90.6528 35.9867 90.6528 36.84C90.6528 38.52 89.3728 39.88 86.8128 40.92C84.2795 41.9333 81.3328 42.44 77.9728 42.44C76.6661 42.44 75.4661 41.96 74.3728 41C73.3061 40.0133 72.7728 38.9333 72.7728 37.76C72.7728 36.5867 73.7595 32.8 75.7328 26.4C77.7061 19.9733 78.6928 15.8133 78.6928 13.92C78.6928 13.04 79.0795 12.6 79.8528 12.6ZM98.4888 42.48C97.9554 42.48 97.2354 41.9333 96.3288 40.84C95.4221 39.72 94.9688 38.9067 94.9688 38.4C94.9688 37.8933 95.6221 34.1867 96.9288 27.28C98.2621 20.3467 98.9554 16.0933 99.0088 14.52C99.0621 13.64 99.4754 13.2 100.249 13.2C100.889 13.2 101.742 13.84 102.809 15.12C103.875 16.4 104.409 17.6 104.409 18.72C104.409 19.2 104.035 21.0133 103.289 24.16C102.569 27.28 102.075 29.4667 101.809 30.72C101.569 31.9467 101.355 33.0533 101.169 34.04C100.982 35 100.835 35.76 100.729 36.32C99.9821 39.7333 99.3954 41.6933 98.9688 42.2C98.8088 42.3867 98.6488 42.48 98.4888 42.48ZM125.273 34.2C125.273 36.4667 124.193 38.4133 122.033 40.04C119.873 41.6667 117.406 42.48 114.633 42.48C111.859 42.48 109.619 41.8 107.913 40.44C106.233 39.0533 105.393 37.6267 105.393 36.16C105.393 34.6933 105.806 33.96 106.632 33.96C107.273 33.96 107.939 34.28 108.633 34.92C109.326 35.56 110.099 36.2 110.953 36.84C111.833 37.48 112.819 37.8 113.913 37.8C115.006 37.8 116.246 37.3467 117.633 36.44C119.019 35.5333 119.713 34.7733 119.713 34.16C119.713 33.5467 118.953 32.52 117.433 31.08C115.939 29.64 114.433 28.16 112.913 26.64C111.419 25.0933 110.673 23.9067 110.673 23.08C110.673 22.2267 110.819 21.3067 111.113 20.32C111.433 19.3333 111.819 18.6533 112.273 18.28C113.713 16.8667 115.566 15.6533 117.833 14.64C120.126 13.6 122.139 13.08 123.873 13.08C124.886 13.08 125.726 13.52 126.393 14.4C127.059 15.2533 127.393 16.1467 127.393 17.08C127.393 17.4533 127.086 17.76 126.473 18C125.886 18.2133 125.019 18.44 123.873 18.68C122.753 18.92 121.606 19.2667 120.433 19.72C117.713 20.7333 116.353 21.5867 116.353 22.28C116.353 22.6 116.819 23.1867 117.753 24.04C118.686 24.8667 119.699 25.7467 120.793 26.68C121.913 27.5867 122.939 28.7467 123.873 30.16C124.806 31.5467 125.273 32.8933 125.273 34.2ZM133.263 42.48C132.703 42.48 131.916 41.8533 130.903 40.6C129.889 39.32 129.383 38.3467 129.383 37.68C129.383 36.9867 129.783 34.92 130.583 31.48C129.943 30.84 129.623 30.04 129.623 29.08C129.623 28.5467 130.263 28.0133 131.543 27.48C133.223 20.6533 134.063 16.3333 134.063 14.52C134.063 13.64 134.449 13.2 135.223 13.2C135.863 13.2 136.689 13.84 137.703 15.12C138.743 16.4 139.263 17.6 139.263 18.72C139.263 19.44 138.783 21.84 137.823 25.92C140.116 25.52 142.396 25.28 144.663 25.2C145.943 19.84 146.583 16.28 146.583 14.52C146.583 13.64 146.969 13.2 147.743 13.2C148.383 13.2 149.209 13.84 150.223 15.12C151.263 16.4 151.783 17.6 151.783 18.72C151.783 19.28 151.263 21.5733 150.223 25.6C151.556 25.92 152.223 26.44 152.223 27.16C152.223 27.9867 151.236 28.64 149.263 29.12C148.303 32.8 147.676 35.24 147.383 36.44C147.089 37.6133 146.863 38.5067 146.703 39.12C146.569 39.7067 146.423 40.28 146.263 40.84C145.969 41.9333 145.689 42.48 145.423 42.48C144.783 42.48 144.009 41.9733 143.103 40.96C142.223 39.9467 141.783 38.9333 141.783 37.92C141.783 37.3333 142.343 34.7333 143.463 30.12C140.396 30.6267 138.036 31.0933 136.383 31.52C135.556 34.6933 135.009 36.9067 134.743 38.16C134.476 39.3867 134.263 40.28 134.103 40.84C133.809 41.9333 133.529 42.48 133.263 42.48ZM157.798 42.28C157.184 42.28 156.451 41.7733 155.598 40.76C154.744 39.72 154.318 38.88 154.318 38.24C154.318 37.6 154.638 36.28 155.278 34.28C157.251 28.1467 158.304 22.7733 158.438 18.16C157.531 17.2 157.078 16.44 157.078 15.88C157.078 15 158.118 14.1733 160.198 13.4C162.304 12.6 164.304 12.2 166.198 12.2C169.398 12.2 171.918 12.9467 173.758 14.44C175.624 15.9333 176.558 17.84 176.558 20.16C176.558 23.12 175.104 25.8 172.198 28.2C169.318 30.6 165.678 32.24 161.278 33.12C160.024 37.6267 159.198 40.28 158.798 41.08C158.424 41.88 158.091 42.28 157.798 42.28ZM170.878 20.28C170.878 19.4267 170.571 18.7333 169.958 18.2C169.344 17.64 168.518 17.36 167.478 17.36C166.438 17.36 164.998 17.8533 163.158 18.84C163.691 19.7733 163.958 20.6133 163.958 21.36C163.958 22.8267 163.571 25 162.798 27.88C165.198 26.92 167.144 25.7733 168.638 24.44C170.131 23.08 170.878 21.6933 170.878 20.28ZM188.231 35.6C189.777 34.2133 191.124 32.48 192.271 30.4C193.417 28.2933 193.991 26.28 193.991 24.36C193.991 22.44 193.751 20.96 193.271 19.92C192.791 18.88 192.124 18.36 191.271 18.36C190.417 18.36 189.297 19.1333 187.911 20.68C186.551 22.2 185.311 24.2 184.191 26.68C183.097 29.16 182.551 31.5333 182.551 33.8C182.551 34.9467 182.711 35.88 183.031 36.6C183.351 37.2933 183.751 37.64 184.231 37.64C185.351 37.64 186.684 36.96 188.231 35.6ZM184.271 42.48C182.297 42.48 180.537 41.52 178.991 39.6C177.444 37.6533 176.671 35.72 176.671 33.8C176.671 31.3467 177.137 28.84 178.071 26.28C179.004 23.6933 180.164 21.4667 181.551 19.6C182.964 17.7067 184.511 16.16 186.191 14.96C187.871 13.7333 189.417 13.12 190.831 13.12C193.417 13.12 195.537 14.2267 197.191 16.44C198.844 18.6267 199.671 21.0933 199.671 23.84C199.671 26.5867 198.977 29.3733 197.591 32.2C196.204 35 194.284 37.4133 191.831 39.44C189.404 41.4667 186.884 42.48 184.271 42.48ZM204.556 13.12C206.636 13.12 208.903 13.5467 211.356 14.4C213.836 15.2533 216.13 16.3733 218.236 17.76C220.37 19.1467 222.143 20.8133 223.556 22.76C224.996 24.7067 225.716 26.68 225.716 28.68C225.716 30.1733 224.503 32.04 222.076 34.28C219.676 36.4933 216.89 38.4133 213.716 40.04C210.543 41.6667 207.943 42.48 205.916 42.48C205.463 42.48 204.73 41.8933 203.716 40.72C202.73 39.52 202.236 38.64 202.236 38.08C202.236 36.9867 202.956 33.9467 204.396 28.96C205.863 23.9467 206.77 20.5067 207.116 18.64C206.156 18 205.356 17.24 204.716 16.36C204.076 15.4533 203.756 14.6933 203.756 14.08C203.756 13.44 204.023 13.12 204.556 13.12ZM219.956 27.56C219.956 26.7067 219.17 25.5867 217.596 24.2C216.023 22.7867 214.196 21.6133 212.116 20.68C211.956 22.68 210.823 26.96 208.716 33.52C208.61 33.8667 208.436 34.44 208.196 35.24C207.983 36.0133 207.823 36.5333 207.716 36.8C210.33 35.92 213.023 34.44 215.796 32.36C218.57 30.2533 219.956 28.6533 219.956 27.56Z" fill="#FB6F92"/>
<path d="M225.22 44.216C224.62 44.216 223.936 43.832 223.168 43.064C222.4 42.272 222.016 41.624 222.016 41.12C222.016 40.592 222.22 40.076 222.628 39.572C223.06 39.044 223.492 38.78 223.924 38.78C224.38 38.78 224.896 39.368 225.472 40.544C226.072 41.72 226.372 42.608 226.372 43.208C226.372 43.4 226.24 43.616 225.976 43.856C225.712 44.096 225.46 44.216 225.22 44.216ZM235.455 43.46C234.063 43.46 232.755 42.92 231.531 41.84C230.307 40.736 229.695 39.44 229.695 37.952C229.695 36.44 230.199 34.7 231.207 32.732C232.215 30.764 233.511 29.084 235.095 27.692C236.703 26.3 238.263 25.604 239.775 25.604C240.759 25.604 241.623 26.048 242.367 26.936C243.111 27.824 243.483 28.604 243.483 29.276C243.483 29.468 243.423 29.636 243.303 29.78C243.183 29.9 243.003 29.96 242.763 29.96C242.547 29.96 242.151 29.744 241.575 29.312C240.999 28.88 240.483 28.664 240.027 28.664C238.731 28.664 237.219 29.804 235.491 32.084C233.763 34.364 232.899 36.356 232.899 38.06C232.899 38.804 233.127 39.392 233.583 39.824C234.063 40.256 234.819 40.472 235.851 40.472C236.907 40.472 237.867 40.352 238.731 40.112C239.619 39.848 240.303 39.596 240.783 39.356C241.263 39.092 241.635 38.96 241.899 38.96C242.355 38.96 242.583 39.188 242.583 39.644C242.583 40.34 241.743 41.156 240.063 42.092C238.407 43.004 236.871 43.46 235.455 43.46ZM252.782 18.548C252.782 23.06 251.846 28.916 249.974 36.116C248.774 41.012 247.934 43.46 247.454 43.46C247.118 43.46 246.722 43.196 246.266 42.668C245.834 42.14 245.618 41.732 245.618 41.444C245.618 41.156 245.966 39.668 246.662 36.98C247.358 34.292 248.054 30.992 248.75 27.08C249.446 23.144 249.794 19.604 249.794 16.46C249.794 16.124 249.842 15.884 249.938 15.74C250.034 15.596 250.238 15.524 250.55 15.524C250.862 15.524 251.306 15.872 251.882 16.568C252.482 17.24 252.782 17.9 252.782 18.548ZM267.258 26.612C267.354 26.228 267.45 25.964 267.546 25.82C267.642 25.676 267.846 25.604 268.158 25.604C268.494 25.604 268.89 25.916 269.346 26.54C269.826 27.164 270.066 27.764 270.066 28.34C270.066 28.652 269.538 30.5 268.482 33.884C267.426 37.268 266.61 39.956 266.034 41.948C265.746 42.956 265.338 43.46 264.81 43.46C264.498 43.46 264.234 43.328 264.018 43.064C263.802 42.8 263.694 42.32 263.694 41.624C263.694 40.928 263.97 39.668 264.522 37.844C263.514 39.476 262.422 40.82 261.246 41.876C260.07 42.932 258.99 43.46 258.006 43.46C257.046 43.46 256.134 43.004 255.27 42.092C254.406 41.18 253.974 40.244 253.974 39.284C253.974 37.004 254.634 34.16 255.954 30.752C257.298 27.32 258.414 25.604 259.302 25.604C259.734 25.604 260.106 25.808 260.418 26.216C260.754 26.6 260.922 27.044 260.922 27.548C260.922 27.764 260.598 28.544 259.95 29.888C259.302 31.208 258.654 32.768 258.006 34.568C257.358 36.344 257.034 37.904 257.034 39.248C257.034 39.632 257.154 39.956 257.394 40.22C257.634 40.46 257.922 40.58 258.258 40.58C259.17 40.58 260.25 39.776 261.498 38.168C262.77 36.56 263.922 34.688 264.954 32.552C265.986 30.416 266.754 28.436 267.258 26.612ZM273.394 43.46C273.058 43.46 272.662 43.208 272.206 42.704C271.75 42.176 271.522 41.684 271.522 41.228C271.522 40.772 271.894 39.212 272.638 36.548C273.406 33.884 274.162 30.68 274.906 26.936C275.674 23.168 276.058 19.724 276.058 16.604C276.058 15.884 276.322 15.524 276.85 15.524C277.234 15.524 277.702 15.884 278.254 16.604C278.806 17.3 279.082 17.984 279.082 18.656C279.082 21.608 278.434 25.82 277.138 31.292C279.994 27.428 282.586 25.496 284.914 25.496C286.042 25.496 286.99 26.048 287.758 27.152C288.55 28.256 288.946 29.576 288.946 31.112C288.946 32.624 288.502 34.364 287.614 36.332C286.75 38.3 285.574 39.992 284.086 41.408C282.598 42.8 281.038 43.496 279.406 43.496C277.774 43.496 276.166 42.668 274.582 41.012L274.546 41.048C274.018 42.656 273.634 43.46 273.394 43.46ZM279.118 40.688C280.678 40.688 282.202 39.632 283.69 37.52C285.202 35.384 285.958 33.14 285.958 30.788C285.958 29.372 285.526 28.664 284.662 28.664C283.27 28.664 281.71 29.636 279.982 31.58C278.278 33.524 276.802 35.84 275.554 38.528C276.682 39.968 277.87 40.688 279.118 40.688Z" fill="#F0BA4B"/>
</svg>
