<svg xmlns="http://www.w3.org/2000/svg" id="b" viewBox="0 0 314 112"><g><g fill="#f9f4da"><path d="M51.93 1.7c14.6 0 21.93 6.85 18.63 20.48-2.42 9.76-7.58 13.55-18.22 14.76l-.16.56c8.31 1.13 11.13 3.87 10.56 12.34-.08 3.95-.56 9.44-.56 12.34H41.62c-3.55 0-4.28-1.29-3.95-6.45 1.13-10.64.73-12.74-3.55-12.74-1.61 0-2.26 0-3.79.08-1.77 7.66-3.15 14.43-3.79 19.11H1.52c2.34-8.71 4.6-17.34 7.82-30.24 3.23-12.82 5.32-21.53 7.26-30.24h35.33Zm-5.81 22.34c1.53-6.29-.24-8.06-4.52-8.06-.97 0-2.98.08-4.92.16-1.13 4.76-2.34 9.6-3.47 14.19 1.61.08 3.63.08 5.97.08 3.71 0 5.73-1.85 6.94-6.37ZM130.87 1.7c-.56 1.94-1.45 5.32-2.18 8.06-.73 2.9-1.61 6.53-2.01 8.55-8.39-.16-17.34-.16-24.36-.16l-1.45 5.97c8.22 0 16.85-.08 23.79-.32-.89 3.39-2.74 10.56-3.63 14.35-6.69-.24-15.4-.4-23.55-.4l-1.53 6.21c7.18 0 16.69-.08 24.43-.16-.73 2.34-1.69 6.13-2.42 9.35-.8 3.06-1.69 6.61-2.18 9.03H66.43c2.34-8.47 4.68-17.34 7.82-30.24 3.22-12.82 5.4-21.93 7.26-30.24h49.35ZM187.56 1.7c-.48 8.06-2.42 45.16-2.18 60.48h-26.85c.56-2.34 1.29-6.21 2.01-10.89h-12.18c-1.61 4.6-2.9 8.47-3.55 10.89h-26.05c7.58-15.24 24.11-52.58 27.26-60.48h41.53ZM162.4 37.59c.65-5.48 1.21-11.21 1.61-16.29.08-3.31.4-7.26.73-10.32h-.4c-1.29 3.06-2.82 6.94-4.43 10.4-2.18 5.08-4.44 10.73-6.45 16.21h8.95ZM231.11 25.25c1.45-5.81.08-7.74-3.71-7.74-4.03.08-6.53 2.26-9.19 13.14-2.66 10.56-.97 13.63 3.31 13.63 3.55 0 5.73-2.98 6.85-7.5.24-.89.4-1.94.65-2.98 3.87.08 7.98.08 12.02.08s8.06 0 12.01-.08c-.24 1.77-.65 3.47-1.05 5-4.59 18.31-12.74 24.43-33.3 24.43-23.95 0-31.21-11.05-25.4-34.03C198.53 7.99 208.85.66 229.74.66c23.39 0 29.43 8.55 26.37 21.29-.48 1.77-1.05 3.71-1.77 5.81-3.95-.16-7.98-.16-11.94-.16s-8.07 0-11.94.16c.24-.89.48-1.77.65-2.5ZM312.63 1.7c-.81 2.82-1.93 7.26-2.9 11.21-1.05 3.87-2.18 8.63-2.82 11.69-3.71-.08-7.34-.16-10.89-.16-4.28 17.5-8.23 33.87-9.03 37.82-3.55-.24-9.43-.24-13.63-.24s-9.92 0-13.63.24c1.21-3.95 5.4-20.32 9.76-37.82-3.55.08-7.26.08-10.97.16.89-3.06 2.01-7.82 3.06-11.69.97-3.95 2.1-8.39 2.66-11.21h48.38Z"/></g><g fill="#f088a0"><path d="M36.26 75.56c-5.25 8.15-17.94 29.6-21.03 35.13-1.36-.05-3.09-.05-5.01-.05-2.53 0-4.12 0-5.15.05-.42-5.57-2.29-27.12-3.7-35.13h8.01c-.14 3.75.84 14.99 1.4 22.9.28 3.09.42 5.39.47 7.17.98-1.83 2.3-4.17 4.17-7.31 4.4-7.87 11.01-19.25 12.74-22.76h8.1ZM32.18 110.69c1.36-5.06 2.67-10.12 4.5-17.56 1.87-7.49 3.14-12.55 4.26-17.56h7.12c-1.4 4.96-2.62 10.02-4.5 17.52-1.87 7.45-3.14 12.5-4.26 17.61h-7.12ZM72.45 101.88c.84-3.33-.66-5.01-8.01-6.42-9.51-1.59-11.94-6.28-10.58-11.9 1.36-5.57 5.99-8.66 15.32-8.66 11.1 0 14.75 4.45 13.3 10.3-.19.61-.37 1.17-.56 1.87-.75-.05-1.87-.09-3.09-.09s-2.48.05-3.23.09c.14-.42.28-.94.38-1.26.8-3.28-.89-5.29-7.59-5.29-4.96 0-7.26 1.08-7.87 3.51-.66 2.72.23 4.64 7.87 6.18 9.27 1.97 11.99 5.9 10.44 12.18-1.5 5.95-5.95 8.95-15.17 8.95-11.38 0-15.92-4.68-14.43-10.82.14-.56.28-1.08.47-1.69.8.09 1.97.19 3.23.19s2.58-.05 3.56-.09c-.14.33-.23.66-.28.98-.94 3.61 1.03 5.81 7.92 5.81 5.39 0 7.68-1.17 8.34-3.84ZM123.83 75.56c-.8 2.86-1.59 5.71-2.67 9.93-.89 3.51-2.06 8.71-3.18 13.16-1.97 8.01-7.07 12.65-16.35 12.65-12.6 0-16.02-6.93-13.96-15.31.89-3.51 2.01-7.68 2.72-10.49 1.08-4.21 1.73-7.12 2.29-9.93h7.21c-1.4 4.78-4.03 15.17-5.34 20.42-1.55 5.95.84 9.18 7.31 9.18 5.39 0 8.29-2.62 9.79-8.52 1.36-5.43 3.98-16.25 5.06-21.08h7.12ZM148.04 110.69c0-1.36-.19-4.4-.52-8.15h-16.3c-2.11 3.61-3.84 6.6-4.68 8.15h-7.77c5.43-8.2 18.83-30.11 21.83-35.13h10.54c.61 5.15 3.04 26.41 4.59 35.13h-7.68Zm-.98-13.21c-.33-3.89-.75-7.87-1.08-11.15-.47-3.28-.61-5.62-.75-7.26-.98 1.69-2.34 3.98-4.45 7.45-1.92 3.28-4.26 7.17-6.51 10.96 2.2.05 4.59.05 6.28.05 1.78 0 4.21-.05 6.51-.05ZM175.85 75.56c-.8 2.76-2.58 9.32-4.59 17.47-.98 4.07-2.11 8.52-2.81 11.52 4.31 0 10.26 0 15.17-.14-.28 1.03-.56 2.06-.84 3.14s-.52 2.11-.7 3.14h-22.15c.75-2.95 2.62-10.07 4.5-17.56 2.15-8.57 3.61-14.24 4.26-17.56h7.17ZM187.41 110.69c1.36-5.06 2.67-10.12 4.5-17.56 1.87-7.49 3.14-12.55 4.26-17.56h7.12c-1.4 4.96-2.62 10.02-4.5 17.52-1.87 7.45-3.14 12.5-4.26 17.61h-7.12ZM240.71 75.56c-.28 1.03-.47 1.87-.7 2.76-.23.89-.66 2.44-.75 3.18-2.58 1.78-11.43 10.07-18.5 16.77-2.95 2.76-5.15 4.68-7.35 6.32l.05.14c2.11-.05 4.17-.09 6.18-.05 6.42 0 11.19-.14 13.91-.28-.38 1.22-.75 2.76-.98 3.56-.19.84-.37 1.69-.51 2.72h-29.74c.33-.98.52-1.78.7-2.58.28-1.12.66-2.58.75-3.18 2.67-1.78 12.74-10.91 19.44-17.19 2.53-2.34 5.34-4.59 7.49-6.18l-.05-.19c-2.06.14-4.36.14-7.03.14-7.87 0-10.96.05-13.82.09.28-.94.66-2.34.84-3.09.23-.89.51-1.97.7-2.95h29.36ZM275.36 75.56c-.19.66-.51 1.87-.75 2.76-.23.98-.61 2.48-.75 3.14-6.98-.05-14.52-.09-20.05-.09l-2.25 8.9c6.7 0 14.05 0 19.72-.09-.33 1.22-1.12 4.26-1.45 5.57-5.48-.09-12.88-.14-19.58-.14l-2.25 9.04c5.62 0 13.35-.05 20.09-.09-.23.7-.56 2.15-.84 3.18-.19.94-.51 2.25-.66 2.95h-27.02c1.27-4.5 2.62-10.07 4.5-17.56 1.87-7.45 3.37-13.39 4.26-17.56h27.02ZM296.53 75.56c11.52 0 16.39 6.14 13.02 19.67-2.58 10.49-8.43 15.46-19.81 15.46h-15.27c1.36-4.82 2.67-10.07 4.5-17.52 1.87-7.45 3.37-13.3 4.26-17.61h13.3Zm-.89 5.99c-2.34 0-4.68.05-6.84.14-.98 3.51-2.06 7.68-3.04 11.66-1.31 5.34-2.15 8.62-2.72 11.19 2.29.14 4.12.14 6.7.14 7.12 0 11.15-2.25 13.21-10.44 2.34-9.37-.61-12.69-7.31-12.69Z"/></g></g><path fill="#f9f4da" d="M298.26 63.17c1.6 0 2.66-.03 3.17-.09.51-.06.89-.25 1.12-.56.23-.31.58-1.77.78-2.64h-4.37l1.89-7.94h9.64l-1.1 4.8c-.83 3.61-1.64 6.2-2.43 7.78-.79 1.58-1.9 2.67-3.34 3.27-1.44.6-3.65.89-6.63.89l1.27-5.5Z"/></svg>