<?xml version="1.0" encoding="UTF-8"?><svg id="a" xmlns="http://www.w3.org/2000/svg" viewBox="0 0 82 70"><path d="M66.29,69.31H17.99c-8.09,0-14.67-6.58-14.67-14.66V31.01c0-1.89,.37-3.76,1.07-5.49-.74-1.89-1.13-3.91-1.13-5.99C3.27,10.49,10.62,3.14,19.66,3.14h44.96c9.04,0,16.39,7.35,16.39,16.39,0,2.08-.38,4.1-1.13,5.99,.7,1.74,1.07,3.61,1.07,5.49v23.63c0,8.09-6.58,14.66-14.67,14.66Z" fill="#231f20" stroke="#231f20" stroke-linejoin="round"/><path d="M64.01,66.86H15.71c-8.09,0-14.67-6.58-14.67-14.66V28.56c0-1.89,.37-3.76,1.07-5.49-.74-1.89-1.13-3.91-1.13-5.99C.99,8.04,8.34,.69,17.38,.69H62.34c9.04,0,16.39,7.35,16.39,16.39,0,2.08-.38,4.1-1.13,5.99,.7,1.74,1.07,3.61,1.07,5.49v23.63c0,8.09-6.58,14.66-14.67,14.66Z" fill="#f9f4da" stroke="#231f20" stroke-linejoin="round"/><path d="M64.01,60.39h-30.82c-4.52,0-8.19-3.68-8.19-8.19V28.56c0-2.01,.75-3.93,2.04-5.4-1.35-1.71-2.09-3.83-2.09-6.08,0-5.47,4.45-9.92,9.92-9.92h27.47c5.47,0,9.92,4.45,9.92,9.92,0,2.25-.74,4.37-2.09,6.08,1.29,1.47,2.04,3.39,2.04,5.4v23.63c0,4.52-3.68,8.19-8.19,8.19Z" fill="#fc7428" stroke="#231f20" stroke-linejoin="round"/><path d="M45.39,60.39H15.71c-4.52,0-8.19-3.68-8.19-8.19V28.56c0-2.01,.75-3.93,2.04-5.4-1.35-1.71-2.09-3.83-2.09-6.08,0-5.47,4.45-9.92,9.92-9.92h26.34c5.47,0,9.92,4.45,9.92,9.92,0,2.25-.74,4.37-2.09,6.08,1.29,1.47,2.04,3.39,2.04,5.4v23.63c0,4.52-3.68,8.19-8.19,8.19Z" fill="#fc7428" stroke="#231f20" stroke-linejoin="round"/><path d="M51.06,17.08h0c0-4.06-3.29-7.34-7.34-7.34H17.38c-4.06,0-7.34,3.29-7.34,7.34h0c0,2.67,1.44,4.99,3.58,6.28-2.07,.83-3.53,2.84-3.53,5.21v23.63c0,3.1,2.52,5.62,5.62,5.62h29.68c3.1,0,5.62-2.52,5.62-5.62V28.56c0-2.36-1.46-4.38-3.53-5.21,2.14-1.28,3.58-3.6,3.58-6.28Z" fill="#f9f4da" stroke="#231f20" stroke-linejoin="round"/><line x1="51.54" y1="23.16" x2="70.16" y2="23.16" fill="#fc7428" stroke="#231f20" stroke-linejoin="round"/></svg>