<svg xmlns="http://www.w3.org/2000/svg" id="b" viewBox="0 0 284 154"><path fill="#231f20" stroke="#231f20" stroke-linecap="round" stroke-linejoin="round" d="M252.29 6.33c-7.82 0-16.97.78-24.05 5.69-4.49-3.12-10.76-4.69-18.75-4.69h-27.62c-2.89 0-5.44 1.5-6.85 3.86-.08-.05-.16-.09-.24-.14-5.32-3.13-12.5-4.65-21.96-4.65-12.87 0-21 3.14-26.37 7.11-4.38-3.98-10.94-6.18-19.1-6.18H76.01c-2.37 0-4.52 1.01-5.99 2.68-4.05-1.78-9.11-2.68-15.15-2.68H27.25c-3.78 0-6.99 2.57-7.81 6.26-1.93 8.54-3.85 16.51-6.39 26.62-2.79 11.17-4.71 18.72-6.77 26.19l-.41.84v76.43c0 4.41 3.59 8 8 8h22.04c1.02 0 2.03-.19 2.98-.58l.7-.28.54-.35c.44-.27.84-.57 1.21-.92l.5-.46.4-.53c.34-.44.62-.89.85-1.37.14-.28.26-.58.37-.9.15-.43.27-.87.34-1.32.22-1.37.5-2.89.81-4.46h.96c3.35 0 6.35-.18 9.07-.53v3.7c0 4.41 3.59 8 8 8h22.18c1.03 0 2.04-.2 3-.58l.74-.3.53-.36c.43-.27.82-.57 1.19-.91l.02-.02.02-.02c.08-.07.16-.15.23-.23 2.96 2.42 6.44 2.42 7.65 2.42h18.25c2.67 0 5.03-1.31 6.49-3.32 5.26 2.85 12.19 4.25 20.95 4.25 7.33 0 13.59-1.11 18.88-3.35a7.99 7.99 0 0 0 5.73 2.42h22.04c1.02 0 2.03-.19 2.98-.58l.7-.28.54-.35c.44-.27.84-.57 1.21-.92.34-.32.63-.64.9-.99.34-.44.62-.89.85-1.36.14-.28.26-.58.37-.9.15-.43.27-.88.34-1.33.22-1.36.5-2.88.81-4.45h.96c4.58 0 8.5-.32 11.93-.99.77 2.1 1.96 3.99 3.55 5.64 4.97 5.13 13.56 7.52 27.04 7.52 10.3 0 17.26-1.44 22.58-4.65 5.83-3.53 9.51-9.02 11.58-17.29.69-2.78 1.04-5.23 1.07-7.49.02-1.23 0-4.96-.03-9.1a8.027 8.027 0 0 0 3.41-4.59l.43-1.51.07-.24c.19-.67.37-1.32.54-1.93l.02-.06.02-.06c.48-1.93.73-3.79.74-5.54.02-2.5 0-70.81 0-75.53v-.33c0-.64-.08-1.29-.24-1.91-.44-2.76-1.51-5.24-3.19-7.39-4.65-5.94-13.36-8.71-27.41-8.71h0Z"/><path fill="#f0f4da" stroke="#231f20" stroke-linecap="round" stroke-linejoin="round" d="M247.29 1.33c-7.82 0-16.97.78-24.05 5.69-4.49-3.12-10.76-4.69-18.75-4.69h-27.62c-2.89 0-5.44 1.5-6.85 3.86-.08-.05-.16-.09-.24-.14-5.32-3.13-12.5-4.65-21.96-4.65-12.87 0-21 3.14-26.37 7.11-4.38-3.98-10.94-6.18-19.1-6.18H71.01c-2.37 0-4.52 1.01-5.99 2.68-4.05-1.78-9.11-2.68-15.15-2.68H22.25c-3.78 0-6.99 2.57-7.81 6.26-1.93 8.54-3.85 16.51-6.39 26.62C5.26 46.38 3.34 53.93 1.28 61.4l-.41.84v76.43c0 4.41 3.59 8 8 8H30.9c1.02 0 2.03-.19 2.98-.58l.7-.28.54-.35c.44-.27.84-.57 1.21-.92l.5-.46.4-.53c.34-.44.62-.89.85-1.37.14-.28.26-.58.37-.9.15-.43.27-.87.34-1.32.22-1.37.5-2.89.81-4.46h.96c3.35 0 6.35-.18 9.07-.53v3.7c0 4.41 3.59 8 8 8h22.18c1.03 0 2.04-.2 3-.58l.74-.3.53-.36c.43-.27.82-.57 1.19-.91l.02-.02.02-.02c.08-.07.16-.15.23-.23 2.96 2.42 6.44 2.42 7.65 2.42h18.25c2.67 0 5.03-1.31 6.49-3.32 5.26 2.85 12.19 4.25 20.95 4.25 7.33 0 13.59-1.11 18.88-3.35a7.99 7.99 0 0 0 5.73 2.42h22.04c1.02 0 2.03-.19 2.98-.58l.7-.28.54-.35c.44-.27.84-.57 1.21-.92.34-.32.63-.64.9-.99.34-.44.62-.89.85-1.36.14-.28.26-.58.37-.9.15-.43.27-.88.34-1.33.22-1.36.5-2.88.81-4.45h.96c4.58 0 8.5-.32 11.93-.99.77 2.1 1.96 3.99 3.55 5.64 4.97 5.13 13.56 7.52 27.04 7.52 10.3 0 17.26-1.44 22.58-4.65 5.83-3.53 9.51-9.02 11.58-17.29.69-2.78 1.04-5.23 1.07-7.49.02-1.23 0-4.96-.03-9.1a8.027 8.027 0 0 0 3.41-4.59l.43-1.51.07-.24c.19-.67.37-1.32.54-1.93l.02-.06.02-.06c.48-1.93.73-3.79.74-5.54.02-2.5 0-70.81 0-75.53v-.33c0-.64-.08-1.29-.24-1.91-.44-2.76-1.51-5.24-3.19-7.39-4.65-5.94-13.36-8.71-27.41-8.71h0Z"/><g stroke="#231f20" stroke-linejoin="round"><path fill="#12b2e2" stroke-linecap="round" d="M270.12 75.39s-15.35.81-24.51.81c-13.55 0-19.06 10.72-22.84 17.73-2.1-6.61-11.15-19.59-20.91-19.59l-25 10.66a980.4 980.4 0 0 1-3.95 16.79c-.12-12.6-8.38-28.67-25.19-28.67-13.46 0-22.57 14.33-28.19 24.32-.21-8.27-12.8-24.32-23.5-24.32L70.99 85c-.76 3.42-1.55 6.85-2.44 10.59-1.52-7.87-12.17-21.02-22.7-21.02L22.23 85c-1.72 7.58-3.58 15.45-6.44 26.83-1.63 6.52-6.94 8.2-6.94 8.2v18.63H30.9c.5-3.15 1.29-6.94 2.22-11.23 2.65.07 5.37.07 7.44.07 7.62 0 13.06-.96 17.07-3.15v14.32h22.18c.57-4.15 1.79-10.16 3.36-16.96 1.36-.07 1.93-.07 3.36-.07 1.57 0 2.55.33 3.09 1.38v11.44h0c-.03 3.32.8 4.21 3.57 4.21h18.25v-18.69l.53-6.38c.62-.36 1.21-.75 1.75-1.2v6.46h.03c-.77 14.02 6.53 20.73 25.14 20.73 11.2 0 19.1-2.73 24.61-9.17v8.24h22.04c.5-3.15 1.29-6.94 2.22-11.23 2.65.07 5.37.07 7.44.07 8.84 0 14.75-1.29 18.88-4.31v4.82h0c-.25 7.51 6.22 11.65 23.64 11.65s23.61-4.72 26.4-15.88c.52-2.1.81-3.98.83-5.65.03-2.12-.05-12.57-.08-16.02 1.43.08 2.73.17 3.76.28.36-1.29.71-2.5 1-3.58.32-1.3.5-2.53.51-3.68.03-3.19 0-19.74 0-19.74Zm-19.9 30.15c-8.23-1.65-8.8-3.29-8.08-6.08.5-1.93 1.93-2.86 5.15-2.86 4.15 0 4.87 1.5 4.22 4.01-.14.36-.21.86-.43 1.43 1.43-.14 3.65-.14 6.08-.14 1.93 0 4.09.05 6.12.14-2.66 1.63-8.24 4.53-13.06 3.51Z"/><path fill="#f088a0" stroke-linecap="round" d="M270.12 56.71s-15.35.81-24.51.81c-13.55 0-19.06 10.72-22.84 17.73-2.1-6.61-11.15-19.59-20.91-19.59l-25 10.66a980.4 980.4 0 0 1-3.95 16.79c-.12-12.6-8.38-28.67-25.19-28.67-13.46 0-22.57 14.33-28.19 24.32-.21-8.27-12.8-24.32-23.5-24.32L70.99 66.32c-.76 3.42-1.55 6.85-2.44 10.59-1.52-7.87-12.17-21.02-22.7-21.02L22.23 66.32c-1.72 7.58-3.58 15.45-6.44 26.83-1.63 6.52-6.94 8.2-6.94 8.2v18.63H30.9c.5-3.15 1.29-6.94 2.22-11.23 2.65.07 5.37.07 7.44.07 7.62 0 13.06-.96 17.07-3.15v14.32h22.18c.57-4.15 1.79-10.16 3.36-16.96 1.36-.07 1.93-.07 3.36-.07 1.57 0 2.55.33 3.09 1.38v11.44h0c-.03 3.32.8 4.21 3.57 4.21h18.25c0-2.58.43-7.44.5-10.95.07-1.02.08-1.93.03-2.77h0V94.92c.62-.36 1.21-.75 1.75-1.2v6.46h.03c-.77 14.02 6.53 20.73 25.14 20.73 11.2 0 19.1-2.73 24.61-9.17v8.24h22.04c.5-3.15 1.29-6.94 2.22-11.23 2.65.07 5.37.07 7.44.07 8.84 0 14.75-1.29 18.88-4.31v4.82h0c-.25 7.51 6.22 11.65 23.64 11.65s23.61-4.72 26.4-15.88c.52-2.1.81-3.98.83-5.65.03-2.12-.05-12.57-.08-16.02 1.43.08 2.73.17 3.76.28.36-1.29.71-2.5 1-3.58.32-1.3.5-2.53.51-3.68.03-3.19 0-19.74 0-19.74Zm-19.9 30.15c-8.23-1.65-8.8-3.29-8.08-6.08.5-1.93 1.93-2.86 5.15-2.86 4.15 0 4.87 1.5 4.22 4.01-.14.36-.21.86-.43 1.43 1.43-.14 3.65-.14 6.08-.14 1.93 0 4.09.05 6.12.14-2.66 1.63-8.24 4.53-13.06 3.51Z"/><path fill="#ea203d" d="M270.12 38.08s-15.35.81-24.51.81c-13.55 0-19.06 10.72-22.84 17.73-2.1-6.61-11.15-19.59-20.91-19.59l-25 10.66a980.4 980.4 0 0 1-3.95 16.79c-.12-12.6-8.38-28.67-25.19-28.67-13.46 0-22.57 14.33-28.19 24.32-.21-8.27-12.8-24.32-23.5-24.32L70.99 47.69c-.76 3.42-1.55 6.85-2.44 10.59-1.52-7.87-12.17-21.02-22.7-21.02L22.23 47.69c-1.72 7.58-3.58 15.45-6.44 26.83-1.63 6.52-6.94 8.2-6.94 8.2v18.63H30.9c.5-3.15 1.29-6.94 2.22-11.23 2.65.07 5.37.07 7.44.07 7.62 0 13.06-.96 17.07-3.15v14.32h22.18c.57-4.15 1.79-10.16 3.36-16.96 1.36-.07 1.93-.07 3.36-.07 1.57 0 2.55.33 3.09 1.38v11.44c-.03 3.32.8 4.21 3.57 4.21h18.25V82.63l.53-6.34c.62-.36 1.21-.75 1.75-1.2v6.46h.03c-.77 14.02 6.53 20.73 25.14 20.73 11.2 0 19.1-2.73 24.61-9.17v8.24h22.04c.5-3.15 1.29-6.94 2.22-11.23 2.65.07 5.37.07 7.44.07 8.84 0 14.75-1.29 18.88-4.31v4.82c-.25 7.51 6.22 11.65 23.64 11.65s23.61-4.72 26.4-15.88c.52-2.1.81-3.98.83-5.65.03-2.12-.05-12.57-.08-16.02 1.43.08 2.73.17 3.76.28.36-1.29.71-2.5 1-3.58.32-1.3.5-2.53.51-3.68.03-3.19 0-19.74 0-19.74Zm-19.9 30.15c-8.23-1.65-8.8-3.29-8.08-6.08.5-1.93 1.93-2.86 5.15-2.86 4.15 0 4.87 1.5 4.22 4.01-.14.36-.21.86-.43 1.43 1.43-.14 3.65-.14 6.08-.14 1.93 0 4.09.05 6.12.14-2.66 1.63-8.24 4.53-13.06 3.51Z"/><path fill="#f9b728" stroke-linecap="round" d="M270.12 19.35s-15.35.81-24.51.81c-13.55 0-19.06 10.72-22.84 17.73-2.1-6.61-11.15-19.59-20.91-19.59l-25 10.66a980.4 980.4 0 0 1-3.95 16.79c-.12-12.6-8.38-28.67-25.19-28.67-13.46 0-22.57 14.33-28.19 24.32-.21-8.27-12.8-24.32-23.5-24.32L70.99 28.96c-.76 3.42-1.55 6.85-2.44 10.59-1.52-7.87-12.17-21.02-22.7-21.02L22.23 28.96c-1.72 7.58-3.58 15.45-6.44 26.83-1.63 6.52-6.94 8.2-6.94 8.2v18.63H30.9c.5-3.15 1.29-6.94 2.22-11.23 2.65.07 5.37.07 7.44.07 7.62 0 13.06-.96 17.07-3.15v14.32h22.18c.57-4.15 1.79-10.16 3.36-16.96 1.36-.07 1.93-.07 3.36-.07 1.57 0 2.55.33 3.09 1.38v11.44h0c-.03 3.32.8 4.21 3.57 4.21h18.25V64l.53-6.44c.62-.36 1.21-.75 1.75-1.2v6.46h.03c-.77 14.02 6.53 20.73 25.14 20.73 11.2 0 19.1-2.73 24.61-9.17v8.24h22.04c.5-3.15 1.29-6.94 2.22-11.23 2.65.07 5.37.07 7.44.07 8.84 0 14.75-1.29 18.88-4.31v4.82h0c-.25 7.51 6.22 11.65 23.64 11.65s23.61-4.72 26.4-15.88c.52-2.1.81-3.98.83-5.65.03-2.12-.05-12.57-.08-16.02 1.43.08 2.73.17 3.76.28.36-1.29.71-2.5 1-3.58.32-1.3.5-2.53.51-3.68.03-3.19 0-19.74 0-19.74Zm-19.9 30.15c-8.23-1.65-8.8-3.29-8.08-6.08.5-1.93 1.93-2.86 5.15-2.86 4.15 0 4.87 1.5 4.22 4.01-.14.36-.21.86-.43 1.43 1.43-.14 3.65-.14 6.08-.14 1.93 0 4.09.05 6.12.14-2.66 1.63-8.24 4.53-13.06 3.51Z"/><path fill="#f0f4da" stroke-linecap="round" d="M247.29 9.33c-13.55 0-20.74 2.93-24.51 9.94-2.1-6.61-8.53-8.94-18.29-8.94h-27.62a980.4 980.4 0 0 1-3.95 16.79c-.12-12.6-8.3-17.72-25.1-17.72-13.46 0-22.65 3.38-28.27 13.37-.21-8.27-6.5-12.44-17.2-12.44H71.01c-.76 3.42-1.55 6.85-2.44 10.59-1.52-7.87-8.18-10.59-18.71-10.59H22.25c-1.72 7.58-3.58 15.45-6.44 26.83-2.86 11.45-4.79 19.03-6.94 26.83H30.9c.5-3.15 1.29-6.94 2.22-11.23 2.65.07 5.37.07 7.44.07 11.21 0 17.71-2.07 21.85-7.11-1.79 7.05-3.27 12.64-4.78 18.27h22.18c.57-4.15 1.79-10.16 3.36-16.96 1.36-.07 1.93-.07 3.36-.07 3.79 0 4.15 1.86 3.15 11.3-.29 4.58.36 5.72 3.51 5.72h18.25c0-2.58.43-7.44.5-10.95.5-7.51-2-9.95-9.37-10.95l.14-.5c5.5-.63 9.34-2.04 12.02-4.81-3.84 19.08 2.52 28.14 24.14 28.14 13.9 0 22.73-4.2 28.2-14.49-1.26 4.92-2.39 9.21-3.59 13.56h22.04c.5-3.15 1.29-6.94 2.22-11.23 2.65.07 5.37.07 7.44.07 9.65 0 15.81-1.53 19.98-5.18-.21.77-.41 1.51-.57 2.17-2.43 9.73 3.15 15.17 23.11 15.17 17.89 0 23.61-4.72 26.4-15.88 2.65-10.66-.79-15.45-13.88-18.25-8.23-1.65-8.8-3.29-8.08-6.08.5-1.93 1.93-2.86 5.15-2.86 4.15 0 4.87 1.5 4.22 4.01-.14.36-.21.86-.43 1.43 1.43-.14 3.65-.14 6.08-.14 3.86 0 8.66.21 11.45.5.36-1.29.71-2.5 1-3.58 2.29-9.23-2.79-14.81-22.32-14.81ZM47.72 32.16c-1.43 5.94-3.36 7.58-8.3 7.58-1.29 0-2.36 0-3.29-.07 1.14-4.94 2.5-10.3 3.86-15.88 1.43-.07 2.93-.07 3.72-.07 4.37 0 5.72 1.86 4.01 8.44Zm49.48-2c-1.07 4.01-2.86 5.65-6.15 5.65-2.07 0-3.86 0-5.29-.07 1-4.08 2.07-8.37 3.08-12.59 1.72-.07 3.51-.14 4.36-.14 3.79 0 5.37 1.57 4.01 7.15Zm51.84 6.44c-2.22 8.94-4.72 11.66-8.51 11.66-4.29 0-5.51-2.93-3.15-12.66 2.15-8.59 4.72-11.09 8.51-11.09 4.29 0 5.44 3.15 3.15 12.09Zm53.31-4.44c-1.43 5.94-3.36 7.58-8.3 7.58-1.29 0-2.36 0-3.29-.07 1.14-4.94 2.5-10.3 3.86-15.88 1.43-.07 2.93-.07 3.72-.07 4.37 0 5.72 1.86 4.01 8.44Zm40.16 17.17c-.57 2.29-1.86 3-5.15 3-4.15 0-5.01-1.57-4.29-4.51.14-.43.29-.93.43-1.43-1.36.07-3.36.14-5.51.14-3.95 0-8.07-.28-11.2-.5 2.05-2.38 3.53-5.45 4.71-9.31 2.11 2.96 6.31 5.09 13.5 6.38 7.37 1.29 8.3 3.08 7.51 6.22Z"/><path fill="#12b2e2" stroke-linecap="round" d="M30.9 64v74.66M57.63 64v74.66M79.81 64v74.66M89.63 60.25v66.33M113.91 49.71l-.17 69.15M163.49 64v66.42M185.53 64v74.66M214.08 54.43v69.85"/></g></svg>