<?xml version="1.0" encoding="UTF-8"?><svg id="a" xmlns="http://www.w3.org/2000/svg" viewBox="0 0 74 58"><path d="M66.41,57.44H9.87c-3.57,0-6.47-2.9-6.47-6.47V24.42c0-2.49,1.39-4.7,3.58-5.79,.17-.09,.35-.17,.54-.24L45.8,3.44c2.26-.84,4.71-.43,6.48,1.05l18.23,14.93c.25,.21,.49,.43,.7,.67,1.07,1.18,1.67,2.72,1.67,4.34v26.55c0,3.57-2.9,6.47-6.47,6.47ZM11.88,29.55s0,0,0,0c0,0,0,0,0,0Z" fill="#231f20" stroke="#231f20" stroke-linejoin="round"/><path d="M64.13,54.99H7.59c-3.57,0-6.47-2.9-6.47-6.47V21.97c0-2.49,1.39-4.7,3.58-5.79,.17-.09,.35-.17,.54-.24L43.51,.99c2.26-.84,4.71-.43,6.48,1.05l18.23,14.93c.25,.21,.49,.43,.7,.67,1.07,1.18,1.67,2.72,1.67,4.34v26.55c0,3.57-2.9,6.47-6.47,6.47ZM9.59,27.1s0,0,0,0c0,0,0,0,0,0Z" fill="#f9f4da" stroke="#231f20" stroke-linejoin="round"/><polyline points="7.59 21.97 45.87 7.02 64.13 21.97" fill="#fcba28" stroke="#231f20" stroke-linejoin="round"/><rect x="7.59" y="21.97" width="56.54" height="26.55" fill="#fcba28" stroke="#231f20" stroke-linejoin="round"/></svg>