<svg xmlns="http://www.w3.org/2000/svg" id="b" viewBox="0 0 252 246"><path fill="#231f20" stroke="#231f20" stroke-linecap="round" stroke-linejoin="round" d="M242.66 6.09c-.79 0-1.57.12-2.32.34h-.04l-.04.03-29.18 9.19c-3.35 1.05-5.6 4.12-5.6 7.63s2.24 6.57 5.58 7.63l1.17.37-6.19 6.19c-3.58-2.57-7.32-4.66-11.19-6.25-4.74-1.95-9.84-2.93-15.16-2.93-21.33 0-41.68 15.76-51.56 24.77-9.89-9-30.24-24.76-51.56-24.76-5.32 0-10.42.99-15.16 2.93-17.44 7.15-31.87 24.41-37.65 45.05a75.219 75.219 0 0 0-2.73 17.07 217.61 217.61 0 0 0-10.08 4.39 7.96 7.96 0 0 0-4.39 5.39 7.933 7.933 0 0 0 1.49 6.78c.17.22 18.64 24.26 21.06 47.7.03.53.08 1.03.15 1.53v.07l.04.2c0 .07.02.14.03.21.43 2.64 1.93 5 4.24 6.61 2.63 1.84 6.32 2.7 11.59 2.7 1.93 0 3.96-.11 5.92-.29-9.7 7.01-16.57 17.12-20.21 29.89-1.15 4.01.92 8.16 4.82 9.66.33.13 8.81 3.37 20.5 3.37 2.98 0 5.95-.22 8.81-.64 3.31-.49 6.53-1.26 9.63-2.31.53 12.07 5.26 23.48 13.99 33.53a8.003 8.003 0 0 0 6.04 2.75c1.69 0 3.3-.52 4.67-1.51.48-.35 11.62-8.51 18.31-23.08.6-1.31 1.15-2.64 1.65-3.98.48 1 .89 2.03 1.23 3.09a7.994 7.994 0 0 0 7.61 5.52h.11a7.969 7.969 0 0 0 7.56-5.71c3.3-11.11 14.48-18.29 29.96-28.23 3-1.93 6.25-4.02 9.59-6.24 9.96 13.6 22.1 20.74 35.44 20.74 1.13 0 2.28-.05 3.41-.16a8.02 8.02 0 0 0 6.14-3.86c1.3-2.18 1.49-4.88.5-7.23-.03-.07-2.32-5.56-4.42-13.5.84.06 1.7.09 2.59.09 7.95 0 15.42-2.53 22.22-7.52a8.002 8.002 0 0 0 3.26-6.5 8.054 8.054 0 0 0-3.37-6.48s-1.05-.77-2.71-2.2c2.67-1.74 4.14-4.98 3.52-8.22-1.8-9.64-4.89-39.05 3.46-50.5 2.25-1.61 3.63-4.06 3.75-6.82.24-5.5-4.41-9.96-16.38-15.44-.08-.3-.16-.6-.25-.9-2.43-8.65-6.39-16.81-11.59-23.92l7.57-7.57 1.23 2.7a8.027 8.027 0 0 0 8.27 4.63 7.959 7.959 0 0 0 6.87-6.47l5.66-30.06c.51-2.75-.46-5.6-2.54-7.45a7.97 7.97 0 0 0-5.32-2.03h0Z"/><path fill="#f0f4da" stroke="#231f20" stroke-linecap="round" stroke-linejoin="round" d="M237.66 1.09c-.79 0-1.57.12-2.32.34h-.04l-.04.03-29.18 9.19c-3.35 1.05-5.6 4.12-5.6 7.63s2.24 6.57 5.58 7.63l1.17.37-6.19 6.19c-3.58-2.57-7.32-4.66-11.19-6.25-4.74-1.95-9.84-2.93-15.16-2.93-21.33 0-41.68 15.76-51.56 24.77-9.89-9-30.24-24.76-51.56-24.76-5.32 0-10.42.99-15.16 2.93-17.44 7.15-31.87 24.41-37.65 45.05a75.219 75.219 0 0 0-2.73 17.07 217.61 217.61 0 0 0-10.08 4.39 7.96 7.96 0 0 0-4.39 5.39 7.933 7.933 0 0 0 1.49 6.78c.17.22 18.64 24.26 21.06 47.7.03.53.08 1.03.15 1.53v.07l.04.2c0 .07.02.14.03.21.43 2.64 1.93 5 4.24 6.61 2.63 1.84 6.32 2.7 11.59 2.7 1.93 0 3.96-.11 5.92-.29-9.7 7.01-16.57 17.12-20.21 29.89-1.15 4.01.92 8.16 4.82 9.66.33.13 8.81 3.37 20.5 3.37 2.98 0 5.95-.22 8.81-.64 3.31-.49 6.53-1.26 9.63-2.31.53 12.07 5.26 23.48 13.99 33.53a8.003 8.003 0 0 0 6.04 2.75c1.69 0 3.3-.52 4.67-1.51.48-.35 11.62-8.51 18.31-23.08.6-1.31 1.15-2.64 1.65-3.98.48 1 .89 2.03 1.23 3.09a7.994 7.994 0 0 0 7.61 5.52h.11a7.969 7.969 0 0 0 7.56-5.71c3.3-11.11 14.48-18.29 29.96-28.23 3-1.93 6.25-4.02 9.59-6.24 9.96 13.6 22.1 20.74 35.44 20.74 1.13 0 2.28-.05 3.41-.16a8.02 8.02 0 0 0 6.14-3.86c1.3-2.18 1.49-4.88.5-7.23-.03-.07-2.32-5.56-4.42-13.5.84.06 1.7.09 2.59.09 7.95 0 15.42-2.53 22.22-7.52a8.002 8.002 0 0 0 3.26-6.5 8.054 8.054 0 0 0-3.37-6.48s-1.05-.77-2.71-2.2c2.67-1.74 4.14-4.98 3.52-8.22-1.8-9.64-4.89-39.05 3.46-50.5 2.25-1.61 3.63-4.06 3.75-6.82.24-5.5-4.41-9.96-16.38-15.44-.08-.3-.16-.6-.25-.9-2.43-8.65-6.39-16.81-11.59-23.92l7.57-7.57 1.23 2.7a8.027 8.027 0 0 0 8.27 4.63 7.959 7.959 0 0 0 6.87-6.47l5.66-30.06c.51-2.75-.46-5.6-2.54-7.45a7.97 7.97 0 0 0-5.32-2.03h0Z"/><g><g stroke="#231f20" stroke-linecap="round" stroke-linejoin="round"><path fill="#0ba65b" d="M100.24 161.74s-53.56-12-66.68 33.99c0 0 45.16 17.42 66.68-33.99ZM98.05 162.93l-53.6 27.27"/><path fill="none" d="m46.05 180.44 9.45 4.15-.51 9.79M54.61 176.02l9.45 4.15-.51 9.79M64.06 171.43l9.44 4.14-.5 9.79"/></g><g stroke="#231f20" stroke-linecap="round" stroke-linejoin="round"><path fill="#0ba65b" d="M97.61 157.49s-39.3 38.32-7.94 74.42c0 0 39.25-28.32 7.94-74.42ZM97.41 159.97l-6.43 59.8"/><path fill="none" d="m83.68 213.1 8.63-5.65 7.93 5.77M84.65 203.51l8.63-5.65 7.93 5.77M85.96 193.09l8.63-5.65 7.93 5.77"/></g><path fill="#f0f4da" stroke="#231f20" stroke-linecap="round" stroke-linejoin="round" d="M165.25 152.82s13.46 42.27 43.23 39.57c0 0-5.24-12.32-7.51-27.65 0 0 14.76 8.72 30.53-2.86 0 0-25.26-17.92-28.53-45.59M55.87 154.21s-22.79 4.43-23.64-.9c-1.98-12.38 16.23-15.6 16.23-15.6l9.45 8.02-2.04 8.48ZM220.89 77.89s19.97 8.47 14.21 10.35c-5.77 1.88-21.67 8.66-21.67 8.66l-1.67-15.99 9.14-3.02Z"/><path fill="#ea203d" stroke="#231f20" stroke-linejoin="round" d="M186.82 33.63c-29.22-11.99-63.69 25.6-63.69 25.6s-34.47-37.59-63.69-25.6c-29.22 11.99-51.7 59.19-20.23 101.9 31.47 42.71 74.79 48.43 83.92 76.43 8.29-27.88 52.45-33.72 83.92-76.43 31.47-42.71 8.99-89.91-20.23-101.9Z"/><path fill="#f0f4da" stroke="#231f20" stroke-linecap="round" stroke-linejoin="round" d="M9.35 99.98c13.32-6.24 31.63-12.9 55.95-17.99 27.2-5.7 64.34-1.05 103.65 3.88 19.25 2.41 42.54 8.23 66.14 2.38-14.03 16.14-6.03 58.2-6.03 58.2-21.66 7.33-41.95.15-67.31-3.03-31.33-3.93-66.84-8.38-84.55-4.67-21.24 4.45-44.98 14.56-44.98 14.56-2.06-26.76-22.87-53.33-22.87-53.33Z"/><g><path fill="none" stroke="#231f20" stroke-miterlimit="10" d="m61.27 126.26-5.4-19.95M65.21 125.21l-5.4-19.95"/><path fill="none" stroke="#231f20" stroke-linecap="round" stroke-miterlimit="10" d="m54.36 106.79 7.09-1.8M56.79 115.98l7.09-1.8M43.08 109.79l3.98-1.01M59.81 126.56l7.09-1.8M45.07 109.35s2.17 9.3 3.26 12.77c2.5 7.98 11.26 7.25 11.26-2.06M70.51 117.73s1.85 6.65 8.42 5.61c4.79-.76 7.95-3.52 7.29-8.34-.66-4.82-7.56-4.54-10.7-5.25-5.01-1.13-5.07-7.68 1.88-7.25"/><path fill="none" stroke="#231f20" stroke-linecap="round" stroke-miterlimit="10" d="M81.16 104.99c-1.23-1.57-3.39-3.16-6.96-2.59-4.79.76-6.85 3.08-6.01 7.34.84 4.26 7.79 5.12 10.92 5.85 5.93 1.38 4.87 6.15 1.09 7.48"/><path fill="#231f20" d="M80.21 123.07c3.78-1.32 4.84-6.09-1.09-7.48-.52-.12-1.16-.25-1.85-.39l1.37-4.99c3.25.45 7.1 1.24 7.58 4.78.66 4.82-2.5 7.58-7.29 8.34"/><path fill="none" stroke="#231f20" stroke-linecap="round" stroke-miterlimit="10" d="m69 117.82 3.4-.28M104.99 116.49l3.42.1M79.63 105.66l3.21-1.18M87.66 111.88h20.27s-.23-10.4-8.56-10.4c-6.99 0-10.12 4.52-10.12 10.79s5.59 10.88 10.07 10.79c6.29-.13 7.43-6.42 7.43-6.42"/><path fill="none" stroke="#231f20" stroke-linecap="round" stroke-miterlimit="10" d="M98.81 101.48c-3.58 1.23-5.19 5.38-5.19 11.2s2.11 9.35 5.69 10.38"/><path fill="#231f20" d="M99.32 123.05c-3.58-1.02-5.69-4.56-5.69-10.38l.05-.79-4.43.04c0 6.78 5.59 11.22 10.07 11.13"/><path fill="none" stroke="#231f20" stroke-linecap="round" stroke-miterlimit="10" d="M142.93 99.53s-2.12 16.24-2.59 20.53c-.47 4.29 1.57 6.04 3.89 6.31 2.32.27 5.05-1.19 5.05-1.19"/><path fill="none" stroke="#231f20" stroke-linecap="round" stroke-miterlimit="10" d="M147.53 100.08s-1.99 17.43-2.3 20.42c-.31 2.99-.78 5.99 2.39 5.37"/><path fill="#231f20" d="M149.29 125.18s-2.73 1.46-5.05 1.19-4.36-2.01-3.89-6.31c.47-4.29 1.12-7.88 1.12-7.88l4.6.56s-.53 4.78-.84 7.76c-.31 2.99-.78 5.99 2.39 5.37"/><path fill="none" stroke="#231f20" stroke-linecap="round" stroke-miterlimit="10" d="m141.61 99.26 7.27.83M140.13 112.04l7.27.84M146.68 107.51l4.34.51M138.61 106.57l3.36.39M138.69 105.13l-.39 3.24M151.29 106.4l-.39 3.24M148.85 124.12l1.04 2.11M180.82 104.38s-2.12 16.24-2.59 20.53c-.47 4.29 1.57 6.04 3.89 6.31 2.32.27 5.05-1.19 5.05-1.19"/><path fill="none" stroke="#231f20" stroke-linecap="round" stroke-miterlimit="10" d="M185.42 104.94s-1.99 17.43-2.3 20.42c-.31 2.99-.78 5.99 2.39 5.37"/><path fill="#231f20" d="M187.18 130.03s-2.73 1.46-5.05 1.19-4.36-2.01-3.89-6.31c.47-4.29 1.12-7.88 1.12-7.88l4.6.56s-.53 4.78-.84 7.76c-.31 2.99-.78 5.99 2.39 5.37"/><path fill="none" stroke="#231f20" stroke-linecap="round" stroke-miterlimit="10" d="m179.51 104.11 7.26.84M178.02 116.9l7.27.83M184.58 112.36l4.33.51M176.5 111.42l3.36.39M176.58 109.98l-.38 3.24M189.18 111.25l-.38 3.24M186.74 128.97l1.04 2.11M156.53 113.03s1.23-6.48 8.41-5.52c7.18.96 7.8 4.52 7.25 9.45s-1.58 12.64-1.58 12.64"/><path fill="none" stroke="#231f20" stroke-linecap="round" stroke-miterlimit="10" d="M161.53 107.65c.7-.14 6.91.4 6.23 6.08-.68 5.68-1.66 15.16-1.66 15.16M164.44 128.8l7.52 1M155.32 112.96l2.76.35"/><path fill="none" stroke="#231f20" stroke-linecap="round" stroke-miterlimit="10" d="M173.5 118.22s-9.36-1.15-12.25-1.27-8.63 1.09-7.69 6.17 9.44 7.28 13.04 1.01M78.86 109.35l-1.8 6.63M114.24 115.53s1.01 9.18 9.91 9.23c6.49.04 11.27-2.92 11.44-9.44.17-6.52-9.01-7.64-13-9.26-6.37-2.58-5.03-11.25 4.06-9.17"/><path fill="none" stroke="#231f20" stroke-linecap="round" stroke-miterlimit="10" d="M131.08 101.01c-1.29-2.34-3.8-4.91-8.64-4.93-6.49-.04-9.72 2.59-9.53 8.4s9.18 8.46 13.16 10.1c7.53 3.11 5.1 9.18-.18 10.11"/><path fill="#231f20" d="M125.9 124.69c5.28-.93 7.71-7 .18-10.11-.67-.28-1.47-.58-2.36-.92l2.89-6.3c4.2 1.3 9.11 3.18 8.98 7.96-.17 6.52-4.95 9.48-11.44 9.44"/><path fill="none" stroke="#231f20" stroke-linecap="round" stroke-miterlimit="10" d="m112.23 115.32 4.56.38M128.92 101.56l4.49-.87M127.09 106.27l-3.81 8.36"/><path fill="#231f20" d="m58.34 115.45 2.93 10.81 3.94-1.05-2.88-10.64-3.99.88z"/><path fill="none" stroke="#231f20" stroke-linecap="round" stroke-miterlimit="10" d="m206.32 127.25 3.39.4M189.47 121.14l20.19 1.78s.69-10.38-7.62-11.12c-6.97-.61-10.48 3.62-11.03 9.86-.55 6.24 4.62 11.33 9.08 11.63 6.28.43 7.96-5.74 7.96-5.74"/><path fill="none" stroke="#231f20" stroke-linecap="round" stroke-miterlimit="10" d="M201.49 111.76c-3.67.91-5.64 4.9-6.16 10.7-.51 5.79 1.28 9.5 4.76 10.84"/><path fill="#231f20" d="M200.09 133.29c-3.48-1.33-5.27-5.04-4.76-10.84l.12-.79-4.41-.35c-.6 6.75 4.59 11.67 9.05 11.97M167.33 117.5l-1.23 11.39 4.51.71 1.53-11.55-4.81-.55z"/></g><path fill="none" stroke="#f0f4da" stroke-linecap="round" stroke-miterlimit="10" d="M65.21 39.56s-23.58 6.89-28.54 34.47"/><path fill="none" stroke="#f0f4da" stroke-linecap="round" stroke-miterlimit="10" d="M65.72 46.19s-18.59 5.43-22.49 27.17M65.05 53.49S53.39 56.9 50.94 70.53"/><path fill="#f9b728" stroke="#231f20" stroke-linecap="round" stroke-linejoin="round" d="m186.28 58.55 39.3-39.3 3.56 3.56-39.3 39.3"/><path fill="none" stroke="#231f20" stroke-linecap="round" stroke-miterlimit="10" d="m183.84 56.2 9.01 8.84"/><path fill="#f97428" stroke="#231f20" stroke-linejoin="round" d="m237.66 9.09-29.19 9.2 16.4 5.21 7.12 15.66 5.67-30.07z"/></g></svg>