<svg xmlns="http://www.w3.org/2000/svg" id="Layer_1" viewBox="0 0 358 86"><path fill="#231f20" stroke="#231f20" stroke-linecap="round" stroke-linejoin="round" d="M354.53 56.12a8.996 8.996 0 0 0 2.29-6.4c-.02-.54-.03-2.78 0-3.37a8.974 8.974 0 0 0-8.95-9.48c-3.76 0-8.5-.02-11.23-.03h-2.18c-3.86 0-7.05.65-9.68 1.73a8.95 8.95 0 0 0-5.24-1.69c-3.76 0-8.5-.02-11.23-.03h-2.18c-5.18 0-9.16 1.16-12.17 3 .21-.5.37-1.03.49-1.58.49-2.31 1.44-6.39 2.38-9.86.02-.07.04-.14.05-.21.99-4.03 1.89-7.52 2.48-9.6.77-2.71.23-5.62-1.46-7.86s-4.35-3.57-7.16-3.57h-42.86c-3.1 0-5.88 1.59-7.49 4.06-5.47-3.34-13.09-4.98-23.08-4.98-11.66 0-20.56 2.43-27.23 7.72a8.965 8.965 0 0 0-8.7-6.79h-36.79c-3.03 0-5.79 1.54-7.43 3.99-.09-.13-.17-.27-.26-.4a8.956 8.956 0 0 0-7.17-3.59H86.01c-3.5 0-6.61 2.03-8.08 5.08-5.52-4.1-12.64-5.08-18.14-5.08H28.5c-4.2 0-7.84 2.92-8.75 7.02-1.67 7.5-3.45 14.94-6.37 26.55-3.12 12.48-5.16 20.18-6.89 26.65a8.993 8.993 0 0 0 1.54 7.78 8.986 8.986 0 0 0 7.12 3.51h22.14c2.19 0 4.22-.79 5.79-2.12 2.04 1.41 4.57 2.12 7.57 2.12h18.22a8.6 8.6 0 0 0 1.91-.21c.61.13 1.24.21 1.88.21h43.72c.7 0 1.39-.09 2.05-.24.66.15 1.34.24 2.03.24h23.07c2.31 0 4.46-.88 6.07-2.37a8.978 8.978 0 0 0 6.07 2.37h23.79c2.4 0 4.71-.96 6.39-2.68.28-.28.53-.59.76-.9 5.29 3.01 12.21 4.5 20.92 4.5 11.46 0 19.29-2 25.38-6.49.75-.56 1.47-1.14 2.16-1.77.26 1.44.86 2.82 1.79 4 1.71 2.16 4.3 3.4 7.03 3.4.19 0 .39 0 .59-.02 2.99-.2 7.9-.2 11.49-.2s8.62 0 11.46.19c.21.01.41.02.62.02 2.5 0 4.8-1.04 6.45-2.76 2.21 1.63 4.92 2.61 7.87 2.61 1.54 0 3.02-.28 4.4-.76 1.28 2.16 3.26 3.9 5.87 5.02 3.12 1.34 7.23 1.92 13.74 1.92 6.07 0 10.35-.74 13.74-2.35.28.14.55.3.84.43 3.12 1.34 7.23 1.92 13.74 1.92s11.12-.86 14.63-2.79c4.74-2.6 7.35-7.04 7.35-12.51 0-3.2-.92-6.49-3.09-9.1.63-1.67.87-3.2.96-4.25Z"/><path fill="#f0f4da" stroke="#231f20" stroke-linecap="round" stroke-linejoin="round" d="M349.53 51.12a8.996 8.996 0 0 0 2.29-6.4c-.02-.54-.03-2.78 0-3.37a8.974 8.974 0 0 0-8.95-9.48c-3.76 0-8.5-.02-11.23-.03h-2.18c-3.86 0-7.05.65-9.68 1.73a8.95 8.95 0 0 0-5.24-1.69c-3.76 0-8.5-.02-11.23-.03h-2.18c-5.18 0-9.16 1.16-12.17 3 .21-.5.37-1.03.49-1.58.49-2.31 1.44-6.39 2.38-9.86.02-.07.04-.14.05-.21.99-4.03 1.89-7.52 2.48-9.6.77-2.71.23-5.62-1.46-7.86s-4.35-3.57-7.16-3.57h-42.86c-3.1 0-5.88 1.59-7.49 4.06-5.47-3.34-13.09-4.98-23.08-4.98-11.66 0-20.56 2.43-27.23 7.72a8.965 8.965 0 0 0-8.7-6.79h-36.79c-3.03 0-5.79 1.54-7.43 3.99-.09-.13-.17-.27-.26-.4a8.956 8.956 0 0 0-7.17-3.59H81.01c-3.5 0-6.61 2.03-8.08 5.08-5.52-4.1-12.64-5.08-18.14-5.08H23.5c-4.2 0-7.84 2.92-8.75 7.02-1.67 7.5-3.45 14.94-6.37 26.55C5.26 48.23 3.22 55.93 1.49 62.4a8.993 8.993 0 0 0 1.54 7.78 8.986 8.986 0 0 0 7.12 3.51h22.14c2.19 0 4.22-.79 5.79-2.12 2.04 1.41 4.57 2.12 7.57 2.12h18.22a8.6 8.6 0 0 0 1.91-.21c.61.13 1.24.21 1.88.21h43.72c.7 0 1.39-.09 2.05-.24.66.15 1.34.24 2.03.24h23.07c2.31 0 4.46-.88 6.07-2.37a8.978 8.978 0 0 0 6.07 2.37h23.79c2.4 0 4.71-.96 6.39-2.68.28-.28.53-.59.76-.9 5.29 3.01 12.21 4.5 20.92 4.5 11.46 0 19.29-2 25.38-6.49.75-.56 1.47-1.14 2.16-1.77.26 1.44.86 2.82 1.79 4 1.71 2.16 4.3 3.4 7.03 3.4.19 0 .39 0 .59-.02 2.99-.2 7.9-.2 11.49-.2s8.62 0 11.46.19c.21.01.41.02.62.02 2.5 0 4.8-1.04 6.45-2.76 2.21 1.63 4.92 2.61 7.87 2.61 1.54 0 3.02-.28 4.4-.76 1.28 2.16 3.26 3.9 5.87 5.02 3.12 1.34 7.23 1.92 13.74 1.92 6.07 0 10.35-.74 13.74-2.35.28.14.55.3.84.43 3.12 1.34 7.23 1.92 13.74 1.92s11.12-.86 14.63-2.79c4.74-2.6 7.35-7.04 7.35-12.51 0-3.2-.92-6.49-3.09-9.1.63-1.67.87-3.2.96-4.25Z"/><g><g fill="#231f20"><path d="M54.79 11.13c12.93 0 19.43 6.07 16.5 18.14-2.14 8.64-6.71 12-16.14 13.07l-.14.5c7.36 1 9.86 3.43 9.36 10.93-.07 3.5-.5 8.36-.5 10.93H45.65c-3.14 0-3.79-1.14-3.5-5.71 1-9.43.64-11.29-3.14-11.29-1.43 0-2 0-3.36.07-1.57 6.79-2.79 12.79-3.36 16.93H10.14c2.07-7.71 4.07-15.36 6.93-26.79 2.86-11.36 4.71-19.07 6.43-26.79h31.29Zm-5.14 19.79c1.36-5.57-.21-7.14-4-7.14-.86 0-2.64.07-4.36.14-1 4.21-2.07 8.5-3.07 12.57 1.43.07 3.21.07 5.29.07 3.29 0 5.07-1.64 6.14-5.64ZM124.72 11.13c-.5 1.71-1.29 4.71-1.93 7.14-.64 2.57-1.43 5.79-1.79 7.57-7.43-.14-15.36-.14-21.57-.14l-1.29 5.29c7.29 0 14.93-.07 21.07-.29-.79 3-2.43 9.36-3.21 12.72-5.93-.21-13.64-.36-20.86-.36l-1.36 5.5c6.36 0 14.79-.07 21.64-.14-.64 2.07-1.5 5.43-2.14 8.29-.71 2.71-1.5 5.86-1.93 8H67.63c2.07-7.5 4.14-15.36 6.93-26.79 2.86-11.36 4.79-19.43 6.43-26.79h43.72ZM176.38 11.13c-.43 7.14-2.14 40-1.93 53.58h-23.79c.5-2.07 1.14-5.5 1.79-9.64h-10.79c-1.43 4.07-2.57 7.5-3.14 9.64h-23.07c6.71-13.5 21.36-46.57 24.14-53.58h36.79Zm-22.29 31.79c.57-4.86 1.07-9.93 1.43-14.43.07-2.93.36-6.43.64-9.14h-.36c-1.14 2.71-2.5 6.14-3.93 9.21-1.93 4.5-3.93 9.5-5.71 14.36h7.93ZM213.52 31.99c1.29-5.14.07-6.86-3.29-6.86-3.57.07-5.79 2-8.14 11.64-2.36 9.36-.86 12.07 2.93 12.07 3.14 0 5.07-2.64 6.07-6.64.21-.79.36-1.71.57-2.64 3.43.07 7.07.07 10.64.07s7.14 0 10.64-.07c-.21 1.57-.57 3.07-.93 4.43-4.07 16.22-11.29 21.64-29.5 21.64-21.22 0-27.64-9.79-22.5-30.14C184.65 16.7 193.8 10.2 212.3 10.2c20.72 0 26.07 7.57 23.36 18.86a80.73 80.73 0 0 1-1.57 5.14c-3.5-.14-7.07-.14-10.57-.14s-7.14 0-10.57.14c.21-.79.43-1.57.57-2.21ZM285.74 11.13c-.71 2.5-1.71 6.43-2.57 9.93-.93 3.43-1.93 7.64-2.5 10.36-3.29-.07-6.5-.14-9.64-.14-3.79 15.5-7.29 30-8 33.5-3.14-.21-8.36-.21-12.07-.21s-8.79 0-12.07.21c1.07-3.5 4.79-18 8.64-33.5-3.14.07-6.43.07-9.72.14.79-2.71 1.79-6.93 2.71-10.36.86-3.5 1.86-7.43 2.36-9.93h42.86Z"/></g><g fill="#f088a0"><path d="M294.8 55.69c-3.2-1.23-4.59-3.56-4.59-6.72 0-5.22 3.76-8.15 10.92-8.15.87 0 8.11.04 13.41.04-.04.63-.04 3.4 0 4.27-1.46 0-4.07-.16-6.53-.28v.24c3.09.87 4.27 2.33 4.27 5.02 0 3.88-3.2 6.53-11.16 6.53-1.66 0-3.08-.12-4.31-.4-.67.75-.99 1.5-.99 2.18 0 .83.71 1.23 1.94 1.23 3.88 0 7.12-.32 9.69-.32 4.75 0 6.92 1.5 6.92 5.14 0 3.96-2.85 6.33-13.01 6.33-10.8 0-12.3-1.78-12.3-4.15 0-1.86 1.46-2.97 4.11-3.68v-.12c-1.78-.51-2.41-1.58-2.41-2.81 0-2.02 1.86-3.48 4.03-4.27v-.08Zm1.94 7.59c-.51 0-.99 0-1.42-.04-.75.51-1.19 1.03-1.19 1.66 0 1.54 1.42 2.25 7.36 2.25 5.62 0 7.83-.83 7.83-2.57 0-1.15-.79-1.62-3.01-1.62-2.89 0-6.88.32-9.57.32Zm10.72-14.32c0-2.49-1.82-4.27-6.25-4.27s-6.17 1.86-6.17 4.23 1.82 4 6.17 4 6.25-1.54 6.25-3.96ZM323.12 55.69c-3.2-1.23-4.59-3.56-4.59-6.72 0-5.22 3.76-8.15 10.92-8.15.87 0 8.11.04 13.41.04-.04.63-.04 3.4 0 4.27-1.46 0-4.07-.16-6.53-.28v.24c3.09.87 4.27 2.33 4.27 5.02 0 3.88-3.2 6.53-11.16 6.53-1.66 0-3.08-.12-4.31-.4-.67.75-.99 1.5-.99 2.18 0 .83.71 1.23 1.94 1.23 3.88 0 7.12-.32 9.69-.32 4.75 0 6.92 1.5 6.92 5.14 0 3.96-2.85 6.33-13.01 6.33-10.8 0-12.3-1.78-12.3-4.15 0-1.86 1.46-2.97 4.11-3.68v-.12c-1.78-.51-2.41-1.58-2.41-2.81 0-2.02 1.86-3.48 4.03-4.27v-.08Zm1.94 7.59c-.51 0-.99 0-1.42-.04-.75.51-1.19 1.03-1.19 1.66 0 1.54 1.42 2.25 7.36 2.25 5.62 0 7.83-.83 7.83-2.57 0-1.15-.79-1.62-3.01-1.62-2.89 0-6.88.32-9.57.32Zm10.72-14.32c0-2.49-1.82-4.27-6.25-4.27s-6.17 1.86-6.17 4.23 1.82 4 6.17 4 6.25-1.54 6.25-3.96Z"/></g><circle cx="277.36" cy="60.32" r="4.31" fill="#f088a0"/></g></svg>