<svg xmlns="http://www.w3.org/2000/svg" id="b" viewBox="0 0 338 144"><path fill="#231f20" stroke="#231f20" stroke-linejoin="round" d="M337.46 22.34c0-4.1-1.62-7.95-4.56-10.83-2.86-2.8-6.63-4.35-10.62-4.35h-42.4c-4.43 0-8.42 1.92-11.2 4.97-.19-.21-.37-.42-.57-.62-2.86-2.8-6.63-4.35-10.62-4.35h-42.4a15.1 15.1 0 0 0-10.72 4.45c-.33-.39-.68-.77-1.05-1.13-2.86-2.8-6.63-4.35-10.61-4.35h-42.4c-4.43 0-8.42 1.92-11.2 4.97-.19-.21-.37-.42-.57-.62-2.86-2.8-6.63-4.35-10.62-4.35h-42.4c-4.43 0-8.42 1.92-11.19 4.96-.09-.09-.16-.2-.25-.29l-.04-.04-.2-.2s-.06-.06-.09-.08l-.7-.69-.14-.08a15.084 15.084 0 0 0-9.77-3.58H20.72c-8.37 0-15.18 6.81-15.18 15.18v42.4c0 3.98 1.54 7.75 4.34 10.61.06.06.12.11.18.17a15.139 15.139 0 0 0-4.53 10.8v42.4c0 3.98 1.54 7.75 4.34 10.61 2.89 2.94 6.74 4.56 10.83 4.56h42.42c4.71 0 8.93-2.16 11.72-5.54.28.33.56.66.87.98 2.88 2.94 6.73 4.56 10.83 4.56h42.4c4.16 0 7.94-1.69 10.69-4.41 2.87 2.84 6.65 4.41 10.67 4.41h42.4c4.43 0 8.42-1.92 11.2-4.96.12.13.23.27.36.4 2.88 2.94 6.73 4.56 10.83 4.56h42.4c4.43 0 8.42-1.92 11.19-4.96.12.13.23.27.36.4 2.89 2.94 6.74 4.56 10.83 4.56h42.4c8.37 0 15.18-6.81 15.18-15.18v-42.4c0-3.85-1.44-7.46-4.04-10.27 2.5-2.71 4.04-6.31 4.04-10.28V22.34Z"/><path fill="#f0f4da" stroke="#231f20" stroke-linecap="round" stroke-linejoin="round" d="M332.46 17.34c0-4.1-1.62-7.95-4.56-10.83-2.86-2.8-6.63-4.35-10.62-4.35h-42.4c-4.43 0-8.42 1.92-11.2 4.97-.19-.21-.37-.42-.57-.62-2.86-2.8-6.63-4.35-10.62-4.35h-42.4a15.1 15.1 0 0 0-10.72 4.45c-.33-.39-.68-.77-1.05-1.13-2.86-2.8-6.63-4.35-10.61-4.35h-42.4c-4.43 0-8.42 1.92-11.2 4.97-.19-.21-.37-.42-.57-.62-2.86-2.8-6.63-4.35-10.62-4.35h-42.4c-4.43 0-8.42 1.92-11.19 4.96-.09-.09-.16-.2-.25-.29l-.04-.04-.2-.2s-.06-.06-.09-.08l-.7-.69-.14-.08a15.084 15.084 0 0 0-9.77-3.58H15.72C7.35 1.13.54 7.94.54 16.31v42.4c0 3.98 1.54 7.75 4.34 10.61.06.06.12.11.18.17a15.139 15.139 0 0 0-4.53 10.8v42.4c0 3.98 1.54 7.75 4.34 10.61 2.89 2.94 6.74 4.56 10.83 4.56h42.42c4.71 0 8.93-2.16 11.72-5.54.28.33.56.66.87.98 2.88 2.94 6.73 4.56 10.83 4.56h42.4c4.16 0 7.94-1.69 10.69-4.41 2.87 2.84 6.65 4.41 10.67 4.41h42.4c4.43 0 8.42-1.92 11.2-4.96.12.13.23.27.36.4 2.88 2.94 6.73 4.56 10.83 4.56h42.4c4.43 0 8.42-1.92 11.19-4.96.12.13.23.27.36.4 2.89 2.94 6.74 4.56 10.83 4.56h42.4c8.37 0 15.18-6.81 15.18-15.18v-42.4c0-3.85-1.44-7.46-4.04-10.27 2.5-2.71 4.04-6.31 4.04-10.28V17.34Z"/><g><g><path fill="#f9b728" stroke="#231f20" stroke-linecap="round" stroke-linejoin="round" d="M63.14 11.19 10.6 63.73a7.17 7.17 0 0 0 5.12 2.16h42.4c3.95 0 7.18-3.23 7.18-7.18v-42.4c0-2-.83-3.81-2.16-5.12Z"/><path fill="#f9f4da" stroke="#231f20" stroke-linejoin="round" d="M63.14 11.19a7.168 7.168 0 0 0-5.02-2.06h-42.4c-3.95 0-7.18 3.23-7.18 7.18v42.4c0 1.95.79 3.72 2.06 5.02l52.54-52.54Z"/><rect width="29.76" height="29.76" x="22.04" y="22.63" fill="#f9f4da" stroke="#231f20" stroke-linejoin="round" rx="3.76" ry="3.76"/><path fill="#231f20" d="M33.12 40.67c-.95 0-1.83-.17-2.65-.52-.81-.35-1.52-.83-2.12-1.46-.6-.62-1.07-1.35-1.4-2.17-.33-.83-.5-1.71-.5-2.65s.17-1.84.5-2.67.79-1.55 1.39-2.16c.6-.62 1.3-1.1 2.11-1.45s1.69-.52 2.63-.52c1.05 0 1.97.18 2.76.53s1.49.84 2.1 1.45l-1.24 1.24c-.42-.47-.93-.84-1.54-1.11-.61-.27-1.3-.4-2.08-.4-.69 0-1.32.12-1.9.37-.58.25-1.09.6-1.52 1.06s-.76 1-1 1.62c-.23.62-.35 1.3-.35 2.04s.12 1.42.35 2.04c.24.62.57 1.16 1 1.62s.94.81 1.52 1.06c.58.25 1.22.37 1.92.37.83 0 1.54-.14 2.15-.41.61-.27 1.12-.64 1.54-1.11l1.24 1.24c-.61.62-1.32 1.11-2.14 1.47s-1.74.53-2.77.53Z"/></g><g><path fill="#f9b728" stroke="#231f20" stroke-linecap="round" stroke-linejoin="round" d="M127.93 11.19 75.39 63.73a7.17 7.17 0 0 0 5.12 2.16h42.4c3.95 0 7.18-3.23 7.18-7.18v-42.4c0-2-.83-3.81-2.16-5.12Z"/><path fill="#f9f4da" stroke="#231f20" stroke-linejoin="round" d="M127.93 11.19a7.168 7.168 0 0 0-5.02-2.06h-42.4c-3.95 0-7.18 3.23-7.18 7.18v42.4c0 1.95.79 3.72 2.06 5.02l52.54-52.54Z"/><rect width="29.76" height="29.76" x="86.83" y="22.63" fill="#f9f4da" stroke="#231f20" stroke-linejoin="round" rx="3.76" ry="3.76"/><path fill="#231f20" d="M97.93 40.67c-.94 0-1.82-.17-2.63-.52-.81-.35-1.52-.84-2.13-1.47-.61-.63-1.09-1.36-1.43-2.18s-.51-1.71-.51-2.65.17-1.84.51-2.66.82-1.54 1.42-2.16c.6-.62 1.31-1.1 2.11-1.45.81-.34 1.68-.51 2.62-.51s1.81.17 2.62.51 1.51.83 2.12 1.45c.61.62 1.09 1.35 1.43 2.17s.51 1.71.51 2.67a6.838 6.838 0 0 1-1.93 4.82c-.6.62-1.31 1.11-2.11 1.46-.81.35-1.67.52-2.6.52Zm-.04-1.71c.94 0 1.77-.22 2.5-.66.72-.44 1.29-1.04 1.7-1.81.41-.77.62-1.65.62-2.64 0-.74-.12-1.41-.35-2.03s-.57-1.15-1-1.61-.94-.81-1.52-1.06c-.58-.25-1.23-.37-1.94-.37-.94 0-1.77.22-2.49.65-.72.43-1.28 1.03-1.7 1.79-.41.76-.62 1.64-.62 2.63 0 .74.12 1.42.35 2.05.24.63.57 1.17.99 1.62.42.45.93.8 1.52 1.06s1.23.38 1.93.38Z"/></g><g><path fill="#f9b728" stroke="#231f20" stroke-linecap="round" stroke-linejoin="round" d="m192.72 11.19-52.54 52.54a7.17 7.17 0 0 0 5.12 2.16h42.4c3.95 0 7.18-3.23 7.18-7.18v-42.4c0-2-.83-3.81-2.16-5.12Z"/><path fill="#f9f4da" stroke="#231f20" stroke-linejoin="round" d="M192.72 11.19a7.168 7.168 0 0 0-5.02-2.06h-42.4c-3.95 0-7.18 3.23-7.18 7.18v42.4c0 1.95.79 3.72 2.06 5.02l52.54-52.54Z"/><rect width="29.76" height="29.76" x="151.62" y="22.63" fill="#f9f4da" stroke="#231f20" stroke-linejoin="round" rx="3.76" ry="3.76"/><path fill="#231f20" d="M156.7 40.48V27.26h1.26l5.6 9.2h-.86l5.6-9.2h1.26v13.22h-1.79V30.4l.4.11-4.4 7.26h-1.28l-4.4-7.26.4-.11v10.08h-1.79Z"/></g><g><path fill="#f9b728" stroke="#231f20" stroke-linecap="round" stroke-linejoin="round" d="m257.51 12.22-52.54 52.54a7.17 7.17 0 0 0 5.12 2.16h42.4c3.95 0 7.18-3.23 7.18-7.18v-42.4c0-2-.83-3.81-2.16-5.12Z"/><path fill="#f9f4da" stroke="#231f20" stroke-linejoin="round" d="M257.51 12.22a7.168 7.168 0 0 0-5.02-2.06h-42.4c-3.95 0-7.18 3.23-7.18 7.18v42.4c0 1.95.79 3.72 2.06 5.02l52.54-52.54Z"/><rect width="29.76" height="29.76" x="216.41" y="23.66" fill="#f9f4da" stroke="#231f20" stroke-linejoin="round" rx="3.76" ry="3.76"/><path fill="#231f20" d="M221.49 41.51V28.29h1.79v13.22h-1.79Zm1.2-5.14v-1.56h3.6c.5 0 .94-.1 1.32-.3.39-.2.69-.49.91-.86.22-.37.33-.81.33-1.31s-.11-.95-.33-1.31c-.22-.37-.53-.65-.91-.86-.39-.2-.83-.3-1.32-.3h-3.6v-1.56h3.7c.81 0 1.54.17 2.19.5s1.16.8 1.53 1.4c.37.6.56 1.32.56 2.14s-.19 1.52-.56 2.13c-.38.61-.89 1.08-1.53 1.41s-1.38.5-2.19.5h-3.7Z"/></g><g><path fill="#f9b728" stroke="#231f20" stroke-linecap="round" stroke-linejoin="round" d="m322.3 12.22-52.54 52.54a7.17 7.17 0 0 0 5.12 2.16h42.4c3.95 0 7.18-3.23 7.18-7.18v-42.4c0-2-.83-3.81-2.16-5.12Z"/><path fill="#f9f4da" stroke="#231f20" stroke-linejoin="round" d="M322.3 12.22a7.168 7.168 0 0 0-5.02-2.06h-42.4c-3.95 0-7.18 3.23-7.18 7.18v42.4c0 1.95.79 3.72 2.06 5.02l52.54-52.54Z"/><rect width="29.76" height="29.76" x="281.2" y="23.66" fill="#f9f4da" stroke="#231f20" stroke-linejoin="round" rx="3.76" ry="3.76"/><path fill="#231f20" d="M292.29 41.7c-.94 0-1.82-.17-2.63-.52-.81-.35-1.52-.84-2.13-1.47a6.928 6.928 0 0 1-1.43-2.18c-.34-.83-.51-1.71-.51-2.65s.17-1.84.51-2.66c.34-.82.82-1.54 1.42-2.16.6-.62 1.31-1.1 2.11-1.45.81-.34 1.68-.51 2.62-.51s1.81.17 2.62.51 1.51.83 2.12 1.45 1.09 1.35 1.43 2.17c.34.83.51 1.71.51 2.67a6.838 6.838 0 0 1-1.93 4.82c-.6.62-1.31 1.11-2.11 1.46-.81.35-1.67.52-2.6.52Zm-.04-1.71c.94 0 1.77-.22 2.5-.66.72-.44 1.29-1.04 1.7-1.81s.62-1.65.62-2.64c0-.74-.12-1.41-.35-2.03-.24-.62-.57-1.15-1-1.61s-.94-.81-1.52-1.06c-.58-.25-1.23-.37-1.94-.37-.94 0-1.77.22-2.49.65-.72.43-1.28 1.03-1.7 1.79-.41.76-.62 1.64-.62 2.63 0 .74.12 1.42.35 2.05.24.63.57 1.17.99 1.62.42.45.93.8 1.52 1.06.59.25 1.23.38 1.93.38Z"/></g><g><path fill="#f9b728" stroke="#231f20" stroke-linecap="round" stroke-linejoin="round" d="M63.14 75.17 10.6 127.71a7.17 7.17 0 0 0 5.12 2.16h42.4c3.95 0 7.18-3.23 7.18-7.18v-42.4c0-2-.83-3.81-2.16-5.12Z"/><path fill="#f9f4da" stroke="#231f20" stroke-linejoin="round" d="M63.14 75.17a7.168 7.168 0 0 0-5.02-2.06h-42.4c-3.95 0-7.18 3.23-7.18 7.18v42.4c0 1.95.79 3.72 2.06 5.02l52.54-52.54Z"/><rect width="29.76" height="29.76" x="22.04" y="86.61" fill="#f9f4da" stroke="#231f20" stroke-linejoin="round" rx="3.76" ry="3.76"/><path fill="#231f20" d="M27.12 104.46V91.24h1.26l.53 2.09v11.12h-1.79Zm9.14 0-8.11-10.82.23-2.4 8.13 10.82-.25 2.4Zm0 0-.53-1.96V91.24h1.79v13.22h-1.26Z"/></g><g><path fill="#f9b728" stroke="#231f20" stroke-linecap="round" stroke-linejoin="round" d="m128.96 75.17-52.54 52.54a7.17 7.17 0 0 0 5.12 2.16h42.4c3.95 0 7.18-3.23 7.18-7.18v-42.4c0-2-.83-3.81-2.16-5.12Z"/><path fill="#f9f4da" stroke="#231f20" stroke-linejoin="round" d="M128.96 75.17a7.168 7.168 0 0 0-5.02-2.06h-42.4c-3.95 0-7.18 3.23-7.18 7.18v42.4c0 1.95.79 3.72 2.06 5.02l52.54-52.54Z"/><rect width="29.76" height="29.76" x="87.86" y="86.61" fill="#f9f4da" stroke="#231f20" stroke-linejoin="round" rx="3.76" ry="3.76"/><path fill="#231f20" d="M92.94 104.46V91.24h1.79v13.22h-1.79Zm1.22-11.58v-1.64h7.49v1.64h-7.49Zm0 5.62v-1.58h6.95v1.58h-6.95Zm0 5.96v-1.64h7.58v1.64h-7.58Z"/></g><g><path fill="#f9b728" stroke="#231f20" stroke-linecap="round" stroke-linejoin="round" d="m192.72 75.17-52.54 52.54a7.17 7.17 0 0 0 5.12 2.16h42.4c3.95 0 7.18-3.23 7.18-7.18v-42.4c0-2-.83-3.81-2.16-5.12Z"/><path fill="#f9f4da" stroke="#231f20" stroke-linejoin="round" d="M192.72 75.17a7.168 7.168 0 0 0-5.02-2.06h-42.4c-3.95 0-7.18 3.23-7.18 7.18v42.4c0 1.95.79 3.72 2.06 5.02l52.54-52.54Z"/><rect width="29.76" height="29.76" x="151.62" y="86.61" fill="#f9f4da" stroke="#231f20" stroke-linejoin="round" rx="3.76" ry="3.76"/><path fill="#231f20" d="M156.7 104.46V91.24h1.26l.53 2.09v11.12h-1.79Zm9.14 0-8.11-10.82.23-2.4 8.13 10.82-.25 2.4Zm0 0-.53-1.96V91.24h1.79v13.22h-1.26Z"/></g><g><path fill="#f9b728" stroke="#231f20" stroke-linecap="round" stroke-linejoin="round" d="m257.51 75.17-52.54 52.54a7.17 7.17 0 0 0 5.12 2.16h42.4c3.95 0 7.18-3.23 7.18-7.18v-42.4c0-2-.83-3.81-2.16-5.12Z"/><path fill="#f9f4da" stroke="#231f20" stroke-linejoin="round" d="M257.51 75.17a7.168 7.168 0 0 0-5.02-2.06h-42.4c-3.95 0-7.18 3.23-7.18 7.18v42.4c0 1.95.79 3.72 2.06 5.02l52.54-52.54Z"/><rect width="29.76" height="29.76" x="216.41" y="86.61" fill="#f9f4da" stroke="#231f20" stroke-linejoin="round" rx="3.76" ry="3.76"/><path fill="#231f20" d="M220.5 92.88v-1.64h10.76v1.64H220.5Zm4.48 11.58V91.62h1.81v12.84h-1.81Z"/></g><g><path fill="#f9b728" stroke="#231f20" stroke-linecap="round" stroke-linejoin="round" d="m322.3 75.17-52.54 52.54a7.17 7.17 0 0 0 5.12 2.16h42.4c3.95 0 7.18-3.23 7.18-7.18v-42.4c0-2-.83-3.81-2.16-5.12Z"/><path fill="#f9f4da" stroke="#231f20" stroke-linejoin="round" d="M322.3 75.17a7.168 7.168 0 0 0-5.02-2.06h-42.4c-3.95 0-7.18 3.23-7.18 7.18v42.4c0 1.95.79 3.72 2.06 5.02l52.54-52.54Z"/><rect width="29.76" height="29.76" x="281.2" y="86.61" fill="#f9f4da" stroke="#231f20" stroke-linejoin="round" rx="3.76" ry="3.76"/><path fill="#231f20" d="M289.93 104.65c-1.03 0-1.91-.19-2.65-.57s-1.39-.93-1.96-1.66l1.22-1.22c.42.58.9 1.03 1.45 1.32.55.3 1.22.45 2.02.45s1.42-.17 1.9-.51c.48-.34.71-.81.71-1.41 0-.5-.12-.9-.35-1.2-.23-.3-.54-.55-.92-.75s-.8-.37-1.26-.52-.91-.32-1.37-.5c-.46-.18-.88-.42-1.27-.7-.39-.28-.7-.64-.92-1.08-.23-.44-.34-1-.34-1.69 0-.75.18-1.39.54-1.91.36-.53.86-.93 1.49-1.22.63-.29 1.34-.43 2.12-.43.86 0 1.64.17 2.32.5.69.34 1.24.78 1.68 1.32l-1.22 1.22c-.39-.46-.82-.8-1.27-1.03s-.97-.34-1.55-.34c-.71 0-1.28.16-1.7.47-.42.31-.63.75-.63 1.3 0 .44.12.8.35 1.08.23.27.54.5.92.7s.8.37 1.27.52c.46.16.92.33 1.38.52s.88.43 1.26.72.69.67.92 1.13.35 1.04.35 1.74c0 1.17-.4 2.08-1.21 2.74-.81.66-1.9.99-3.29.99Z"/></g></g></svg>