<svg xmlns="http://www.w3.org/2000/svg" viewBox="0 0 258 216"><path fill="#231f20" stroke="#231f20" stroke-linecap="round" stroke-linejoin="round" d="M208.14 4.9H49.82c-.42 0-.84.03-1.26.1l-1.03.06-1.3.68-24.45 11.72a8.028 8.028 0 0 0-4.54 7.21v21.26l-6.78 3.54a7.996 7.996 0 0 0-4.3 7.09v67.58c0 3.02 1.67 5.75 4.36 7.12l6.72 3.44v19.64c0 1.79.59 3.48 1.63 4.85-.17.22-.33.46-.48.7l-.33.54-.15.39c-.18.4-.32.8-.42 1.22-.09.36-.16.73-.2 1.1-.04.3-.05.59-.05.89v26.59c0 2.68 1.33 5.16 3.55 6.65l24.57 16.48 1.37.92 1.04.17c.67.18 1.35.27 2.04.27h158.33c4.41 0 8-3.59 8-8v-30.47l-.22-.74c-.04-.18-.09-.36-.15-.54-.12-.39-.26-.76-.44-1.12-.23-.48-.51-.94-.85-1.38-.12-.16-.25-.32-.38-.46a7.99 7.99 0 0 0 2.03-5.32v-30.03l6.67-3.36.22.45a8.032 8.032 0 0 0 6.63 4.38h.5c2.65 0 5.12-1.3 6.61-3.48l18.68-27.59a8.002 8.002 0 0 0-.62-9.77 7.966 7.966 0 0 0-6-2.72h0a8 8 0 0 0-3.59.85l-18.82 9.49-.22-.45a8.032 8.032 0 0 0-6.63-4.38h-.27l-.24-.01c-1.01 0-2 .19-2.92.55v-4.05l6.67-3.36.22.45a8.034 8.034 0 0 0 6.64 4.38h.1l.1.01H230.15c2.65 0 5.13-1.3 6.62-3.48l18.68-27.58a8.002 8.002 0 0 0-.62-9.77 7.966 7.966 0 0 0-6-2.72 8 8 0 0 0-3.59.85l-18.82 9.49-.22-.45a8.032 8.032 0 0 0-6.63-4.38h-.27l-.22-.01c-1.02 0-2 .19-2.92.55v-4.05l6.67-3.36.22.45a8.034 8.034 0 0 0 6.64 4.38H230.17c2.65 0 5.12-1.3 6.62-3.48l18.68-27.58a8.002 8.002 0 0 0-.62-9.77 7.966 7.966 0 0 0-6-2.72 8 8 0 0 0-3.59.85l-18.82 9.49-.22-.45a8.034 8.034 0 0 0-6.64-4.38H219.09c-1.02 0-2.01.19-2.92.55v-7.94c0-4.41-3.59-8-8-8h0Z"/><path fill="#f0f4da" stroke="#231f20" stroke-linecap="round" stroke-linejoin="round" d="M203.14.9H44.82c-.42 0-.84.03-1.26.1l-1.03.06-1.3.68-24.44 11.73a8.028 8.028 0 0 0-4.54 7.21v21.26l-6.78 3.54a7.996 7.996 0 0 0-4.3 7.09v67.57c0 3.02 1.67 5.75 4.36 7.12l6.72 3.44v19.64c0 1.79.59 3.48 1.63 4.85-.17.22-.33.46-.48.7l-.33.54-.15.39c-.18.4-.32.8-.42 1.22-.09.36-.16.73-.2 1.1-.04.3-.05.59-.05.89v26.59c0 2.68 1.33 5.16 3.55 6.65l24.57 16.48 1.37.92 1.04.17c.67.18 1.35.27 2.04.27h158.32c4.41 0 8-3.59 8-8v-30.47l-.22-.74c-.04-.18-.09-.36-.15-.54-.12-.39-.26-.76-.44-1.12-.23-.48-.51-.94-.85-1.38-.12-.16-.25-.32-.38-.46a7.99 7.99 0 0 0 2.03-5.32v-30.03l6.67-3.36.22.45a8.032 8.032 0 0 0 6.63 4.38h.5c2.65 0 5.12-1.3 6.61-3.48l18.68-27.59a8.002 8.002 0 0 0-.62-9.77 7.966 7.966 0 0 0-6-2.72h0a8 8 0 0 0-3.59.85l-18.82 9.49-.22-.45a8.032 8.032 0 0 0-6.63-4.38h-.27l-.24-.01c-1.01 0-2 .19-2.92.55v-4.05l6.67-3.36.22.45a8.034 8.034 0 0 0 6.64 4.38h.1l.1.01H225.15c2.65 0 5.13-1.3 6.62-3.48l18.68-27.58a8.002 8.002 0 0 0-.62-9.77 7.966 7.966 0 0 0-6-2.72 8 8 0 0 0-3.59.85l-18.82 9.49-.22-.45a8.032 8.032 0 0 0-6.63-4.38h-.27l-.22-.01c-1.02 0-2 .19-2.92.55v-4.05l6.67-3.36.22.45a8.034 8.034 0 0 0 6.64 4.38H225.17c2.65 0 5.12-1.3 6.62-3.48l18.68-27.58a8.002 8.002 0 0 0-.62-9.77 7.966 7.966 0 0 0-6-2.72 8 8 0 0 0-3.59.85l-18.82 9.49-.22-.45a8.034 8.034 0 0 0-6.64-4.38H214.09c-1.02 0-2.01.19-2.92.55V8.93c0-4.41-3.59-8-8-8h0Z"/><g><path fill="#f9b728" stroke="#231f20" stroke-linecap="round" stroke-linejoin="round" d="m167.54 159.61-147.3.42 24.58 13.66h158.32l-35.6-14.08z"/><path fill="#f9b728" stroke="#231f20" stroke-linecap="round" stroke-linejoin="round" d="m74.19 168.84-11.14-5.95v-13.38l11.14 3.01v16.32z"/><path fill="#f0f4da" stroke="#231f20" stroke-linecap="round" stroke-linejoin="round" d="M74.19 152.52h82.13v16.32H74.19z"/><path fill="#f9b728" stroke="#231f20" stroke-linecap="round" stroke-linejoin="round" d="M35.08 39.06 9.17 52.58v67.56l24.93 12.75.98-93.83z"/><path fill="#f9b728" stroke="#231f20" stroke-linecap="round" stroke-linejoin="round" d="m44.82 163.04-24.58-12.7V20.69L44.82 8.9v154.14z"/><path fill="#f0f4da" stroke="#231f20" stroke-linecap="round" stroke-linejoin="round" d="m24.94 28.45 14.3-6.85M24.94 35.98l14.3-6.86M24.94 43.5l14.3-6.85M44.82 8.9h158.31v154.14H44.82zM44.82 173.69h158.31v29.4H44.82z"/><rect width="128.58" height="125.2" x="59.69" y="23.38" fill="#231f20" stroke="#231f20" stroke-linecap="round" stroke-linejoin="round" rx="8.93" ry="8.93"/><path fill="#f9b728" stroke="#231f20" stroke-linecap="round" stroke-linejoin="round" d="M20.24 160.03v26.58l24.58 16.49v-29.41l-24.58-13.66z"/><circle cx="194.04" cy="153.44" r="3.62" fill="#0ba65b" stroke="#231f20" stroke-linecap="round" stroke-linejoin="round"/><path fill="#231f20" stroke="#231f20" stroke-linecap="round" stroke-linejoin="round" d="M129.8 180.6h62.66v3.34H129.8z"/><path fill="#f0f4da" stroke="#231f20" stroke-linecap="round" stroke-linejoin="round" d="M52.34 180.6h66.05v7.79H52.34zM179.19 190.4h13.26v6.46h-13.26zM163.15 190.4h13.26v6.46h-13.26z"/><path fill="#f9b728" stroke="#231f20" stroke-linecap="round" stroke-linejoin="round" d="m243.83 18.79-25.95 13.09-3.83-7.59-18.66 27.56 25.96-13.09 3.82 7.59 18.66-27.56zM243.83 58.86l-25.95 13.09-3.83-7.59-18.66 27.56 25.96-13.09 3.82 7.59 18.66-27.56zM243.83 98.94l-25.95 13.08-3.83-7.58-18.66 27.55 25.96-13.09 3.82 7.59 18.66-27.55z"/><g><g fill="#f97428"><path d="M103.49 38.81v10.1c0 4.32-2.03 6.17-5.84 6.17s-5.47-1.9-5.47-6.13V38.7c0-4.2 2.31-6.04 5.66-6.04s5.64 1.8 5.64 6.15Zm-7.07-.47v11.13c0 1.34.46 2.05 1.4 2.05s1.42-.64 1.42-2.07V38.31c0-1.36-.38-2.06-1.43-2.06-.89 0-1.39.64-1.39 2.09ZM105.74 32.99h4.19v8.38h2.73v-8.38h4.21v21.77h-4.21v-9.7h-2.73v9.7h-4.19V32.99ZM123.65 54.76V32.99h4.63c.69 2.66 2.87 12.52 3.04 13.47h.1c-.23-2.9-.38-6.86-.38-9.9v-3.58h3.89v21.77h-4.68c-.45-2.07-2.83-13.34-2.97-14.03h-.11c.16 2.56.29 6.89.29 10.31v3.72h-3.82ZM148.51 38.81v10.1c0 4.32-2.03 6.17-5.84 6.17s-5.47-1.9-5.47-6.13V38.7c0-4.2 2.31-6.04 5.66-6.04s5.64 1.8 5.64 6.15Zm-7.07-.47v11.13c0 1.34.46 2.05 1.4 2.05s1.42-.64 1.42-2.07V38.31c0-1.36-.38-2.06-1.43-2.06-.89 0-1.39.64-1.39 2.09ZM151.85 46.8l-.39-10.3-.02-3.52h4.57v3.45l-.39 10.36h-3.76Zm-.19 7.95v-5.12h4.16v5.12h-4.16Z"/></g><g fill="#f38ba3"><path d="M92.45 61.31v21.77h-4.18V61.31h4.18ZM98.43 76.37v1.51c0 1.43.36 2.1 1.31 2.1s1.19-.99 1.19-2.01c0-2.05-.39-2.65-2.61-4.51-2.45-2.08-3.71-3.31-3.71-6.51s1.03-5.98 5.15-5.98c4.38 0 5.03 2.99 5.03 5.48v1.25h-3.95v-1.3c0-1.32-.22-1.97-1.04-1.97-.77 0-1.02.66-1.02 1.9 0 1.31.24 1.96 2.04 3.36 3.2 2.52 4.35 3.93 4.35 7.51s-1.16 6.22-5.49 6.22-5.34-2.5-5.34-5.73v-1.31h4.1ZM113.8 83.08v-6.97c0-.35-.06-.74-.15-1.13l-3.83-13.67h4.56c.59 3.14 1.27 6.75 1.54 9.49h.14c.35-2.6 1.05-6.29 1.62-9.49H122l-3.91 14.02c-.06.27-.1.48-.1.94v6.81h-4.18ZM134.09 67.14v10.1c0 4.32-2.03 6.17-5.84 6.17s-5.47-1.9-5.47-6.13V67.03c0-4.2 2.31-6.04 5.66-6.04s5.64 1.8 5.64 6.15Zm-7.07-.47V77.8c0 1.34.46 2.05 1.4 2.05s1.42-.64 1.42-2.07V66.64c0-1.36-.38-2.06-1.43-2.06-.89 0-1.39.64-1.39 2.09ZM140.44 61.31v16.58c0 1.27.39 1.95 1.34 1.95 1.01 0 1.32-.77 1.32-1.95V61.31h4.24v16.31c0 3.86-1.77 5.77-5.62 5.77s-5.49-1.84-5.49-5.8V61.32h4.21ZM154.02 73.62v9.46h-4.18V61.31h5.43c3.65 0 5.45 1.6 5.45 5.41v.78c0 3.1-1.24 4.02-2.17 4.47 1.35.65 1.99 1.65 1.99 4.69 0 2.1-.03 5.28.15 6.42h-4.05c-.27-.98-.25-3.82-.25-6.6 0-2.45-.28-2.87-1.88-2.87h-.49Zm.01-3.3h.52c1.4 0 1.97-.44 1.97-2.47V66.8c0-1.46-.29-2.19-1.83-2.19h-.65v5.71Z"/></g><g fill="#0ba65b"><path d="M73.88 106.01c0 3.29-.41 5.68-4.65 5.68-.63 0-1.41-.06-1.89-.14v-3.48c.22.02.58.05.94.05 1.09 0 1.4-.36 1.4-1.66V89.63h4.19V106ZM80.06 106.23l-.54 5.18h-4.27l3.08-21.77h6.24l3.15 21.77h-4.36l-.6-5.18h-2.71Zm2.36-3.69c-.31-2.79-.74-7.02-.95-9.11h-.16c-.08 1.52-.59 6.42-.88 9.11h1.99ZM91.49 111.41l-3.27-21.77h4.45l.78 8.06c.27 2.8.61 5.96.76 8.73h.17c.14-2.77.49-5.75.73-8.7l.68-8.09h4.37l-3.22 21.77h-5.46ZM105.47 106.23l-.54 5.18h-4.27l3.08-21.77h6.24l3.15 21.77h-4.36l-.6-5.18h-2.71Zm2.36-3.69c-.31-2.79-.74-7.02-.95-9.11h-.16c-.08 1.52-.59 6.42-.88 9.11h1.99ZM118.06 104.7v1.51c0 1.43.36 2.1 1.31 2.1s1.19-.99 1.19-2.01c0-2.05-.39-2.65-2.61-4.51-2.45-2.08-3.71-3.31-3.71-6.51s1.03-5.98 5.15-5.98c4.38 0 5.03 2.99 5.03 5.48v1.25h-3.95v-1.3c0-1.32-.22-1.97-1.04-1.97-.77 0-1.02.66-1.02 1.9 0 1.31.24 1.96 2.04 3.36 3.2 2.52 4.35 3.93 4.35 7.51s-1.16 6.22-5.49 6.22-5.34-2.5-5.34-5.73v-1.31h4.1ZM137.17 104.3v1.18c0 2.75-.51 6.25-5.5 6.25-3.69 0-5.29-1.96-5.29-5.97V95.08c0-3.79 1.89-5.78 5.38-5.78 4.6 0 5.34 3.03 5.34 5.88v1.37h-4.21v-1.86c0-1.2-.26-1.81-1.13-1.81s-1.14.57-1.14 1.81v11.51c0 1.16.19 1.96 1.14 1.96s1.17-.67 1.17-2.05v-1.81h4.24ZM143.14 101.94v9.46h-4.18V89.63h5.43c3.65 0 5.45 1.6 5.45 5.41v.78c0 3.1-1.24 4.02-2.17 4.47 1.35.65 1.99 1.65 1.99 4.69 0 2.1-.03 5.28.15 6.42h-4.05c-.27-.98-.25-3.82-.25-6.6 0-2.45-.28-2.87-1.88-2.87h-.49Zm.01-3.3h.52c1.4 0 1.97-.44 1.97-2.47v-1.05c0-1.46-.29-2.19-1.83-2.19h-.65v5.71ZM156.1 89.64v21.77h-4.18V89.64h4.18ZM158.73 89.64h5.58c3.62 0 5.41 1.91 5.41 5.77v1.33c0 3.81-1.44 6.11-5.57 6.11h-1.23v8.56h-4.19V89.64Zm4.19 9.82h.68c1.59 0 1.93-.89 1.93-2.7v-1.5c0-1.41-.33-2.31-1.73-2.31h-.88v6.52ZM173.66 93.34h-3.17v-3.7h10.54v3.7h-3.19v18.07h-4.18V93.34Z"/></g><g fill="#12b2e2"><path d="m75.72 139.73-2.46-21.77h4.41c.31 3.89.75 11.27.85 14.7h.15c.44-4.26.96-10.19 1.42-14.7h3.6c.45 4.25.95 10.1 1.36 14.63h.17c.19-4.06.59-11.03.88-14.63h4.13l-2.75 21.77h-4.34c-.43-3.82-.97-8.03-1.36-12.53h-.15c-.42 4.43-1.07 8.6-1.53 12.53h-4.38ZM102.85 123.79v10.1c0 4.32-2.03 6.17-5.84 6.17s-5.47-1.9-5.47-6.13v-10.25c0-4.2 2.31-6.04 5.66-6.04s5.64 1.8 5.64 6.15Zm-7.07-.47v11.13c0 1.34.46 2.05 1.4 2.05s1.42-.64 1.42-2.07v-11.14c0-1.36-.38-2.06-1.43-2.06-.89 0-1.39.64-1.39 2.09ZM109.28 130.27v9.46h-4.18v-21.77h5.43c3.65 0 5.45 1.6 5.45 5.41v.78c0 3.1-1.24 4.02-2.17 4.47 1.35.65 1.99 1.65 1.99 4.69 0 2.1-.03 5.28.15 6.42h-4.05c-.27-.98-.25-3.82-.25-6.6 0-2.45-.28-2.87-1.88-2.87h-.49Zm.01-3.3h.52c1.4 0 1.97-.44 1.97-2.47v-1.05c0-1.46-.29-2.19-1.83-2.19h-.65v5.71ZM118.05 117.96h4.06v9.48h.07c.69-2.05 2.12-6.5 3.1-9.48h4.62l-3.65 8.43 3.79 13.34h-4.53l-2.15-9.18-1.24 2.78v6.4h-4.06v-21.77ZM135.29 117.96v21.77h-4.18v-21.77h4.18ZM137.92 139.73v-21.77h4.63c.69 2.66 2.87 12.52 3.04 13.47h.1c-.23-2.9-.38-6.86-.38-9.9v-3.58h3.89v21.77h-4.68c-.45-2.07-2.83-13.34-2.97-14.03h-.11c.16 2.56.29 6.89.29 10.31v3.72h-3.82ZM162.59 139.73h-3.15c-.1-.38-.16-1.15-.2-1.61-.69 1.53-2.09 1.94-3.43 1.94-3.39 0-4.34-2.52-4.34-6.08v-10.24c0-3.34 1.38-6.1 5.54-6.1 5.01 0 5.52 3.65 5.52 5.84v.98h-4.21v-1.2c0-1.06-.13-2.03-1.29-2.03-.96 0-1.31.7-1.31 2.12v11.16c0 1.48.48 2.02 1.31 2.02 1.02 0 1.37-.79 1.37-2.58v-3.12h-1.44v-3.53h5.64v12.44ZM167.7 132.73v-.82c0-1.96.46-3.48 1.76-5.56.84-1.36 1.18-2.04 1.18-3.93 0-1.07-.18-1.52-.83-1.52-.7 0-.91.53-.91 1.74v1.09h-3.88v-1c0-2.73.88-5.06 4.97-5.06 3.67 0 4.88 2.05 4.88 4.98 0 2.45-.44 3.44-1.88 5.82-.94 1.52-1.11 2.64-1.11 3.85v.4h-4.19Zm0 7v-5.36h4.19v5.36h-4.19Z"/></g></g></g></svg>