<?xml version="1.0" encoding="UTF-8"?><svg id="a" xmlns="http://www.w3.org/2000/svg" viewBox="0 0 80 86"><path d="M41.16,85.42c-2.56,0-4.88-1.51-5.92-3.85L9.61,23.62c-3.7-1.89-6.21-5.75-6.21-10.08C3.41,7.29,8.5,2.2,14.75,2.2h52.54c6.25,0,11.34,5.09,11.34,11.34,0,4.33-2.5,8.18-6.2,10.08l-2.94,6.55-4.01,9.2c-.03,.08-.07,.16-.1,.23l-18.29,41.94c-1.03,2.36-3.35,3.88-5.93,3.88Z" fill="#231f20" stroke="#231f20" stroke-linejoin="round"/><path d="M39.12,83.8c-2.56,0-4.88-1.51-5.92-3.85L7.58,22c-3.7-1.89-6.21-5.75-6.21-10.08C1.37,5.66,6.46,.58,12.71,.58h52.54c6.25,0,11.34,5.09,11.34,11.34,0,4.33-2.5,8.18-6.2,10.08l-2.94,6.55-4.01,9.2c-.03,.08-.07,.16-.1,.23l-18.29,41.94c-1.03,2.36-3.35,3.88-5.93,3.88Z" fill="#f9f4da" stroke="#231f20" stroke-linejoin="round"/><g><polygon points="16.37 25.79 10.45 12.61 67.51 12.61 61.55 25.89 16.37 25.79" fill="#ed203d" stroke="#231f20" stroke-linejoin="round"/><rect x="7.84" y="7.05" width="62.28" height="9.74" rx="4.87" ry="4.87" fill="#fc7428" stroke="#231f20" stroke-linejoin="round"/><path d="M39.12,77.33L63.07,22.43h0s.02-.07,.02-.1c0-.01,0-.02,0-.03,0-.01,0-.04,0-.06,0-.02,0-.03,0-.04v-.09s0-.04,0-.05c0-.02,0-.03,0-.04,0-.02,0-.03-.01-.05,0-.01,0-.03-.01-.04,0-.01,0-.03-.02-.05,0-.02-.01-.03-.02-.04,0-.01-.01-.03-.02-.05,0-.02-.01-.03-.02-.04,0-.01-.02-.03-.03-.04l-.02-.04s-.02-.03-.03-.04c-.01-.01,0-.01-.01-.02-.14-.16-.32-.27-.53-.31l-2.75-.59c-2.68-.58-5.45-.58-8.12,0-2.79,.6-5.68,.6-8.48,0-2.68-.58-5.45-.58-8.12,0-2.79,.6-5.68,.6-8.48,0-2.68-.58-5.45-.58-8.12,0l-2.71,.58c-.21,.04-.4,.16-.54,.33,0,0,0,0-.01,.01-.01,.02-.02,.03-.03,.05-.01,.02-.02,.02-.02,.03,0,.01-.02,.03-.03,.05,0,.02-.02,.03-.02,.04s-.01,.03-.02,.05c0,.02-.01,.03-.02,.04,0,.02-.01,.03-.02,.05,0,.02,0,.03-.01,.04s0,.03,0,.05c0,.02,0,.03,0,.04s0,.04,0,.05v.13s0,.04,.01,.06c0,.01,0,.02,0,.03,0,.03,.01,.06,.02,.09h0s24.22,54.9,24.22,54.9Z" fill="#fcba28" stroke="#231f20" stroke-linejoin="round"/><circle cx="40.2" cy="30.37" r="6.09" fill="#ed203d" stroke="#231f20" stroke-linejoin="round"/><path d="M55.53,34.95c-3.36,0-6.09,2.73-6.09,6.09,0,2.3,1.3,4.29,3.18,5.32l4.83-11.07c-.61-.2-1.25-.34-1.92-.34Z" fill="#ed203d" stroke="#231f20" stroke-linejoin="round"/><path d="M44.04,51.2c-3.36,0-6.09,2.73-6.09,6.09s2.73,6.09,6.09,6.09c.42,0,.82-.04,1.21-.12l3.97-9.11c-1.07-1.76-2.98-2.94-5.19-2.94Z" fill="#ed203d" stroke="#231f20" stroke-linejoin="round"/><path d="M36.01,46.02c0-3.36-2.73-6.09-6.09-6.09-2.55,0-4.73,1.57-5.64,3.8l3.52,7.98c.66,.25,1.37,.4,2.11,.4,3.36,0,6.09-2.73,6.09-6.09Z" fill="#ed203d" stroke="#231f20" stroke-linejoin="round"/><path d="M16.81,26.77l4.86,11.01c2.5-.76,4.33-3.05,4.33-5.8,0-3.36-2.73-6.09-6.09-6.09-1.14,0-2.19,.33-3.1,.88Z" fill="#ed203d" stroke="#231f20" stroke-linejoin="round"/></g></svg>