<?xml version="1.0" encoding="UTF-8"?><svg id="a" xmlns="http://www.w3.org/2000/svg" viewBox="0 0 104 58"><path d="M92.58,57.19H14.37c-2.81,0-5.51-1.2-7.39-3.28-1.86-2.05-2.77-4.81-2.49-7.55C6.57,25.78,22.53,10,42.86,7.98c.79-.76,1.78-1.56,3.04-2.2,3.09-1.56,6.1-1.3,8.31-1.1,.43,.04,.99,.09,1.37,.1,3.72-2.44,8.61-2.19,12.67,.72,1.26,.9,1.8,1.14,2.01,1.2,.26-.02,.7-.09,.91-.13,1.64-.27,4.08-.66,6.8,.4,2.66,1.02,4.2,2.91,5.22,4.16,.23,.29,.49,.6,.61,.72,.23,.22,.96,.61,1.54,.93,.71,.38,1.49,.81,2.3,1.35,3.56,2.37,5.59,5.93,5.54,9.56,5.24,6.47,8.44,14.25,9.29,22.66,.28,2.75-.63,5.5-2.49,7.56-1.88,2.08-4.58,3.28-7.39,3.28Zm-11.1-34.76h0Zm-30.35-5.91h0Z" fill="#231f20" stroke="#231f20" stroke-linejoin="round"/><path d="M89.63,54.87H11.42c-2.81,0-5.51-1.2-7.39-3.28-1.86-2.05-2.77-4.81-2.49-7.55C3.62,23.46,19.57,7.68,39.91,5.66c.79-.76,1.78-1.56,3.04-2.2,3.09-1.56,6.1-1.3,8.31-1.1,.43,.04,.99,.09,1.37,.1,3.72-2.44,8.61-2.19,12.67,.72,1.26,.9,1.8,1.14,2.01,1.2,.26-.02,.7-.09,.91-.13,1.64-.27,4.08-.66,6.8,.4,2.66,1.02,4.2,2.91,5.22,4.16,.23,.29,.49,.6,.61,.72,.23,.22,.96,.61,1.54,.93,.71,.38,1.49,.81,2.3,1.35,3.56,2.37,5.59,5.93,5.54,9.56,5.24,6.47,8.44,14.25,9.29,22.66,.28,2.75-.63,5.5-2.49,7.56-1.88,2.08-4.58,3.28-7.39,3.28Zm-11.1-34.76h0Zm-30.35-5.91h0Z" fill="#f9f4da" stroke="#231f20" stroke-linejoin="round"/><path d="M77.14,48.4H11.42c-2.01,0-3.64-1.71-3.44-3.71C9.84,26.28,25.38,11.92,44.28,11.92s34.44,14.37,36.3,32.77c.2,2-1.43,3.71-3.44,3.71Z" fill="#fcba28" stroke="#231f20" stroke-linejoin="round"/><path d="M81.09,17.2c-1.55-1.03-3.36-1.69-4.71-2.97-1.25-1.19-2.11-2.91-3.72-3.53-1.74-.67-3.66,.21-5.52,.17-2.07-.04-3.94-1.21-5.62-2.42-1.28-.92-3.62-1.91-5.58-.41-2.73,2.09-7-.36-10.07,1.19-1.99,1.01-3.03,3.4-5.08,4.27-1.35,.57-2.97,.4-4.2,1.19-.92,.59-1.47,1.65-1.68,2.73s-.13,2.19-.05,3.28l45.95,4.28c1.34-.67,2.63-1.74,2.9-3.21,.33-1.83-1.06-3.55-2.61-4.58Z" fill="#0ba95b" stroke="#231f20" stroke-linejoin="round"/><path d="M11.94,48.4h14.74s.02,0,.03,0c.27-.53,2.48-16.57,2.48-18.13,0-2.18-1.76-3.94-3.94-3.94s-3.94,1.76-3.94,3.94c0,.39,.07,.76,.18,1.11-1,.49-1.76,1.38-2.07,2.48-.38-.12-.77-.2-1.19-.2-2.18,0-3.94,1.76-3.94,3.94,0,.83,.26,1.6,.7,2.24-1.26,.66-2.14,1.96-2.14,3.48,0,.7,.2,1.35,.52,1.92-.88,.72-1.45,1.8-1.45,3.03,0,.04,.01,.08,.01,.12Z" fill="#fc7428" stroke="#231f20" stroke-linejoin="round"/><rect x="30.67" y="16.39" width="6.22" height="6.22" rx=".67" ry=".67" transform="translate(-4.65 12.85) rotate(-20.17)" fill="#f9f4da" stroke="#231f20" stroke-linejoin="round"/><rect x="22.9" y="22.35" width="6.22" height="6.22" rx=".77" ry=".77" transform="translate(-9.82 19.07) rotate(-34.27)" fill="#f9f4da" stroke="#231f20" stroke-linejoin="round"/><circle cx="29.98" cy="23.31" r="3.49" fill="#ed203d" stroke="#231f20" stroke-linejoin="round"/><path d="M89.63,48.4H23.91c-2.01,0-3.64-1.71-3.44-3.71,1.86-18.41,17.4-32.77,36.3-32.77s34.44,14.37,36.3,32.77c.2,2-1.43,3.71-3.44,3.71Z" fill="#fcba28" stroke="#231f20" stroke-linejoin="round"/><g><path d="M83.6,34.75c.63,0,.63-.98,0-.98s-.63,.98,0,.98h0Z" fill="#231f20"/><path d="M69.86,42.45c.63,0,.63-.98,0-.98s-.63,.98,0,.98h0Z" fill="#231f20"/><path d="M69.86,27.8c.63,0,.63-.98,0-.98s-.63,.98,0,.98h0Z" fill="#231f20"/><path d="M56.58,20.41c.63,0,.63-.98,0-.98s-.63,.98,0,.98h0Z" fill="#231f20"/><path d="M43.14,27.95c.63,0,.63-.98,0-.98s-.63,.98,0,.98h0Z" fill="#231f20"/><path d="M55.82,36.56c.63,0,.63-.98,0-.98s-.63,.98,0,.98h0Z" fill="#231f20"/><path d="M29.25,35.35c.63,0,.63-.98,0-.98s-.63,.98,0,.98h0Z" fill="#231f20"/><path d="M39.82,44.86c.63,0,.63-.98,0-.98s-.63,.98,0,.98h0Z" fill="#231f20"/></g></svg>