<svg xmlns="http://www.w3.org/2000/svg" id="a" viewBox="0 0 258 216"><path fill="#231f20" stroke="#231f20" stroke-linecap="round" stroke-linejoin="round" d="M208.14 4.9H49.82c-.42 0-.84.03-1.26.1l-1.03.06-1.3.68-24.45 11.72a8.028 8.028 0 0 0-4.54 7.21v21.26l-6.78 3.54a7.996 7.996 0 0 0-4.3 7.09v67.58c0 3.02 1.67 5.75 4.36 7.12l6.72 3.44v19.64c0 1.79.59 3.48 1.63 4.85-.17.22-.33.46-.48.7l-.33.54-.15.39c-.18.4-.32.8-.42 1.22-.09.36-.16.73-.2 1.1-.04.3-.05.59-.05.89v26.59c0 2.68 1.33 5.16 3.55 6.65l24.57 16.48 1.37.92 1.04.17c.67.18 1.35.27 2.04.27h158.33c4.41 0 8-3.59 8-8v-30.47l-.22-.74c-.04-.18-.09-.36-.15-.54-.12-.39-.26-.76-.44-1.12-.23-.48-.51-.94-.85-1.38-.12-.16-.25-.32-.38-.46a7.99 7.99 0 0 0 2.03-5.32v-30.03l6.67-3.36.22.45a8.032 8.032 0 0 0 6.63 4.38h.5c2.65 0 5.12-1.3 6.61-3.48l18.68-27.59a8.002 8.002 0 0 0-.62-9.77 7.966 7.966 0 0 0-6-2.72h0a8 8 0 0 0-3.59.85l-18.82 9.49-.22-.45a8.032 8.032 0 0 0-6.63-4.38h-.27l-.24-.01c-1.01 0-2 .19-2.92.55v-4.05l6.67-3.36.22.45a8.034 8.034 0 0 0 6.64 4.38h.1l.1.01H230.15c2.65 0 5.13-1.3 6.62-3.48l18.68-27.58a8.002 8.002 0 0 0-.62-9.77 7.966 7.966 0 0 0-6-2.72 8 8 0 0 0-3.59.85l-18.82 9.49-.22-.45a8.032 8.032 0 0 0-6.63-4.38h-.27l-.22-.01c-1.02 0-2 .19-2.92.55v-4.05l6.67-3.36.22.45a8.034 8.034 0 0 0 6.64 4.38H230.17c2.65 0 5.12-1.3 6.62-3.48l18.68-27.58a8.002 8.002 0 0 0-.62-9.77 7.966 7.966 0 0 0-6-2.72 8 8 0 0 0-3.59.85l-18.82 9.49-.22-.45a8.034 8.034 0 0 0-6.64-4.38H219.09c-1.02 0-2.01.19-2.92.55v-7.94c0-4.41-3.59-8-8-8h0Z"/><path fill="#f0f4da" stroke="#231f20" stroke-linecap="round" stroke-linejoin="round" d="M203.14.9H44.82c-.42 0-.84.03-1.26.1l-1.03.06-1.3.68-24.44 11.73a8.028 8.028 0 0 0-4.54 7.21v21.26l-6.78 3.54a7.996 7.996 0 0 0-4.3 7.09v67.57c0 3.02 1.67 5.75 4.36 7.12l6.72 3.44v19.64c0 1.79.59 3.48 1.63 4.85-.17.22-.33.46-.48.7l-.33.54-.15.39c-.18.4-.32.8-.42 1.22-.09.36-.16.73-.2 1.1-.04.3-.05.59-.05.89v26.59c0 2.68 1.33 5.16 3.55 6.65l24.57 16.48 1.37.92 1.04.17c.67.18 1.35.27 2.04.27h158.32c4.41 0 8-3.59 8-8v-30.47l-.22-.74c-.04-.18-.09-.36-.15-.54-.12-.39-.26-.76-.44-1.12-.23-.48-.51-.94-.85-1.38-.12-.16-.25-.32-.38-.46a7.99 7.99 0 0 0 2.03-5.32v-30.03l6.67-3.36.22.45a8.032 8.032 0 0 0 6.63 4.38h.5c2.65 0 5.12-1.3 6.61-3.48l18.68-27.59a8.002 8.002 0 0 0-.62-9.77 7.966 7.966 0 0 0-6-2.72h0a8 8 0 0 0-3.59.85l-18.82 9.49-.22-.45a8.032 8.032 0 0 0-6.63-4.38h-.27l-.24-.01c-1.01 0-2 .19-2.92.55v-4.05l6.67-3.36.22.45a8.034 8.034 0 0 0 6.64 4.38h.1l.1.01H225.15c2.65 0 5.13-1.3 6.62-3.48l18.68-27.58a8.002 8.002 0 0 0-.62-9.77 7.966 7.966 0 0 0-6-2.72 8 8 0 0 0-3.59.85l-18.82 9.49-.22-.45a8.032 8.032 0 0 0-6.63-4.38h-.27l-.22-.01c-1.02 0-2 .19-2.92.55v-4.05l6.67-3.36.22.45a8.034 8.034 0 0 0 6.64 4.38H225.17c2.65 0 5.12-1.3 6.62-3.48l18.68-27.58a8.002 8.002 0 0 0-.62-9.77 7.966 7.966 0 0 0-6-2.72 8 8 0 0 0-3.59.85l-18.82 9.49-.22-.45a8.034 8.034 0 0 0-6.64-4.38H214.09c-1.02 0-2.01.19-2.92.55V8.93c0-4.41-3.59-8-8-8h0Z"/><g><path fill="#f9b728" stroke="#231f20" stroke-linecap="round" stroke-linejoin="round" d="m167.54 159.61-147.3.42 24.58 13.66h158.32l-35.6-14.08z"/><path fill="#f9b728" stroke="#231f20" stroke-linecap="round" stroke-linejoin="round" d="m74.19 168.84-11.14-5.95v-13.38l11.14 3.01v16.32z"/><path fill="#f0f4da" stroke="#231f20" stroke-linecap="round" stroke-linejoin="round" d="M74.19 152.52h82.13v16.32H74.19z"/><path fill="#f9b728" stroke="#231f20" stroke-linecap="round" stroke-linejoin="round" d="M35.08 39.06 9.17 52.58v67.56l24.93 12.75.98-93.83z"/><path fill="#f9b728" stroke="#231f20" stroke-linecap="round" stroke-linejoin="round" d="m44.82 163.04-24.58-12.7V20.69L44.82 8.9v154.14z"/><path fill="#f0f4da" stroke="#231f20" stroke-linecap="round" stroke-linejoin="round" d="m24.94 28.45 14.3-6.85M24.94 35.98l14.3-6.86M24.94 43.5l14.3-6.85M44.82 8.9h158.31v154.14H44.82zM44.82 173.69h158.31v29.4H44.82z"/><rect width="128.58" height="125.2" x="59.69" y="23.38" fill="#231f20" stroke="#231f20" stroke-linecap="round" stroke-linejoin="round" rx="8.93" ry="8.93"/><path fill="#f9b728" stroke="#231f20" stroke-linecap="round" stroke-linejoin="round" d="M20.24 160.03v26.58l24.58 16.49v-29.41l-24.58-13.66z"/><circle cx="194.04" cy="153.44" r="3.62" fill="#0ba65b" stroke="#231f20" stroke-linecap="round" stroke-linejoin="round"/><path fill="#231f20" stroke="#231f20" stroke-linecap="round" stroke-linejoin="round" d="M129.8 180.6h62.66v3.34H129.8z"/><path fill="#f0f4da" stroke="#231f20" stroke-linecap="round" stroke-linejoin="round" d="M52.34 180.6h66.05v7.79H52.34zM179.19 190.4h13.26v6.46h-13.26zM163.15 190.4h13.26v6.46h-13.26z"/><path fill="#f9b728" stroke="#231f20" stroke-linecap="round" stroke-linejoin="round" d="m243.83 18.79-25.95 13.09-3.83-7.59-18.66 27.56 25.96-13.09 3.82 7.59 18.66-27.56zM243.83 58.86l-25.95 13.09-3.83-7.59-18.66 27.56 25.96-13.09 3.82 7.59 18.66-27.56zM243.83 98.94l-25.95 13.08-3.83-7.58-18.66 27.55 25.96-13.09 3.82 7.59 18.66-27.55z"/><g><g fill="#f97428"><path d="M71.91 32.99h9.03v3.7H76.1v4.96h4.56v3.7H76.1v9.4h-4.19V32.98ZM86.75 32.99v16.58c0 1.27.39 1.95 1.34 1.95 1.01 0 1.32-.77 1.32-1.95V32.99h4.24V49.3c0 3.86-1.77 5.77-5.62 5.77s-5.49-1.84-5.49-5.8V33h4.21ZM96.15 54.76V32.99h4.63c.69 2.66 2.87 12.52 3.04 13.47h.1c-.23-2.9-.38-6.86-.38-9.9v-3.58h3.89v21.77h-4.68c-.45-2.07-2.83-13.34-2.97-14.03h-.11c.16 2.56.29 6.89.29 10.31v3.72h-3.82ZM120.48 47.65v1.18c0 2.75-.51 6.25-5.5 6.25-3.69 0-5.29-1.96-5.29-5.97V38.43c0-3.79 1.89-5.78 5.38-5.78 4.6 0 5.34 3.03 5.34 5.88v1.37h-4.21v-1.86c0-1.2-.26-1.81-1.13-1.81s-1.14.57-1.14 1.81v11.51c0 1.16.19 1.96 1.14 1.96s1.17-.67 1.17-2.05v-1.81h4.24ZM124.32 36.69h-3.17v-3.7h10.54v3.7h-3.19v18.07h-4.18V36.69ZM137.36 32.99v21.77h-4.18V32.99h4.18ZM150.95 38.81v10.1c0 4.32-2.03 6.17-5.84 6.17s-5.47-1.9-5.47-6.13V38.7c0-4.2 2.31-6.04 5.66-6.04s5.64 1.8 5.64 6.15Zm-7.07-.47v11.13c0 1.34.46 2.05 1.4 2.05s1.42-.64 1.42-2.07V38.31c0-1.36-.38-2.06-1.43-2.06-.89 0-1.39.64-1.39 2.09ZM153.2 54.76V32.99h4.63c.69 2.66 2.87 12.52 3.04 13.47h.1c-.23-2.9-.38-6.86-.38-9.9v-3.58h3.89v21.77h-4.68c-.45-2.07-2.83-13.34-2.97-14.03h-.11c.16 2.56.29 6.89.29 10.31v3.72h-3.82ZM170.46 48.05v1.51c0 1.43.36 2.1 1.31 2.1s1.19-.99 1.19-2.01c0-2.05-.39-2.65-2.61-4.51-2.45-2.08-3.71-3.31-3.71-6.51s1.03-5.98 5.15-5.98c4.38 0 5.03 2.99 5.03 5.48v1.25h-3.95v-1.3c0-1.32-.22-1.97-1.04-1.97-.77 0-1.02.66-1.02 1.9 0 1.31.24 1.96 2.04 3.36 3.2 2.52 4.35 3.93 4.35 7.51s-1.16 6.22-5.49 6.22-5.34-2.5-5.34-5.73v-1.31h4.1Z"/></g><g fill="#f38ba3"><path d="M71.91 61.31h9.03v3.7H76.1v4.96h4.56v3.7H76.1v9.4h-4.19V61.3ZM86.75 61.31v16.58c0 1.27.39 1.95 1.34 1.95 1.01 0 1.32-.77 1.32-1.95V61.31h4.24v16.31c0 3.86-1.77 5.77-5.62 5.77s-5.49-1.84-5.49-5.8V61.32h4.21ZM96.15 83.08V61.31h4.63c.69 2.66 2.87 12.52 3.04 13.47h.1c-.23-2.9-.38-6.86-.38-9.9V61.3h3.89v21.77h-4.68c-.45-2.07-2.83-13.34-2.97-14.03h-.11c.16 2.56.29 6.89.29 10.31v3.72h-3.82ZM120.48 75.98v1.18c0 2.75-.51 6.25-5.5 6.25-3.69 0-5.29-1.96-5.29-5.97V66.76c0-3.79 1.89-5.78 5.38-5.78 4.6 0 5.34 3.03 5.34 5.88v1.37h-4.21v-1.86c0-1.2-.26-1.81-1.13-1.81s-1.14.57-1.14 1.81v11.51c0 1.16.19 1.96 1.14 1.96s1.17-.67 1.17-2.05v-1.81h4.24ZM124.32 65.02h-3.17v-3.7h10.54v3.7h-3.19v18.07h-4.18V65.02ZM137.36 61.31v21.77h-4.18V61.31h4.18ZM150.95 67.14v10.1c0 4.32-2.03 6.17-5.84 6.17s-5.47-1.9-5.47-6.13V67.03c0-4.2 2.31-6.04 5.66-6.04s5.64 1.8 5.64 6.15Zm-7.07-.47V77.8c0 1.34.46 2.05 1.4 2.05s1.42-.64 1.42-2.07V66.64c0-1.36-.38-2.06-1.43-2.06-.89 0-1.39.64-1.39 2.09ZM153.2 83.08V61.31h4.63c.69 2.66 2.87 12.52 3.04 13.47h.1c-.23-2.9-.38-6.86-.38-9.9V61.3h3.89v21.77h-4.68c-.45-2.07-2.83-13.34-2.97-14.03h-.11c.16 2.56.29 6.89.29 10.31v3.72h-3.82ZM170.46 76.37v1.51c0 1.43.36 2.1 1.31 2.1s1.19-.99 1.19-2.01c0-2.05-.39-2.65-2.61-4.51-2.45-2.08-3.71-3.31-3.71-6.51s1.03-5.98 5.15-5.98c4.38 0 5.03 2.99 5.03 5.48v1.25h-3.95v-1.3c0-1.32-.22-1.97-1.04-1.97-.77 0-1.02.66-1.02 1.9 0 1.31.24 1.96 2.04 3.36 3.2 2.52 4.35 3.93 4.35 7.51s-1.16 6.22-5.49 6.22-5.34-2.5-5.34-5.73v-1.31h4.1Z"/></g><g fill="#0ba65b"><path d="M71.91 89.64h9.03v3.7H76.1v4.96h4.56v3.7H76.1v9.4h-4.19V89.63ZM86.75 89.64v16.58c0 1.27.39 1.95 1.34 1.95 1.01 0 1.32-.77 1.32-1.95V89.64h4.24v16.31c0 3.86-1.77 5.77-5.62 5.77s-5.49-1.84-5.49-5.8V89.65h4.21ZM96.15 111.41V89.64h4.63c.69 2.66 2.87 12.52 3.04 13.47h.1c-.23-2.9-.38-6.86-.38-9.9v-3.58h3.89v21.77h-4.68c-.45-2.07-2.83-13.34-2.97-14.03h-.11c.16 2.56.29 6.89.29 10.31v3.72h-3.82ZM120.48 104.3v1.18c0 2.75-.51 6.25-5.5 6.25-3.69 0-5.29-1.96-5.29-5.97V95.08c0-3.79 1.89-5.78 5.38-5.78 4.6 0 5.34 3.03 5.34 5.88v1.37h-4.21v-1.86c0-1.2-.26-1.81-1.13-1.81s-1.14.57-1.14 1.81v11.51c0 1.16.19 1.96 1.14 1.96s1.17-.67 1.17-2.05v-1.81h4.24ZM124.32 93.34h-3.17v-3.7h10.54v3.7h-3.19v18.07h-4.18V93.34ZM137.36 89.64v21.77h-4.18V89.64h4.18ZM150.95 95.46v10.1c0 4.32-2.03 6.17-5.84 6.17s-5.47-1.9-5.47-6.13V95.35c0-4.2 2.31-6.04 5.66-6.04s5.64 1.8 5.64 6.15Zm-7.07-.47v11.13c0 1.34.46 2.05 1.4 2.05s1.42-.64 1.42-2.07V94.96c0-1.36-.38-2.06-1.43-2.06-.89 0-1.39.64-1.39 2.09ZM153.2 111.41V89.64h4.63c.69 2.66 2.87 12.52 3.04 13.47h.1c-.23-2.9-.38-6.86-.38-9.9v-3.58h3.89v21.77h-4.68c-.45-2.07-2.83-13.34-2.97-14.03h-.11c.16 2.56.29 6.89.29 10.31v3.72h-3.82ZM170.46 104.7v1.51c0 1.43.36 2.1 1.31 2.1s1.19-.99 1.19-2.01c0-2.05-.39-2.65-2.61-4.51-2.45-2.08-3.71-3.31-3.71-6.51s1.03-5.98 5.15-5.98c4.38 0 5.03 2.99 5.03 5.48v1.25h-3.95v-1.3c0-1.32-.22-1.97-1.04-1.97-.77 0-1.02.66-1.02 1.9 0 1.31.24 1.96 2.04 3.36 3.2 2.52 4.35 3.93 4.35 7.51s-1.16 6.22-5.49 6.22-5.34-2.5-5.34-5.73v-1.31h4.1Z"/></g><g fill="#12b2e2"><path d="M71.91 117.96h9.03v3.7H76.1v4.96h4.56v3.7H76.1v9.4h-4.19v-21.77ZM86.75 117.96v16.58c0 1.27.39 1.95 1.34 1.95 1.01 0 1.32-.77 1.32-1.95v-16.58h4.24v16.31c0 3.86-1.77 5.77-5.62 5.77s-5.49-1.84-5.49-5.8v-16.27h4.21ZM96.15 139.73v-21.77h4.63c.69 2.66 2.87 12.52 3.04 13.47h.1c-.23-2.9-.38-6.86-.38-9.9v-3.58h3.89v21.77h-4.68c-.45-2.07-2.83-13.34-2.97-14.03h-.11c.16 2.56.29 6.89.29 10.31v3.72h-3.82ZM120.48 132.63v1.18c0 2.75-.51 6.25-5.5 6.25-3.69 0-5.29-1.96-5.29-5.97v-10.68c0-3.79 1.89-5.78 5.38-5.78 4.6 0 5.34 3.03 5.34 5.88v1.37h-4.21v-1.86c0-1.2-.26-1.81-1.13-1.81s-1.14.57-1.14 1.81v11.51c0 1.16.19 1.96 1.14 1.96s1.17-.67 1.17-2.05v-1.81h4.24ZM124.32 121.67h-3.17v-3.7h10.54v3.7h-3.19v18.07h-4.18v-18.07ZM137.36 117.96v21.77h-4.18v-21.77h4.18ZM150.95 123.79v10.1c0 4.32-2.03 6.17-5.84 6.17s-5.47-1.9-5.47-6.13v-10.25c0-4.2 2.31-6.04 5.66-6.04s5.64 1.8 5.64 6.15Zm-7.07-.47v11.13c0 1.34.46 2.05 1.4 2.05s1.42-.64 1.42-2.07v-11.14c0-1.36-.38-2.06-1.43-2.06-.89 0-1.39.64-1.39 2.09ZM153.2 139.73v-21.77h4.63c.69 2.66 2.87 12.52 3.04 13.47h.1c-.23-2.9-.38-6.86-.38-9.9v-3.58h3.89v21.77h-4.68c-.45-2.07-2.83-13.34-2.97-14.03h-.11c.16 2.56.29 6.89.29 10.31v3.72h-3.82ZM170.46 133.02v1.51c0 1.43.36 2.1 1.31 2.1s1.19-.99 1.19-2.01c0-2.05-.39-2.65-2.61-4.51-2.45-2.08-3.71-3.31-3.71-6.51s1.03-5.98 5.15-5.98c4.38 0 5.03 2.99 5.03 5.48v1.25h-3.95v-1.3c0-1.32-.22-1.97-1.04-1.97-.77 0-1.02.66-1.02 1.9 0 1.31.24 1.96 2.04 3.36 3.2 2.52 4.35 3.93 4.35 7.51s-1.16 6.22-5.49 6.22-5.34-2.5-5.34-5.73v-1.31h4.1Z"/></g></g></g></svg>