<?xml version="1.0" encoding="UTF-8"?><svg id="a" xmlns="http://www.w3.org/2000/svg" viewBox="0 0 62 86"><path d="M18.36,84.99c-1.83,0-3.66-.29-5.42-.85-4.93-1.57-7.25-4.45-8.33-6.58-1.49-2.96-2.38-7.89,1.87-14.55,1.04-1.63,1.95-3,2.78-4.24,2.51-3.76,3.88-5.82,5.86-10.67,1.27-3.11,1.73-6.8,2.22-10.71,.6-4.8,1.28-10.23,3.67-15.32,1.59-3.38,3.6-5.86,6.15-7.59,2.03-1.37,4.44-2.24,7.03-2.55l.05-2.53c.06-3.05,2.18-5.6,5.16-6.22,9.81-2.03,14.03,3.47,15.39,5.93,1.39,2.51,2.4,6.37,.53,11.53,1.41,1.68,2.62,3.59,3.62,5.69h0c5.83,12.26-5.28,33.65-15.19,43.75-10.25,10.45-17.84,14.91-25.39,14.91Z" fill="#231f20" stroke="#231f20" stroke-linejoin="round"/><path d="M16.43,83.26c-1.83,0-3.66-.29-5.42-.85-4.93-1.57-7.25-4.45-8.33-6.58-1.49-2.96-2.38-7.89,1.87-14.55,1.04-1.63,1.95-3,2.78-4.24,2.51-3.76,3.88-5.82,5.86-10.67,1.27-3.11,1.73-6.8,2.22-10.71,.6-4.8,1.28-10.23,3.67-15.32,1.59-3.38,3.6-5.86,6.15-7.59,2.03-1.37,4.44-2.24,7.03-2.55l.05-2.53c.06-3.05,2.18-5.6,5.16-6.22,9.81-2.03,14.03,3.47,15.39,5.93,1.39,2.51,2.4,6.37,.53,11.53,1.41,1.68,2.62,3.59,3.62,5.69h0c5.83,12.26-5.28,33.65-15.19,43.75-10.25,10.45-17.84,14.91-25.39,14.91Z" fill="#f9f4da" stroke="#231f20" stroke-linejoin="round"/><g><path d="M51.16,27.38c-3.92-8.25-10.82-9.9-13.72-10.53-2.9-.63-6.12-.41-8.58,1.26-1.77,1.2-3.01,3.05-3.92,4.99-3.75,7.98-2.42,17.56-5.76,25.73-2.94,7.21-4.99,9.38-9.17,15.94-1.56,2.45-2.85,5.57-1.54,8.16,.86,1.71,2.68,2.74,4.51,3.33,7.14,2.28,14.82-2.85,24.22-12.43,9.6-9.79,17.88-28.2,13.96-36.44Z" fill="#0ba95b" stroke="#231f20" stroke-linejoin="round"/><ellipse cx="41.15" cy="23.25" rx="3.21" ry="8.48" transform="translate(.44 47.26) rotate(-60)" fill="#0ba95b" stroke="#231f20" stroke-linejoin="round"/><path d="M47.19,10.51c-1.78-3.22-5.35-3.35-8.41-2.72-.02,.95-.04,1.9-.05,2.84,1.84-.53,3.91-.74,5.14,.39,3.74,3.44-3.68,11.74-3.68,11.74l2.25,1.45s7.87-8.09,4.76-13.72Z" fill="#0ba95b" stroke="#231f20" stroke-linejoin="round"/></g></svg>