<svg xmlns="http://www.w3.org/2000/svg" id="a" viewBox="0 0 366 222"><path fill="#231f20" stroke="#231f20" stroke-linejoin="round" d="M361 111.76c-3.98-5.09-10.71-5.68-15.43-5.68-4.06 0-8.99.44-13.04 2.98-2.27-1.44-5.49-2.55-10.01-2.55h-46.29l-.34 1.54c-2.98-1.21-6.16-1.5-8.79-1.54l.3-1.47c.13-.66.65-2.94 2.52-10.66l4.98.11 1.32-6.09c.24-1.12.7-3.1 1.15-4.77l.02-.09.02-.09c.48-1.98.93-3.69 1.21-4.69l2.73-9.56H127.97l4.61-30.11a7.99 7.99 0 0 0 2.15-5.45V22.22c0-4.41-3.59-8-8-8H96.5V12.5c0-4.41-3.59-8-8-8H68.66c-4.41 0-8 3.59-8 8v1.72H30.42c-4.41 0-8 3.59-8 8v11.42c0 2.1.82 4.02 2.15 5.45l1.22 8c-11.19 0-20.29 9.1-20.29 20.29v36.83c0 12.57 11.64 17.37 17.24 19.68l15.8 6.52 2.35 15.38-14.69 18.09a7.977 7.977 0 0 0-1.79 5.04v38.97c0 3.7 2.52 6.82 5.93 7.73a8.011 8.011 0 0 0 7.2 4.51h12.18c3.05 0 5.71-1.72 7.06-4.24h44.4c1.35 2.52 4.01 4.24 7.06 4.24h12.18c3.3 0 6.14-2.01 7.36-4.87 2.87-1.22 4.89-4.06 4.89-7.37v-38.97c0-1.85-.64-3.65-1.81-5.07l-12.05-14.84a12.056 12.056 0 0 0 7.49 1.42l27.61-3.62-.4 1.49h181.04v-.18c1.43.35 3.01.53 4.76.53 9.96 0 13.16-5.41 14.18-8.5h.12l.08-.66a11.739 11.739 0 0 0 .38-3.09l.18-1.48c3.65-1.81 7.31-4.6 8.77-10.45 1.27-5.1.58-9.37-2.04-12.72Z"/><path fill="#f9f4da" stroke="#231f20" stroke-linejoin="round" d="M356 107.76c-3.98-5.09-10.71-5.68-15.43-5.68-4.06 0-8.99.44-13.04 2.98-2.27-1.44-5.49-2.55-10.01-2.55h-46.29l-.34 1.54c-2.98-1.21-6.16-1.5-8.79-1.54l.3-1.47c.13-.66.65-2.94 2.52-10.66l4.98.11 1.32-6.09c.24-1.12.7-3.1 1.15-4.77l.02-.09.02-.09c.48-1.98.93-3.69 1.21-4.69l2.73-9.56H122.97l4.61-30.11a7.99 7.99 0 0 0 2.15-5.45V18.22c0-4.41-3.59-8-8-8H91.5V8.5c0-4.41-3.59-8-8-8H63.66c-4.41 0-8 3.59-8 8v1.72H25.42c-4.41 0-8 3.59-8 8v11.42c0 2.1.82 4.02 2.15 5.45l1.22 8C9.6 43.09.5 52.19.5 63.38v36.83c0 12.57 11.64 17.37 17.24 19.68l15.8 6.52 2.35 15.38-14.69 18.09a7.977 7.977 0 0 0-1.79 5.04v38.97c0 3.7 2.52 6.82 5.93 7.73a8.011 8.011 0 0 0 7.2 4.51h12.18c3.05 0 5.71-1.72 7.06-4.24h44.4c1.35 2.52 4.01 4.24 7.06 4.24h12.18c3.3 0 6.14-2.01 7.36-4.87 2.87-1.22 4.89-4.06 4.89-7.37v-38.97c0-1.85-.64-3.65-1.81-5.07l-12.05-14.84a12.056 12.056 0 0 0 7.49 1.42l27.61-3.62-.4 1.49h181.04v-.18c1.43.35 3.01.53 4.76.53 9.96 0 13.16-5.41 14.18-8.5h.12l.08-.66a11.739 11.739 0 0 0 .38-3.09l.18-1.48c3.65-1.81 7.31-4.6 8.77-10.45 1.27-5.1.58-9.37-2.04-12.72Z"/><g><g fill="#7b5ea7"><path d="M167.77 72.71c-3 6.54-9.9 23.37-11.29 26.8-1.47 0-3.68-.07-6.15-.07-3.5 0-5.79.04-6.72.07.21-1.72.75-5.79 1.29-9.86.32-2 .68-4.36 1.04-6.54h-.21c-.75 2.25-1.54 4.68-2.29 6.61-1.5 3.93-3.07 7.97-3.75 9.79-1.32 0-3.79-.07-6.33-.07-3.18 0-5.11.04-6 .07.32-3.93 1.82-20.3 2-26.8h10.61c-.36 1.75-1.5 8.58-2.14 13.33-.18 1.32-.39 2.82-.54 4.11h.21c.46-1.32 1-2.82 1.54-4.18 1.82-4.79 4.15-11.04 4.79-13.26 1.36 0 4.18.07 5.75.07s4.25-.07 5.58-.07c-.39 1.97-1.54 8.54-2.14 13.33-.14 1.43-.36 2.93-.5 4.18h.18c.46-1.29 1-2.79 1.54-4.18 1.82-4.86 4.04-11.08 4.75-13.33h8.79ZM162.63 99.51c1.07-3.82 2.04-7.72 3.43-13.4 1.43-5.68 2.43-9.58 3.25-13.4h11.4c-1.04 3.79-2 7.68-3.39 13.37-1.43 5.68-2.39 9.58-3.29 13.44h-11.4ZM195.36 72.71c-.54 1.93-2.04 7.65-3.5 13.44-.29 1.14-.57 2.29-.82 3.4 1.89 0 4.18-.04 6.4-.11-.43 1.64-.89 3.36-1.29 5-.43 1.72-.86 3.4-1.25 5.07h-17.87c.57-2.11 2.07-7.68 3.47-13.4 1.5-5.9 2.72-10.83 3.22-13.4h11.65ZM215.05 72.71c-.54 1.93-2.04 7.65-3.5 13.44-.29 1.14-.57 2.29-.82 3.4 1.89 0 4.18-.04 6.4-.11-.43 1.64-.89 3.36-1.29 5-.43 1.72-.86 3.4-1.25 5.07h-17.87c.57-2.11 2.07-7.68 3.47-13.4 1.5-5.9 2.72-10.83 3.22-13.4h11.65ZM224.96 99.51c1.07-3.82 2.04-7.72 3.43-13.4 1.43-5.68 2.43-9.58 3.25-13.4h11.4c-1.04 3.79-2 7.68-3.39 13.37-1.43 5.68-2.39 9.58-3.29 13.44h-11.4ZM266.41 72.71c-.36 1.25-.86 3.22-1.29 4.97-.46 1.72-.96 3.82-1.25 5.18-1.64-.04-3.25-.07-4.82-.07-1.89 7.75-3.65 15.01-4 16.76-1.57-.11-4.18-.11-6.04-.11s-4.4 0-6.04.11c.54-1.75 2.39-9.01 4.32-16.76-1.57.04-3.22.04-4.86.07.39-1.36.89-3.47 1.36-5.18.43-1.75.93-3.72 1.18-4.97h21.44ZM180.64 110.01c6.47 0 9.72 3.04 8.25 9.08-1.07 4.32-3.36 6-8.08 6.54l-.07.25c3.68.5 4.93 1.72 4.68 5.47-.04 1.75-.25 4.18-.25 5.47h-9.11c-1.57 0-1.89-.57-1.75-2.86.5-4.72.32-5.65-1.57-5.65-.71 0-1 0-1.68.04-.79 3.39-1.39 6.4-1.68 8.47H158.3c1.04-3.86 2.04-7.68 3.47-13.4 1.43-5.68 2.36-9.54 3.22-13.4h15.65Zm-2.57 9.9c.68-2.79-.11-3.57-2-3.57-.43 0-1.32.04-2.18.07-.5 2.11-1.04 4.25-1.54 6.29.71.04 1.61.04 2.64.04 1.64 0 2.54-.82 3.07-2.82ZM215.62 110.01c-.25.86-.64 2.36-.96 3.57-.32 1.29-.71 2.89-.89 3.79-3.72-.07-7.68-.07-10.79-.07l-.64 2.64c3.65 0 7.47-.04 10.54-.14-.39 1.5-1.22 4.68-1.61 6.36-2.97-.11-6.83-.18-10.44-.18l-.68 2.75c3.18 0 7.4-.04 10.83-.07-.32 1.04-.75 2.72-1.07 4.15-.36 1.36-.75 2.93-.96 4h-21.87c1.04-3.75 2.07-7.68 3.47-13.4 1.43-5.68 2.39-9.72 3.22-13.4h21.87ZM245.04 110.01c-.68 2.32-2.07 7.68-3.47 13.37-1.5 5.97-2.54 10.04-3.25 13.44h-11.33c-.36-2.18-1.25-5.32-2.04-8.22-.29-1.82-.5-3.68-.57-5.54l-.14.04c-.39 2.25-.82 4.25-1.29 6.36-.86 3.72-1.5 6.25-1.68 7.36h-9.58c.93-3.65 2-7.68 3.4-13.4 1.43-5.68 2.47-9.72 3.29-13.4h12.08c.07 1.5 1.11 5.86 1.68 9.15.21 1.36.39 2.9.46 4.54l.14-.07c.36-1.89.71-3.68 1.04-5.11.75-3.15 1.5-6.5 1.86-8.51h9.4ZM261.44 110.01c8.93 0 12.76 3.22 9.97 14.4-2.5 9.97-6.54 12.4-15.51 12.4h-14.58c1.04-3.79 2-7.68 3.43-13.37s2.43-9.79 3.25-13.44h13.44Zm-2.39 7.08c-.64 0-1.29.04-1.93.07-.54 1.97-1.04 4.04-1.57 6.15-.57 2.29-1 4.04-1.36 5.5.61.04 1.21.04 1.86.04 2.32 0 3.5-.79 4.65-5.32 1.36-5.47.46-6.43-1.64-6.43ZM299.11 110.01c-.25.86-.64 2.36-.96 3.57-.32 1.29-.71 2.89-.89 3.79-3.72-.07-7.68-.07-10.79-.07l-.64 2.64c3.65 0 7.47-.04 10.54-.14-.39 1.5-1.21 4.68-1.61 6.36-2.97-.11-6.83-.18-10.44-.18l-.68 2.75c3.18 0 7.4-.04 10.83-.07-.32 1.04-.75 2.72-1.07 4.15-.36 1.36-.75 2.93-.96 4h-21.87c1.04-3.75 2.07-7.68 3.47-13.4 1.43-5.68 2.39-9.72 3.22-13.4h21.87ZM317.52 110.01c6.47 0 9.72 3.04 8.25 9.08-1.07 4.32-3.36 6-8.08 6.54l-.07.25c3.68.5 4.93 1.72 4.68 5.47-.04 1.75-.25 4.18-.25 5.47h-9.11c-1.57 0-1.89-.57-1.75-2.86.5-4.72.32-5.65-1.57-5.65-.71 0-1 0-1.68.04-.79 3.39-1.39 6.4-1.68 8.47h-11.08c1.04-3.86 2.04-7.68 3.47-13.4 1.43-5.68 2.36-9.54 3.22-13.4h15.65Zm-2.57 9.9c.68-2.79-.11-3.57-2-3.57-.43 0-1.32.04-2.18.07-.5 2.11-1.04 4.25-1.54 6.29.71.04 1.61.04 2.64.04 1.64 0 2.54-.82 3.07-2.82ZM340.57 109.58c8.43 0 11.79 2.61 10.19 9.08-.79 3.14-2.5 4.54-5.79 6-1.86.86-2.54 1.82-2.79 2.82-.07.29-.11.43-.14.71-1.54-.11-3.86-.14-5.68-.14-2.18 0-3.82.07-5.75.21.04-.43.14-.79.25-1.18.86-3.43 2.36-4.9 5.75-5.97 2.89-.86 3.65-2 4-3.43.29-1.07-.07-1.82-1.5-1.82-1.54 0-2.29 1.11-2.72 2.89-.11.36-.21.79-.29 1.25-.79-.04-2.11-.04-3.5-.04-1.82 0-4.07.07-5.4.21.14-1.07.36-2.07.61-3 1.25-5.07 4.15-7.61 12.76-7.61Zm.89 23.94c-.61 2.47-3 3.65-7.15 3.65-4.47 0-6.4-1.43-5.72-4.25.64-2.47 3-3.57 7.11-3.57 4.47 0 6.43 1.36 5.75 4.18Z"/></g><g fill="#12b2e2" stroke="#231f20" stroke-linecap="round" stroke-linejoin="round"><path d="M32.54 203.89h12.18v4.24H32.54zM103.24 203.89h12.18v4.24h-12.18z"/></g><path fill="#12b2e2" stroke="#231f20" stroke-linecap="round" stroke-linejoin="round" d="M103.29 144.74H43.8l-16.39 20.18v38.97h92.27v-38.97l-16.39-20.18z"/><path fill="#12b2e2" stroke="#231f20" stroke-linecap="round" stroke-linejoin="round" d="M100.51 149.04H46.57l-14.86 18.29v7.15h83.66v-7.15l-14.86-18.29z"/><path fill="#f9b728" stroke="#231f20" stroke-linecap="round" stroke-linejoin="round" d="M20.79 59.55h21.85c2.07 0 3.83 1.75 3.83 3.83v45.85c0 1.66-1.12 3.11-2.63 3.63l-19.82-8.18c-4.95-2.04-7.06-3.38-7.06-4.47V63.38c0-2.08 1.75-3.83 3.83-3.83m0-8.46c-6.76 0-12.29 5.53-12.29 12.29v36.83c0 6.76 6.02 9.7 12.29 12.29s21.85 9.02 21.85 9.02c6.76 0 12.29-5.53 12.29-12.29V63.38c0-6.76-5.53-12.29-12.29-12.29H20.79Z"/><path fill="#f9f4da" stroke="#231f20" stroke-linejoin="round" d="m26.83 29.7 17.6 115.04h58.28l17.6-115.04H26.83z"/><path fill="#f97428" stroke="#231f20" stroke-linejoin="round" d="m29.91 29.65 1.56 10.79h84.45l1.74-10.74-87.75-.05"/><path fill="#f9b728" stroke="#231f20" stroke-linecap="round" stroke-linejoin="round" d="M63.65 8.5h19.84v15.21H63.65z"/><path fill="#f9b728" stroke="#231f20" stroke-linecap="round" stroke-linejoin="round" d="M25.42 18.22h96.31v11.42H25.42z"/><path fill="#f9f4da" stroke="#231f20" stroke-linejoin="round" d="M57.38 139.52h32.38v5.22H57.38z"/><g fill="#f9f4da" stroke="#231f20" stroke-linejoin="round"><path d="m67.9 139.52 5.26-6.7 6.02 6.7H67.9z"/><path d="m65.39 139.52-13.36-8.41 21.13 8.41h-7.77M81.76 139.52l13.35-8.41-21.13 8.41h7.78"/></g><circle cx="73.98" cy="159.91" r="6.22" fill="#f9f4da" stroke="#231f20" stroke-linejoin="round"/><circle cx="55.39" cy="159.91" r="6.22" fill="#f9f4da" stroke="#231f20" stroke-linejoin="round"/><circle cx="92.57" cy="159.91" r="6.22" fill="#f9f4da" stroke="#231f20" stroke-linejoin="round"/><g><rect width="45.91" height="29.36" x="113.97" y="106.83" fill="#f9f4da" stroke="#ed203d" stroke-miterlimit="10" rx="4.22" ry="4.22" transform="rotate(-7.46 136.954 121.534)"/><g fill="#ed203d"><path d="M133.09 122.34c.19.08.39.26.6.52.03.04.06.07.08.09l2 2.41h.11l.2-.04c.39-.05.7 0 .92.16.22.16.36.42.41.78.05.4 0 .7-.19.9-.18.2-.5.33-.96.39l-1.25.16c-.46.06-.85-.09-1.16-.46l-.03-.02-3-3.51c-.11-.14-.24-.24-.37-.3a.81.81 0 0 0-.4-.07l-.96.13.35 2.68.16-.02c.37-.05.66 0 .87.17.21.16.34.42.39.78.05.4 0 .7-.18.9-.17.2-.49.33-.95.39l-2.62.34c-.46.06-.79.01-1.01-.14-.22-.15-.36-.43-.41-.83-.05-.36.01-.65.17-.86s.42-.34.78-.39l.17-.02-.99-7.59-.17.02c-.35.05-.64-.01-.85-.18-.22-.17-.35-.43-.39-.79-.05-.39.01-.69.19-.9.18-.21.49-.34.94-.4l4.69-.61c1.44-.19 2.56-.05 3.38.41.81.46 1.29 1.24 1.43 2.33.1.76-.02 1.44-.36 2.05-.34.61-.87 1.1-1.6 1.46Zm-4.75-3.79.38 2.88 1.37-.18c.85-.11 1.43-.3 1.74-.56.31-.27.43-.66.36-1.17-.07-.51-.27-.86-.61-1.04-.34-.19-.85-.24-1.53-.15l-1.71.22ZM145.4 116.28l-4.73.62.34 2.61 1.79-.23-.02-.12c-.05-.39 0-.69.14-.9.14-.21.39-.34.74-.39.3-.04.57.01.78.16.22.15.34.35.38.62 0 .01.01.06.03.13.02.07.03.15.04.22l.28 2.1c.06.46.02.79-.12 1.01-.14.22-.39.35-.76.4-.35.05-.62-.01-.82-.17-.2-.16-.32-.42-.37-.78l-.02-.18-1.79.23.4 3.04 4.73-.62-.16-1.21c-.06-.45-.01-.79.13-1.01.15-.22.42-.36.81-.41.39-.05.68 0 .87.18.19.17.32.49.38.95l.32 2.46c.05.37 0 .62-.12.76-.13.14-.4.24-.82.29l-8.33 1.09c-.45.06-.78.01-1-.14-.22-.15-.35-.43-.4-.83-.05-.36 0-.65.17-.86.16-.21.42-.34.77-.39l.17-.02-.99-7.59-.17.02c-.35.04-.62-.02-.84-.18-.21-.17-.34-.43-.39-.79-.05-.39 0-.69.18-.9.17-.21.48-.34.92-.4l8.33-1.09c.41-.05.7-.03.86.08.16.11.27.35.32.72l.3 2.28c.06.46.02.8-.12 1.03s-.41.36-.78.41c-.39.05-.69-.01-.89-.2-.2-.18-.33-.5-.39-.95l-.14-1.07Z"/></g></g><g><ellipse cx="73.98" cy="103.66" fill="none" stroke="#231f20" stroke-linecap="round" stroke-linejoin="round" rx="24.24" ry="9.22"/><ellipse cx="73.98" cy="103.66" fill="none" stroke="#231f20" stroke-linecap="round" stroke-linejoin="round" rx="9.22" ry="24.24" transform="rotate(-30 73.983 103.664)"/><ellipse cx="73.98" cy="103.66" fill="none" stroke="#231f20" stroke-linecap="round" stroke-linejoin="round" rx="24.24" ry="9.22" transform="rotate(-60 73.982 103.659)"/><circle cx="73.98" cy="103.66" r="3.43" fill="#231f20"/></g></g></svg>