<?xml version="1.0" encoding="UTF-8"?><svg id="a" xmlns="http://www.w3.org/2000/svg" viewBox="0 0 78 76"><path d="M39.81,74.75c-3.4,0-6.49-1.86-8.08-4.86L3.91,17.3c-1.51-2.86-1.42-6.22,.25-8.99,1.67-2.77,4.59-4.42,7.83-4.42h55.65c3.23,0,6.16,1.65,7.83,4.42,1.67,2.77,1.76,6.13,.25,8.99l-27.83,52.59c-1.59,3-4.68,4.86-8.08,4.86Z" fill="#231f20" stroke="#231f20" stroke-linejoin="round"/><path d="M38.19,72.11c-3.4,0-6.49-1.86-8.08-4.86L2.29,14.66c-1.51-2.86-1.42-6.22,.25-8.99C4.21,2.9,7.13,1.25,10.37,1.25h55.65c3.23,0,6.16,1.65,7.83,4.42,1.67,2.77,1.76,6.13,.25,8.99l-27.83,52.59c-1.59,3-4.68,4.86-8.08,4.86Z" fill="#f9f4da" stroke="#231f20" stroke-linejoin="round"/><path d="M10.37,7.72h55.65c2.01,0,3.3,2.14,2.36,3.91l-27.83,52.59c-1,1.89-3.71,1.89-4.71,0L8.01,11.63c-.94-1.78,.35-3.91,2.36-3.91Z" fill="#fcba28" stroke="#231f20" stroke-linejoin="round"/><path d="M47.06,20.8c.63,0,.63-.98,0-.98s-.63,.98,0,.98h0Z" fill="#231f20"/><path d="M32.18,38.56c.63,0,.63-.98,0-.98s-.63,.98,0,.98h0Z" fill="#231f20"/><path d="M42.75,33.92c.63,0,.63-.98,0-.98s-.63,.98,0,.98h0Z" fill="#231f20"/><path d="M43.14,45.37c.63,0,.63-.98,0-.98s-.63,.98,0,.98h0Z" fill="#231f20"/><path d="M41.15,56.09c.63,0,.63-.98,0-.98s-.63,.98,0,.98h0Z" fill="#231f20"/><path d="M19.19,21.24c.63,0,.63-.98,0-.98s-.63,.98,0,.98h0Z" fill="#231f20"/><path d="M38.19,24.79c.63,0,.63-.98,0-.98s-.63,.98,0,.98h0Z" fill="#231f20"/><path d="M28.3,15.01c.63,0,.63-.98,0-.98s-.63,.98,0,.98h0Z" fill="#231f20"/><path d="M45.53,10.99c.63,0,.63-.98,0-.98s-.63,.98,0,.98h0Z" fill="#231f20"/><path d="M61.85,16.78c.63,0,.63-.98,0-.98s-.63,.98,0,.98h0Z" fill="#231f20"/><path d="M58.65,20.8c.63,0,.63-.98,0-.98s-.63,.98,0,.98h0Z" fill="#231f20"/><path d="M52.13,32.34c.63,0,.63-.98,0-.98s-.63,.98,0,.98h0Z" fill="#231f20"/><path d="M32.91,52.87c.63,0,.63-.98,0-.98s-.63,.98,0,.98h0Z" fill="#231f20"/><path d="M24.47,31.57c.63,0,.63-.98,0-.98s-.63,.98,0,.98h0Z" fill="#231f20"/><path d="M14.61,12.14c.63,0,.63-.98,0-.98s-.63,.98,0,.98h0Z" fill="#231f20"/></svg>