<?xml version="1.0" encoding="UTF-8"?><svg id="p" xmlns="http://www.w3.org/2000/svg" xmlns:xlink="http://www.w3.org/1999/xlink" viewBox="0 0 302 114"><defs><clipPath id="q"><rect x="102.92" y="41.3" width="97.61" height="63.22" fill="none"/></clipPath></defs><g><rect x="230.63" y="25.82" width="64.05" height="62.36" fill="#f9f4da" stroke="#231f20" stroke-linejoin="round"/><polygon points="300.54 29.76 300.54 84.19 294.68 88.18 294.68 25.82 300.54 29.76" fill="#f9b728" stroke="#231f20" stroke-linejoin="round"/></g><g><rect x="7.32" y="25.82" width="64.05" height="62.36" fill="#f9f4da" stroke="#231f20" stroke-linejoin="round"/><polygon points="1.46 29.76 1.46 84.19 7.32 88.18 7.32 25.82 1.46 29.76" fill="#f9b728" stroke="#231f20" stroke-linejoin="round"/></g><g><path d="M283.97,49.54c-.92-1.59-2.41-2.77-4.32-3.41-1.22-.41-2.6-.6-4.12-.57-.74-1.33-1.59-2.43-2.56-3.28-1.51-1.33-3.28-2.04-5.11-2.04s-3.6,.7-5.11,2.04c-.96,.85-1.82,1.95-2.56,3.28-1.52-.03-2.9,.17-4.12,.57-1.91,.64-3.4,1.82-4.32,3.41-.64,1.12-.97,2.36-.97,3.71,0,2.18,.91,4.57,2.63,6.92,.1,.14,.21,.28,.32,.42,.58,.75,1.47,1.21,2.41,1.25,.06,.85,.37,1.65,.9,2.32h0c.36,.46,.81,.82,1.31,1.08v4.16c0,1.08,.4,2.09,1.15,2.92,.83,.91,1.98,1.42,3.25,1.42h1.26c1.24,0,2.37-.48,3.2-1.37,.37,.3,.78,.55,1.22,.76,.78,.36,1.66,.56,2.61,.61,.05,0,.11,0,.16,0h1.99s.03,0,.04,0c1.33-.02,2.6-.49,3.67-1.35,.97-.78,1.68-1.78,2.11-2.96,.36-.98,.54-1.91,.54-2.76,0-.07,0-.13,0-.2,0,0,0,0,0,0-.04-.67-.17-1.25-.35-1.75,.19-.42,.32-.88,.37-1.37,.01-.12,.02-.23,.02-.35v-.89c0-.08,0-.16,0-.23,0,0,0,0,0,0,0-.01,0-.02,0-.04,.94-.05,1.84-.51,2.42-1.25,.11-.14,.22-.29,.32-.42,1.74-2.38,2.63-4.71,2.63-6.92,0-1.34-.33-2.59-.97-3.7Z" fill="#7b5ea7" stroke="#231f20" stroke-linecap="round" stroke-linejoin="round" stroke-width=".43"/><g opacity=".28"><path d="M272.45,62.63c-.07,.14-.12,.35-.12,.62,0,.12,.05,.21,.14,.3,.02,.02,.11,.08,.44,.2-.17-.17-.27-.41-.3-.71,0,0,0-.01,0-.02,0-.26-.05-.33-.05-.34,0,0-.02-.01-.02-.02-.05-.04-.07-.04-.09-.03Z" fill="none"/><path d="M272.14,67.1c0,.17,.04,.29,.11,.36,.03,.03,.05,.03,.05,.03,0,0,0,0,.02-.01,.09-.14,.14-.34,.14-.61,0-.12-.05-.21-.14-.3-.02-.02-.12-.09-.51-.23,.18,.17,.3,.42,.33,.74,0,0,0,.02,0,.02Z" fill="none"/></g><g><g><path d="M265.23,54.17c.88-.5,1.77-.94,2.65-1.33-.86-.4-1.71-.75-2.55-1.05-.37,.19-.74,.39-1.1,.6s-.73,.42-1.08,.64c-.18,.87-.33,1.78-.42,2.73,.79-.55,1.63-1.08,2.51-1.58Z" fill="#f8f3d9" stroke="#231f20" stroke-linecap="round" stroke-linejoin="round" stroke-width=".43"/><path d="M270.45,51.84c.59-.19,1.18-.36,1.75-.5-.19-.69-.41-1.34-.65-1.95-1.18,.29-2.41,.7-3.65,1.21,.85,.37,1.7,.78,2.55,1.24Z" fill="#f8f3d9" stroke="#231f20" stroke-linecap="round" stroke-linejoin="round" stroke-width=".43"/><path d="M259.29,58.58c.39-.39,.8-.77,1.24-1.14,.05-.96,.13-1.91,.26-2.82-1.07,.8-2.05,1.64-2.92,2.5,.37,.49,.78,.98,1.24,1.47h.19Z" fill="#f8f3d9" stroke="#231f20" stroke-linecap="round" stroke-linejoin="round" stroke-width=".43"/><path d="M262.55,58.58c.01-.96,.07-1.91,.17-2.83,.1-.94,.24-1.86,.42-2.73,.13-.61,.28-1.2,.44-1.77,.2-.69,.43-1.33,.69-1.94,.04-.1,.08-.19,.13-.29,1.02-2.26,2.32-3.55,3.55-3.54,1.23,.01,2.5,1.33,3.48,3.61,.04,.09,.08,.19,.12,.29,.25,.61,.46,1.26,.65,1.95,.16,.57,.29,1.16,.41,1.77,.81,.52,1.59,1.07,2.32,1.63-.15-1.33-.39-2.6-.7-3.78-.18-.69-.4-1.36-.63-1.98-.09-.24-.18-.47-.28-.69-1.33-3.11-3.23-4.83-5.34-4.85-.72,0-1.41,.18-2.07,.55-1.29,.73-2.45,2.15-3.37,4.19-.1,.22-.2,.45-.29,.69-.25,.62-.47,1.28-.67,1.97-.34,1.17-.6,2.44-.78,3.76-.13,.92-.21,1.86-.26,2.82-.02,.38-.03,.76-.03,1.14h2.05Z" fill="#f8f3d9" stroke="#231f20" stroke-linecap="round" stroke-linejoin="round" stroke-width=".43"/><path d="M256.41,58.58h2.7c-.46-.49-.87-.98-1.24-1.47-.06-.08-.12-.17-.19-.25-1.45-2.02-1.92-3.78-1.29-4.84,.63-1.06,2.4-1.5,4.86-1.21,.1,.01,.21,.03,.31,.04,.2-.69,.42-1.35,.67-1.97-.25-.04-.5-.08-.74-.11-2.22-.26-4.04-.01-5.33,.71-.66,.37-1.18,.87-1.55,1.49-1.07,1.82-.58,4.33,1.39,7.08,.13,.18,.26,.35,.39,.53Z" fill="#f8f3d9" stroke="#231f20" stroke-linecap="round" stroke-linejoin="round" stroke-width=".43"/><path d="M274.53,50.94c2.47-.24,4.23,.23,4.84,1.31,.61,1.07,.1,2.83-1.39,4.82-.06,.08-.13,.17-.19,.25-.33,.42-.7,.85-1.1,1.27h2.71c.08-.1,.15-.19,.22-.29,2.03-2.71,2.57-5.21,1.53-7.05-1.04-1.84-3.46-2.67-6.83-2.34-.24,.02-.49,.05-.74,.09,.24,.63,.45,1.29,.63,1.98,.1-.01,.21-.02,.31-.03Z" fill="#f8f3d9" stroke="#231f20" stroke-linecap="round" stroke-linejoin="round" stroke-width=".43"/></g><g><path d="M267.86,52.83s0,0,.01,0c.87,.41,1.75,.87,2.62,1.39,.82,.49,1.61,1,2.35,1.53,.04,.03,.09,.06,.13,.09,.77,.56,1.49,1.14,2.15,1.73,.37,.33,.71,.66,1.04,1h2.81l-1.18-1.27c-.85-.88-1.81-1.74-2.87-2.56-.73-.57-1.51-1.11-2.32-1.63-.35-.22-.71-.44-1.07-.66-.36-.21-.73-.42-1.09-.62-.85-.46-1.7-.87-2.55-1.24-1.23-.53-2.45-.96-3.62-1.28-.26,.6-.49,1.25-.69,1.94,.57,.15,1.15,.33,1.74,.53,.83,.29,1.69,.64,2.54,1.04Z" fill="#f8f3d9" stroke="#231f20" stroke-linecap="round" stroke-linejoin="round" stroke-width=".43"/><path d="M273.09,58.58h2.05c0-.33,0-.67-.01-1-.66-.59-1.38-1.17-2.15-1.73,0,.09,.02,.19,.02,.28,.06,.8,.09,1.61,.09,2.44Z" fill="#f8f3d9" stroke="#231f20" stroke-linecap="round" stroke-linejoin="round" stroke-width=".43"/></g></g><g><path d="M261.62,69.48v-7.03h-1.5c-.22-.02-.4-.11-.53-.28-.14-.17-.2-.37-.2-.59v-1.05c0-.22,.07-.41,.2-.59,.14-.17,.31-.27,.53-.28h6.53c.22,.02,.4,.11,.53,.28,.14,.17,.2,.37,.2,.59v1.05c0,.22-.07,.41-.2,.59-.14,.17-.31,.27-.53,.28h-1.5v7.03c0,.26-.1,.51-.31,.74-.21,.23-.48,.34-.82,.34h-1.26c-.34,0-.62-.11-.82-.34-.21-.23-.31-.47-.31-.74Z" fill="#f3eed4" stroke="#231f20" stroke-linecap="round" stroke-linejoin="round" stroke-width=".43"/><path d="M271.23,70.56c-.54-.03-1.02-.13-1.42-.32-.4-.18-.72-.45-.94-.78-.22-.34-.36-.8-.4-1.4v-.89c.05-.49,.3-.75,.74-.79h2c.44,.04,.68,.3,.74,.79,0,.24,.06,.41,.18,.53,.13,.11,.26,.11,.38,0,.12-.18,.19-.43,.2-.76,0-.18-.08-.33-.21-.45-.13-.13-.62-.31-1.47-.54-.85-.23-1.47-.52-1.87-.88-.39-.35-.61-.88-.64-1.58,0-.47,.1-1.02,.33-1.65,.23-.62,.59-1.14,1.1-1.55,.5-.41,1.06-.62,1.68-.63h1.97c.55,.03,1.03,.13,1.43,.32,.4,.18,.72,.45,.94,.78,.22,.34,.36,.81,.4,1.4v.89c-.05,.49-.3,.75-.74,.79h-2.04c-.45-.03-.69-.3-.74-.79,0-.29-.05-.46-.16-.53-.14-.11-.27-.11-.39,0-.11,.18-.16,.43-.17,.76,0,.18,.08,.33,.21,.45,.13,.13,.62,.31,1.47,.54,.85,.23,1.47,.52,1.87,.88,.39,.35,.61,.88,.66,1.58,0,.47-.11,1.02-.34,1.65-.23,.62-.59,1.14-1.1,1.55-.5,.41-1.06,.62-1.66,.63h-2Z" fill="#f3eed4" stroke="#231f20" stroke-linecap="round" stroke-linejoin="round" stroke-width=".43"/></g></g><g><path d="M50.71,50.32h0c-.11-1.53-.52-2.83-1.2-3.86-.72-1.09-1.71-1.92-2.95-2.49-1.03-.47-2.21-.74-3.5-.8-.06,0-.12,0-.18,0h-2.96s0,0,0,0h-.03s0,0,0,0c-1.56,.02-3.05,.52-4.35,1.43-.99-.94-2.25-1.43-3.69-1.43h-1.85c-1.55,0-2.91,.57-3.92,1.66,0,0,0,0,0,0l-.05,.05s0,0,0,0c-.23,.25-.43,.52-.6,.8l-2.67,3.72c-.72,.97-1.08,2.1-1.04,3.29v.72c-1.12,.33-2.06,1.03-2.68,2.03l-2.65,3.7c-.58,.74-.93,1.64-1.04,2.66-.01,.13-.02,.26-.02,.39v1.34c0,.09,0,.18,0,.27,.11,1.53,.52,2.83,1.2,3.86,.72,1.09,1.71,1.92,2.95,2.49,1.03,.47,2.2,.74,3.48,.8,.06,0,.12,0,.18,0h2.48c.07,0,.14,0,.21,0,1.95-.11,3.7-.82,5.06-2.04,.54,.5,1.17,.92,1.88,1.24,1.03,.47,2.2,.74,3.48,.8,.06,0,.12,0,.18,0h3s0,0,0,0h.03s0,0,0,0c1.72-.02,3.37-.63,4.76-1.75,.74-.6,1.37-1.3,1.89-2.1l2.57-3.59c.08-.1,.16-.21,.23-.33,.04-.05,.07-.11,.11-.16,.38-.58,.69-1.2,.93-1.86,.49-1.34,.74-2.59,.74-3.73,0-.08,0-.15,0-.23-.06-1.01-.28-1.93-.66-2.76,.37-.63,.6-1.35,.69-2.15,.01-.13,.02-.26,.02-.38v-1.34c0-.09,0-.18,0-.27Z" fill="#e7203d" stroke="#231f20" stroke-linecap="round" stroke-linejoin="round" stroke-width=".43"/><g><path d="M40.22,54.44c.29,0,.58,0,.85,.09,.41,.14,.71,.49,.98,.83,.33,.42,.65,.84,.95,1.28,.22,.32,.45,.67,.51,1.06,.1,.59-.19,1.18-.57,1.65-.65,.79-1.59,1.34-2.6,1.51-.34,.06-.69,.07-1.01-.03-.45-.14-.81-.48-1.1-.85-.53-.67-.92-1.44-1.21-2.25-.28-.78-.82-2.7,.18-3.24,.31-.16,.8-.03,1.13-.03,.63,0,1.26-.02,1.89-.03Z" fill="#231f20" stroke="#231f20" stroke-linecap="round" stroke-linejoin="round" stroke-width=".43"/><path d="M44.06,61.58c-.07-1.05,.83-5.58,.83-5.58l1.98-3.43-10.05-4.22-3.3,4.57h0c-.28,.39-4.78-5.55-4.78-5.55l-3.04,4.24c-.24,.31-.35,.65-.33,1.03v7.77c-.03,.47-3.27-2.94-3.27-2.94l-2.83,3.95s-.05,.06-.07,.1h0s0,0,0,0c-.11,.18-.18,.41-.21,.69v1.34c.07,.89,.27,1.59,.6,2.1,.34,.51,.81,.9,1.41,1.17,.6,.28,1.31,.43,2.13,.47h2.48c1.16-.07,2.11-.45,2.87-1.15,.31-.28,.57-.6,.81-.93h0s2.96-4.15,2.96-4.15l.3,.39c-.14,.19-.22,.44-.26,.75v1.34c.07,.89,.27,1.59,.6,2.1,.34,.51,.81,.9,1.41,1.17,.6,.28,1.31,.43,2.13,.47h3c.91-.01,1.74-.33,2.49-.94,.28-.23,.53-.47,.75-.74h0s0,0,0,0c.15-.18,.28-.37,.41-.57l2.85-3.98-1.86,.64s0-.09,0-.13Z" fill="#231f20" stroke="#231f20" stroke-linecap="round" stroke-linejoin="round" stroke-width=".43"/><path d="M28.3,48.5c-.03-.42,.11-.8,.42-1.14,.31-.34,.73-.51,1.25-.51h1.85c.53,0,.94,.17,1.25,.51,.31,.34,.45,.72,.42,1.14v7.85c-.03,1.01-.19,2.03-.5,3.07-.31,1.03-.84,1.9-1.6,2.6-.76,.7-1.71,1.09-2.87,1.15h-2.48c-.82-.04-1.52-.2-2.13-.47-.6-.28-1.07-.67-1.41-1.17-.34-.51-.54-1.21-.6-2.1v-1.34c.08-.74,.44-1.13,1.08-1.18h3.02c.66,.05,1.03,.45,1.1,1.18-.01,.43,.03,.7,.12,.79,.21,.17,.41,.17,.59,0,.16-.28,.27-.66,.34-1.15,.07-.49,.11-.98,.14-1.45v-7.77Z" fill="#f6b428" stroke="#231f20" stroke-linecap="round" stroke-linejoin="round" stroke-width=".43"/><path d="M39.35,63.17c-.82-.04-1.52-.2-2.13-.47-.6-.28-1.07-.67-1.41-1.17-.34-.51-.54-1.21-.6-2.1v-1.34c.08-.74,.45-1.13,1.1-1.18h3c.66,.05,1.03,.45,1.1,1.18,0,.35,.09,.62,.28,.79,.2,.17,.39,.17,.57,0,.18-.26,.28-.64,.3-1.14-.01-.26-.12-.49-.32-.68-.2-.19-.93-.46-2.21-.81-1.28-.35-2.21-.79-2.8-1.31-.59-.53-.91-1.31-.97-2.37-.01-.71,.15-1.53,.49-2.46,.34-.93,.89-1.71,1.65-2.32,.76-.61,1.59-.92,2.51-.94h2.96c.83,.04,1.54,.2,2.15,.47,.6,.28,1.07,.67,1.41,1.17,.34,.51,.54,1.21,.6,2.1v1.34c-.08,.74-.45,1.13-1.1,1.18h-3.06c-.67-.05-1.04-.45-1.1-1.18,0-.43-.08-.7-.24-.79-.21-.17-.41-.17-.59,0-.16,.26-.24,.64-.26,1.14,.01,.26,.12,.49,.32,.68,.2,.19,.93,.46,2.21,.81,1.27,.35,2.21,.79,2.8,1.31,.59,.53,.92,1.31,.99,2.37,0,.71-.17,1.53-.51,2.46-.34,.93-.89,1.71-1.65,2.32-.76,.61-1.59,.92-2.49,.94h-3Z" fill="#f6b428" stroke="#231f20" stroke-linecap="round" stroke-linejoin="round" stroke-width=".43"/></g></g><g><rect x="161" y="15.2" width="85.87" height="83.6" fill="#f9f4da" stroke="#231f20" stroke-linejoin="round"/><polygon points="254.72 18.8 254.72 95.13 246.87 98.8 246.87 15.2 254.72 18.8" fill="#f9b728" stroke="#231f20" stroke-linejoin="round"/></g><g><rect x="56.59" y="15.2" width="85.87" height="83.6" fill="#f9f4da" stroke="#231f20" stroke-linejoin="round"/><polygon points="48.73 18.8 48.73 95.13 56.59 98.8 56.59 15.2 48.73 18.8" fill="#f9b728" stroke="#231f20" stroke-linejoin="round"/></g><g><path d="M240.05,57.42c.09-4.03-2.92-7.41-8.05-9.32,.97-5.13-.3-9.29-3.62-11.3-1.19-.72-2.53-1.09-4-1.09-2.62,0-5.42,1.19-8.09,3.4-2.6-2.23-5.34-3.43-7.95-3.43,0,0,0,0,0,0-1.32,0-2.54,.31-3.65,.91-3.53,1.94-4.96,6.23-4.04,11.63-4.93,1.73-7.9,4.91-7.98,8.79-.09,4.03,2.92,7.41,8.05,9.32-.97,5.13,.31,9.29,3.62,11.3,1.19,.72,2.54,1.09,4,1.09,2.62,0,5.41-1.19,8.09-3.4,2.6,2.23,5.34,3.43,7.95,3.43,1.32,0,2.55-.31,3.65-.91,3.53-1.94,4.96-6.23,4.04-11.63,4.93-1.73,7.9-4.91,7.98-8.79Z" fill="#f5f0d6"/><g><path d="M236.38,57.33c.07-2.98-3.49-5.62-8.9-6.69,1.84-4.95,1.46-9.22-1-10.71-2.55-1.55-6.62,.21-10.24,4.37-3.37-4.07-7.25-5.87-9.78-4.49-2.61,1.43-3.13,5.84-1.34,11.05-5.21,.88-8.71,3.34-8.78,6.22-.07,2.98,3.49,5.62,8.9,6.69-1.84,4.95-1.46,9.22,1,10.71,.62,.38,1.33,.56,2.09,.56,2.4,0,5.4-1.77,8.15-4.92,2.61,3.16,5.53,4.95,7.89,4.95,.68,0,1.32-.15,1.89-.46,2.61-1.43,3.13-5.83,1.34-11.05,5.21-.88,8.71-3.34,8.78-6.22Zm-10.43-16.53c2.08,1.27,2.24,5.4,.37,10.04-.26,.65-.56,1.29-.88,1.93-1.36-2.78-3.96-4.86-7.08-5.48-.03-.05-.06-.1-.09-.15-.12-.2-.25-.4-.37-.59-.07-.11-.14-.21-.21-.32-.12-.17-.23-.34-.35-.51-.08-.12-.17-.23-.25-.34-.07-.09-.14-.19-.21-.28,3.27-3.81,6.97-5.58,9.08-4.3Zm-19.01-.1c2.14-1.17,5.79,.76,8.88,4.7,0,0,0,0,0,0,.43,.55,.84,1.13,1.23,1.73-.23-.02-.46-.04-.7-.04-3.01,0-5.72,1.33-7.57,3.43-.35,0-.71,.02-1.06,.04-.03,0-.05,0-.08,0-.46,.03-.91,.07-1.35,.13-.06,0-.12,0-.17,.02-1.67-4.74-1.35-8.83,.81-10.01Zm-9.59,16.41c.05-2.44,3.55-4.64,8.51-5.34,.3-.04,.61-.08,.92-.11,.11-.01,.23-.02,.34-.03,.2-.02,.4-.03,.6-.05,.08,0,.16,0,.24-.01-1.09,1.61-1.72,3.56-1.72,5.64,0,1.13,.19,2.21,.54,3.22-.03,.06-.06,.11-.09,.17-.11,.2-.22,.4-.32,.61-.06,.12-.12,.24-.18,.36-.09,.18-.18,.36-.26,.54-.06,.13-.12,.26-.17,.39-.05,.11-.1,.21-.14,.32-4.94-.93-8.32-3.25-8.27-5.71Zm9.42,16.51c-2.08-1.27-2.24-5.4-.37-10.04,.26-.65,.56-1.29,.88-1.93,1.36,2.78,3.96,4.86,7.08,5.48,.04,.06,.07,.11,.11,.17,.12,.19,.23,.38,.35,.56,.08,.12,.15,.23,.23,.34,.11,.16,.22,.33,.33,.49,.08,.12,.17,.23,.25,.35,.07,.09,.13,.19,.2,.28-3.27,3.82-6.97,5.58-9.08,4.3Zm19.01,.1c-2.14,1.17-5.79-.76-8.88-4.7-.43-.55-.84-1.13-1.23-1.73,.23,.02,.46,.04,.7,.04,3.01,0,5.72-1.33,7.57-3.43,.05,0,.1,0,.16,0,.12,0,.25,0,.37-.01,.18,0,.36-.02,.54-.03,.14,0,.28-.02,.41-.03,.16-.01,.31-.03,.47-.04,.16-.02,.33-.03,.49-.05,.07,0,.15-.01,.22-.02,1.67,4.74,1.35,8.83-.81,10.01Zm1.08-11.07c-.69,.1-1.39,.16-2.11,.2,1.09-1.61,1.73-3.56,1.73-5.65,0-1.13-.19-2.21-.54-3.22,.03-.06,.06-.12,.09-.17,.11-.2,.22-.4,.32-.6,.06-.12,.11-.23,.17-.35,.09-.19,.18-.37,.27-.56,.06-.13,.11-.26,.17-.38,.05-.11,.1-.21,.14-.32,4.94,.93,8.32,3.25,8.27,5.71-.05,2.44-3.55,4.64-8.51,5.34Z" fill="#231f20"/><g><path d="M209.73,58.72c.15-.09,.24-.17,.28-.22s.07-.11,.09-.15c.06-.12,.16-.21,.28-.28,.12-.07,.26-.1,.4-.1,.3,0,.51,.12,.64,.37,.11,.2,.23,.32,.38,.39-.04,.02-.08,.04-.11,.06s-.07,.04-.1,.06c-.06,.05-.12,.13-.18,.23-.06,.11-.15,.2-.26,.27-.11,.08-.24,.12-.37,.12s-.27-.04-.39-.12c-.13-.08-.22-.18-.29-.3-.08-.13-.15-.22-.21-.25-.06-.04-.12-.06-.16-.09Zm.88,.24s-.03-.06-.04-.1c0-.04-.01-.11-.01-.21s.05-.23,.15-.38c-.06,0-.11,.01-.15,.03-.05,.02-.08,.06-.12,.1-.03,.05-.06,.08-.07,.11s-.03,.05-.05,.08c-.05,.07-.09,.12-.12,.14,.04,.02,.08,.06,.12,.11,.04,.05,.08,.11,.13,.17,.07,.08,.17,.13,.28,.13-.02-.03-.03-.06-.05-.08-.02-.03-.03-.05-.05-.08Z" fill="#f5f0d6"/><path d="M212.98,59.53c-.19-.18-.29-.39-.29-.65,0-.39,.23-.71,.69-.95-.3-.21-.52-.54-.66-.99-.05-.14-.09-.24-.14-.29-.07-.08-.18-.16-.34-.24,.13-.06,.23-.14,.3-.23,.07-.1,.13-.22,.18-.37,.05-.15,.13-.3,.22-.44,.09-.14,.22-.26,.36-.37,.33-.23,.75-.34,1.26-.34,.16,0,.34,.02,.51,.05,.04-.29,.17-.53,.39-.74,.22-.2,.47-.31,.76-.31,.34,0,.63,.09,.86,.27,.13,.1,.25,.13,.38,.11,.01,.21-.07,.35-.25,.41-.03,.36-.18,.54-.47,.54-.11,0-.18,0-.2-.02,.04-.03,.06-.08,.06-.13s-.02-.1-.07-.14c-.06,.1-.18,.16-.37,.16-.11,0-.19-.05-.25-.15,.1-.03,.18-.08,.24-.14,.06-.07,.09-.13,.09-.18,0-.15-.08-.22-.23-.22-.3,0-.47,.23-.52,.69,.48,.21,.79,.53,.92,.97,.09,.3,.25,.5,.49,.6-.21,.1-.34,.22-.41,.35-.03,.05-.05,.11-.07,.18-.14,.45-.37,.78-.67,1-.3,.21-.7,.32-1.18,.32-.3,0-.57-.04-.8-.11-.09,.06-.13,.12-.13,.18s.01,.12,.04,.17c.03,.05,.07,.09,.14,.13,.14,.07,.39,.14,.77,.19,.17,.03,.35-.08,.53-.33,.01,.14,.04,.24,.09,.3s.11,.11,.17,.11c.73,.11,1.21,.35,1.42,.72,.07,.12,.11,.28,.11,.48s-.06,.38-.19,.57c-.13,.18-.29,.34-.5,.47-.44,.27-.98,.4-1.62,.4-.75,0-1.33-.12-1.73-.37-.34-.21-.51-.49-.51-.82,0-.22,.11-.43,.34-.63,.07-.06,.16-.12,.25-.17Zm.39-2.04c.05-.04,.08-.09,.08-.14,0-.07,0-.14-.03-.2-.07-.24-.11-.49-.11-.75s.04-.5,.11-.75c.02-.06,.03-.11,.03-.15v-.1s0-.04-.03-.06c-.11,.13-.19,.28-.24,.45-.05,.17-.09,.32-.12,.45-.01,.04-.08,.09-.22,.15,.14,.07,.21,.12,.22,.16l.08,.33c.07,.28,.14,.48,.23,.6Zm.01,2.29c-.19,.08-.28,.24-.28,.46,0,.18,.14,.34,.41,.49,.3,.16,.7,.25,1.18,.25,.59,0,.98-.1,1.16-.31,.05-.06,.08-.11,.08-.18s-.03-.12-.09-.16c-.06-.05-.14-.09-.23-.12-.14-.05-.36-.09-.66-.12-.15-.02-.33,.09-.54,.32,0-.15-.02-.26-.07-.32-.05-.07-.1-.1-.14-.11-.31-.04-.57-.11-.8-.2Zm-.21-.88s-.04,.06-.04,.1c0,.29,.42,.5,1.22,.65,.09,.02,.16,.12,.2,.3,.01-.06,.07-.11,.16-.14s.15-.06,.19-.05c.4,.05,.67,.09,.81,.14,.25,.08,.43,.19,.55,.34,.03-.04,.05-.08,.05-.14s-.03-.12-.09-.18-.15-.11-.29-.16c-.23-.08-.54-.15-.93-.19-.39-.04-.66-.08-.82-.12s-.3-.08-.44-.13c-.29-.11-.48-.25-.58-.42Zm1.04-1.39c.06,.08,.12,.13,.17,.16,.06,.02,.13,.03,.21,.03s.15-.01,.21-.03,.11-.06,.15-.12c.08-.11,.12-.29,.12-.55v-1.1c0-.26-.03-.43-.09-.51-.06-.08-.12-.13-.17-.16s-.13-.03-.21-.03-.15,.01-.21,.03c-.06,.02-.11,.06-.14,.11-.08,.11-.12,.3-.12,.55v1.1c0,.26,.03,.43,.09,.51Zm1.23-.03c.12-.04,.19-.17,.21-.39,.02-.21,.03-.44,.03-.7,0-.4-.01-.65-.03-.76-.03-.15-.1-.25-.21-.29v2.14Z" fill="#f5f0d6"/><path d="M217.86,59.53c-.19-.18-.29-.39-.29-.65,0-.39,.23-.71,.69-.95-.3-.21-.52-.54-.66-.99-.05-.14-.09-.24-.14-.29-.07-.08-.18-.16-.34-.24,.13-.06,.23-.14,.3-.23,.07-.1,.13-.22,.18-.37,.05-.15,.13-.3,.22-.44,.09-.14,.22-.26,.36-.37,.33-.23,.75-.34,1.26-.34,.16,0,.34,.02,.51,.05,.04-.29,.17-.53,.39-.74,.22-.2,.47-.31,.76-.31,.34,0,.63,.09,.86,.27,.13,.1,.25,.13,.38,.11,.01,.21-.07,.35-.25,.41-.03,.36-.18,.54-.47,.54-.11,0-.18,0-.2-.02,.04-.03,.06-.08,.06-.13s-.02-.1-.07-.14c-.06,.1-.18,.16-.37,.16-.11,0-.19-.05-.25-.15,.1-.03,.18-.08,.24-.14,.06-.07,.09-.13,.09-.18,0-.15-.08-.22-.23-.22-.3,0-.47,.23-.52,.69,.48,.21,.79,.53,.92,.97,.09,.3,.25,.5,.49,.6-.21,.1-.34,.22-.41,.35-.03,.05-.05,.11-.07,.18-.14,.45-.37,.78-.67,1-.3,.21-.7,.32-1.18,.32-.3,0-.57-.04-.8-.11-.09,.06-.13,.12-.13,.18s.01,.12,.04,.17c.03,.05,.07,.09,.14,.13,.14,.07,.39,.14,.77,.19,.17,.03,.35-.08,.53-.33,.01,.14,.04,.24,.09,.3s.11,.11,.17,.11c.73,.11,1.21,.35,1.42,.72,.07,.12,.11,.28,.11,.48s-.06,.38-.19,.57c-.13,.18-.29,.34-.5,.47-.44,.27-.98,.4-1.62,.4-.75,0-1.33-.12-1.73-.37-.34-.21-.51-.49-.51-.82,0-.22,.11-.43,.34-.63,.07-.06,.16-.12,.25-.17Zm.39-2.04c.05-.04,.08-.09,.08-.14,0-.07,0-.14-.03-.2-.07-.24-.11-.49-.11-.75s.04-.5,.11-.75c.02-.06,.03-.11,.03-.15v-.1s0-.04-.03-.06c-.11,.13-.19,.28-.24,.45-.05,.17-.09,.32-.12,.45-.01,.04-.08,.09-.22,.15,.14,.07,.21,.12,.22,.16l.08,.33c.07,.28,.14,.48,.23,.6Zm.01,2.29c-.19,.08-.28,.24-.28,.46,0,.18,.14,.34,.41,.49,.3,.16,.7,.25,1.18,.25,.59,0,.98-.1,1.16-.31,.05-.06,.08-.11,.08-.18s-.03-.12-.09-.16c-.06-.05-.14-.09-.23-.12-.14-.05-.36-.09-.66-.12-.15-.02-.33,.09-.54,.32,0-.15-.02-.26-.07-.32-.05-.07-.1-.1-.14-.11-.31-.04-.57-.11-.8-.2Zm-.21-.88s-.04,.06-.04,.1c0,.29,.42,.5,1.22,.65,.09,.02,.16,.12,.2,.3,.01-.06,.07-.11,.16-.14s.15-.06,.19-.05c.4,.05,.67,.09,.81,.14,.25,.08,.43,.19,.55,.34,.03-.04,.05-.08,.05-.14s-.03-.12-.09-.18-.15-.11-.29-.16c-.23-.08-.54-.15-.93-.19-.39-.04-.66-.08-.82-.12s-.3-.08-.44-.13c-.29-.11-.48-.25-.58-.42Zm1.04-1.39c.06,.08,.12,.13,.17,.16,.06,.02,.13,.03,.21,.03s.15-.01,.21-.03,.11-.06,.15-.12c.08-.11,.12-.29,.12-.55v-1.1c0-.26-.03-.43-.09-.51-.06-.08-.12-.13-.17-.16s-.13-.03-.21-.03-.15,.01-.21,.03c-.06,.02-.11,.06-.14,.11-.08,.11-.12,.3-.12,.55v1.1c0,.26,.03,.43,.09,.51Zm1.23-.03c.12-.04,.19-.17,.21-.39,.02-.21,.03-.44,.03-.7,0-.4-.01-.65-.03-.76-.03-.15-.1-.25-.21-.29v2.14Z" fill="#f5f0d6"/></g></g></g><g><path d="M104.12,57.72c-.1-1.28-.47-2.51-1.09-3.64-.59-1.07-1.38-2.01-2.35-2.78-2.02-1.61-4.61-2.31-7.12-1.94-1.29,.19-2.36-.7-2.94-1.59-.38-.6-.51-1.47-.66-2.49-.2-1.37-.42-2.92-1.34-4.43-.76-1.26-1.83-2.34-3.09-3.11-1.28-.79-2.74-1.25-4.21-1.35-2.52-.16-5.03,.74-6.87,2.47-1.84,1.73-2.9,4.17-2.9,6.7,0,1.33,.3,2.68,.87,3.89,.57,1.21,1.41,2.31,2.43,3.16,1.03,.86,2.25,1.5,3.52,1.83,1.09,.29,2.1,.25,2.91,.23,.36-.01,.69-.02,.98,0,.85,.06,1.82,.48,2.51,1.12,.38,.35,1.01,1.06,.99,1.96,0,.32,0,.62,0,.9,0,.43,.02,.88-.04,1.13-.2,.89-1.09,1.76-2.28,2.22-.59,.23-1.28,.24-2.15,.25-.43,0-.87,.01-1.35,.04-1.71,.11-3.19,.88-3.92,1.32-1.13,.69-2.12,1.63-2.87,2.73-.76,1.12-1.27,2.4-1.47,3.71-.39,2.5,.28,5.08,1.84,7.07,1.56,1.99,3.89,3.27,6.41,3.5,.28,.03,.56,.04,.84,.04,0,0,0,0,0,0h0c2.87,0,5.62-1.37,7.35-3.68,1.3-1.72,1.57-3.58,1.78-5.07,.1-.71,.2-1.38,.39-1.94,.29-.85,1.02-1.71,1.86-2.19,.37-.21,.75-.21,1.73-.17,.4,.02,.85,.04,1.34,.03,1.5-.03,3.05-.49,4.37-1.28,3.06-1.8,4.79-5.11,4.52-8.66Z" fill="#11afdf" stroke="#231f20" stroke-linecap="round" stroke-linejoin="round" stroke-width=".52"/><path d="M80.78,77.96c-.2,0-.4,0-.6-.03-1.78-.16-3.42-1.06-4.52-2.47-1.1-1.41-1.57-3.23-1.3-4.99,.29-1.88,1.45-3.56,3.07-4.55,.78-.48,1.78-.87,2.7-.93,1.5-.1,2.86,.09,4.3-.48,1.82-.71,3.49-2.18,3.93-4.15,.18-.81,.08-1.72,.1-2.55,.08-3.13-3.06-5.65-6.03-5.84-1.13-.07-2.25,.15-3.37-.14-.91-.24-1.76-.69-2.48-1.29-1.46-1.23-2.33-3.07-2.33-4.98,0-1.78,.75-3.51,2.05-4.73,1.3-1.22,3.07-1.86,4.85-1.75,2.11,.13,4.06,1.35,5.15,3.16,1.29,2.15,.67,4.86,2.04,6.99,1.22,1.9,3.31,3.14,5.61,2.8,3.67-.54,7.18,2.18,7.47,5.9,.2,2.51-1.03,4.85-3.2,6.12-.91,.55-1.99,.88-3.06,.9-1.57,.04-2.9-.32-4.34,.5-1.38,.78-2.57,2.15-3.09,3.66-.72,2.11-.37,4.37-1.78,6.25-1.22,1.62-3.16,2.6-5.19,2.6Z" fill="#f3eed4" stroke="#231f20" stroke-linecap="round" stroke-linejoin="round" stroke-width=".52"/><path d="M78.79,49.23c-.26,0-.47-.08-.62-.25-.15-.17-.22-.35-.22-.55v-5.84c.01-.36,.11-.65,.29-.89,.18-.24,.37-.36,.57-.37h2.5c.56,.03,1.04,.26,1.45,.67,.4,.42,.67,.85,.79,1.3s.18,.92,.17,1.41c-.02,.78-.25,1.36-.7,1.72,.4,.57,.65,1.23,.73,2,.01,.2-.06,.39-.21,.55-.15,.17-.35,.25-.6,.25h-.9c-.26,0-.46-.08-.6-.25-.14-.17-.22-.35-.24-.55-.09-.6-.18-1.04-.29-1.3l-.44,.17v1.13c.01,.2-.06,.39-.21,.55-.15,.17-.35,.25-.6,.25h-.9Zm2.41-4.37v-.48c-.01-.38-.09-.7-.23-.97-.11-.05-.27-.07-.48-.06v2.04h.1c.39-.12,.6-.3,.61-.53Z" fill="#e7203d" stroke="#231f20" stroke-linecap="round" stroke-linejoin="round" stroke-width=".52"/><path d="M78.79,75.17c-.26,0-.47-.08-.62-.25-.15-.17-.22-.35-.22-.55v-5.84c.01-.36,.11-.65,.29-.89,.18-.24,.37-.36,.57-.37h2.5c.56,.03,1.04,.26,1.45,.67,.4,.42,.67,.85,.79,1.3s.18,.92,.17,1.41c-.02,.78-.25,1.36-.7,1.72,.4,.57,.65,1.23,.73,2,.01,.2-.06,.39-.21,.55-.15,.17-.35,.25-.6,.25h-.9c-.26,0-.46-.08-.6-.25-.14-.17-.22-.35-.24-.55-.09-.6-.18-1.04-.29-1.3l-.44,.17v1.13c.01,.2-.06,.39-.21,.55-.15,.17-.35,.25-.6,.25h-.9Zm2.41-4.37v-.48c-.01-.38-.09-.7-.23-.97-.11-.05-.27-.07-.48-.06v2.04h.1c.39-.12,.6-.3,.61-.53Z" fill="#e7203d" stroke="#231f20" stroke-linecap="round" stroke-linejoin="round" stroke-width=".52"/><circle cx="94.82" cy="58.51" r="3.55" fill="#e7203d" stroke="#231f20" stroke-linecap="round" stroke-linejoin="round" stroke-width=".52"/></g><g><rect x="102.92" y="9.49" width="97.61" height="95.03" fill="#f6f1d7"/><g><g><path d="M125.77,20.7c2.97,0,4.46,1.39,3.79,4.16-.49,1.98-1.54,2.75-3.71,3l-.03,.11c1.69,.23,2.26,.79,2.15,2.51-.02,.8-.11,1.92-.11,2.51h-4.18c-.72,0-.87-.26-.8-1.31,.23-2.16,.15-2.59-.72-2.59-.33,0-.46,0-.77,.02-.36,1.56-.64,2.93-.77,3.89h-5.08c.48-1.77,.93-3.53,1.59-6.15,.66-2.61,1.08-4.38,1.48-6.15h7.18Zm-1.18,4.54c.31-1.28-.05-1.64-.92-1.64-.2,0-.61,.02-1,.03-.23,.97-.48,1.95-.71,2.89,.33,.02,.74,.02,1.21,.02,.75,0,1.16-.38,1.41-1.3Z" fill="#231f20"/><path d="M141.82,20.7c-.11,.39-.3,1.08-.44,1.64-.15,.59-.33,1.33-.41,1.74-1.71-.03-3.53-.03-4.95-.03l-.3,1.21c1.67,0,3.43-.02,4.84-.07-.18,.69-.56,2.15-.74,2.92-1.36-.05-3.13-.08-4.79-.08l-.31,1.26c1.46,0,3.39-.02,4.97-.03-.15,.48-.34,1.25-.49,1.9-.16,.62-.34,1.34-.44,1.84h-10.03c.48-1.72,.95-3.53,1.59-6.15,.66-2.61,1.1-4.46,1.48-6.15h10.03Z" fill="#231f20"/><path d="M153.68,20.7c-.1,1.64-.49,9.18-.44,12.3h-5.46c.11-.48,.26-1.26,.41-2.21h-2.48c-.33,.93-.59,1.72-.72,2.21h-5.3c1.54-3.1,4.9-10.69,5.54-12.3h8.44Zm-5.12,7.3c.13-1.11,.25-2.28,.33-3.31,.02-.67,.08-1.48,.15-2.1h-.08c-.26,.62-.57,1.41-.9,2.12-.44,1.03-.9,2.18-1.31,3.3h1.82Z" fill="#231f20"/><path d="M162.2,25.49c.3-1.18,.02-1.57-.75-1.57-.82,.02-1.33,.46-1.87,2.67-.54,2.15-.2,2.77,.67,2.77,.72,0,1.16-.61,1.39-1.52,.05-.18,.08-.39,.13-.61,.79,.02,1.62,.02,2.44,.02s1.64,0,2.44-.02c-.05,.36-.13,.7-.21,1.02-.93,3.72-2.59,4.97-6.77,4.97-4.87,0-6.34-2.25-5.16-6.92,1.07-4.31,3.16-5.8,7.41-5.8,4.75,0,5.98,1.74,5.36,4.33-.1,.36-.21,.75-.36,1.18-.8-.03-1.62-.03-2.43-.03s-1.64,0-2.43,.03c.05-.18,.1-.36,.13-.51Z" fill="#231f20"/><path d="M178.78,20.7c-.16,.57-.39,1.48-.59,2.28-.21,.79-.44,1.75-.57,2.38-.75-.02-1.49-.03-2.21-.03-.87,3.56-1.67,6.89-1.84,7.69-.72-.05-1.92-.05-2.77-.05s-2.02,0-2.77,.05c.25-.8,1.1-4.13,1.98-7.69-.72,.02-1.48,.02-2.23,.03,.18-.62,.41-1.59,.62-2.38,.2-.8,.43-1.71,.54-2.28h9.84Z" fill="#231f20"/></g><g><path d="M180.86,30.92c-.74-.28-1.05-.82-1.05-1.54,0-1.2,.86-1.87,2.51-1.87,.2,0,1.86,0,3.08,0,0,.15,0,.78,0,.98-.34,0-.94-.04-1.5-.06v.05c.71,.2,.98,.54,.98,1.15,0,.89-.74,1.5-2.56,1.5-.38,0-.71-.03-.99-.09-.15,.17-.23,.34-.23,.5,0,.19,.16,.28,.44,.28,.89,0,1.63-.07,2.22-.07,1.09,0,1.59,.34,1.59,1.18,0,.91-.65,1.45-2.99,1.45-2.48,0-2.82-.41-2.82-.95,0-.43,.34-.68,.94-.84v-.03c-.41-.12-.55-.36-.55-.64,0-.46,.43-.8,.93-.98v-.02Zm.44,1.74c-.12,0-.23,0-.33,0-.17,.12-.27,.24-.27,.38,0,.35,.33,.52,1.69,.52,1.29,0,1.8-.19,1.8-.59,0-.26-.18-.37-.69-.37-.66,0-1.58,.07-2.2,.07Zm2.46-3.29c0-.57-.42-.98-1.43-.98s-1.42,.43-1.42,.97,.42,.92,1.42,.92,1.43-.35,1.43-.91Z" fill="#f088a0"/><path d="M187.36,30.92c-.74-.28-1.05-.82-1.05-1.54,0-1.2,.86-1.87,2.51-1.87,.2,0,1.86,0,3.08,0,0,.15,0,.78,0,.98-.34,0-.94-.04-1.5-.06v.05c.71,.2,.98,.54,.98,1.15,0,.89-.74,1.5-2.56,1.5-.38,0-.71-.03-.99-.09-.15,.17-.23,.34-.23,.5,0,.19,.16,.28,.44,.28,.89,0,1.63-.07,2.22-.07,1.09,0,1.59,.34,1.59,1.18,0,.91-.65,1.45-2.99,1.45-2.48,0-2.82-.41-2.82-.95,0-.43,.34-.68,.94-.84v-.03c-.41-.12-.55-.36-.55-.64,0-.46,.43-.8,.93-.98v-.02Zm.44,1.74c-.12,0-.23,0-.33,0-.17,.12-.27,.24-.27,.38,0,.35,.33,.52,1.69,.52,1.29,0,1.8-.19,1.8-.59,0-.26-.18-.37-.69-.37-.66,0-1.58,.07-2.2,.07Zm2.46-3.29c0-.57-.42-.98-1.43-.98s-1.42,.43-1.42,.97,.42,.92,1.42,.92,1.43-.35,1.43-.91Z" fill="#f088a0"/></g><circle cx="176.85" cy="31.99" r=".99" fill="#f088a0"/></g><g clip-path="url(#q)"><g><path d="M142.8,56.6c4.42-.02,8.85-.23,13.26-.62,2.28-.2,4.63-.44,6.79,.3s4.05,2.81,3.8,5.08c-.26,2.28-2.44,3.79-4.49,4.84-6.81,3.49-19.81,3.58-27.4,2.63-7.59-.95-20.83-5.87-17.23-14.2s13.44-8.75,18.3-9.12c13.4-1.04,26.91-.71,40.24,.99,2.21,.28,4.49,.63,6.34,1.88,2.66,1.79,3.87,5.09,4.37,8.25,.43,2.69,.46,5.5-.47,8.06-1.83,4.98-6.9,7.98-11.91,9.74-10.73,3.77-22.38,3.63-33.75,3.45-5.22-.09-10.49-.18-15.58-1.34-2.38-.54-4.93-1.31-7.17-.34-2.04,.88-3.26,2.98-4.09,5.05-1.04,2.57-1.7,5.54-.54,8.06,1.29,2.82,4.46,4.25,7.48,5.01,10.46,2.62,21.46-.08,31.79-3.18,10.33-3.09,20.89-6.64,31.63-5.69,1.36,.12,2.76,.33,3.93,1.03,2.69,1.62,3.31,5.44,2.21,8.38-1.1,2.94-3.48,5.18-5.81,7.28-2.52,2.27-5.1,4.51-8.04,6.2" fill="none" stroke="#231f20" stroke-miterlimit="10" stroke-width="6.5"/><path d="M142.8,56.6c4.42-.02,8.85-.23,13.26-.62,2.28-.2,4.63-.44,6.79,.3s4.05,2.81,3.8,5.08c-.26,2.28-2.44,3.79-4.49,4.84-6.81,3.49-19.81,3.58-27.4,2.63-7.59-.95-20.83-5.87-17.23-14.2s13.44-8.75,18.3-9.12c13.4-1.04,26.91-.71,40.24,.99,2.21,.28,4.49,.63,6.34,1.88,2.66,1.79,3.87,5.09,4.37,8.25,.43,2.69,.46,5.5-.47,8.06-1.83,4.98-6.9,7.98-11.91,9.74-10.73,3.77-22.38,3.63-33.75,3.45-5.22-.09-10.49-.18-15.58-1.34-2.38-.54-4.93-1.31-7.17-.34-2.04,.88-3.26,2.98-4.09,5.05-1.04,2.57-1.7,5.54-.54,8.06,1.29,2.82,4.46,4.25,7.48,5.01,10.46,2.62,21.46-.08,31.79-3.18,10.33-3.09,20.89-6.64,31.63-5.69,1.36,.12,2.76,.33,3.93,1.03,2.69,1.62,3.31,5.44,2.21,8.38-1.1,2.94-3.48,5.18-5.81,7.28-2.52,2.27-5.1,4.51-8.04,6.2" fill="none" stroke="#f6f1d7" stroke-miterlimit="10" stroke-width="5.26"/><path d="M142.8,56.6c4.42-.02,8.85-.23,13.26-.62,2.28-.2,4.63-.44,6.79,.3s4.05,2.81,3.8,5.08c-.26,2.28-2.44,3.79-4.49,4.84-6.81,3.49-19.81,3.58-27.4,2.63-7.59-.95-20.83-5.87-17.23-14.2s13.44-8.75,18.3-9.12c13.4-1.04,26.91-.71,40.24,.99,2.21,.28,4.49,.63,6.34,1.88,2.66,1.79,3.87,5.09,4.37,8.25,.43,2.69,.46,5.5-.47,8.06-1.83,4.98-6.9,7.98-11.91,9.74-10.73,3.77-22.38,3.63-33.75,3.45-5.22-.09-10.49-.18-15.58-1.34-2.38-.54-4.93-1.31-7.17-.34-2.04,.88-3.26,2.98-4.09,5.05-1.04,2.57-1.7,5.54-.54,8.06,1.29,2.82,4.46,4.25,7.48,5.01,10.46,2.62,21.46-.08,31.79-3.18,10.33-3.09,20.89-6.64,31.63-5.69,1.36,.12,2.76,.33,3.93,1.03,2.69,1.62,3.31,5.44,2.21,8.38-1.1,2.94-3.48,5.18-5.81,7.28-2.52,2.27-5.1,4.51-8.04,6.2" fill="none" stroke="#231f20" stroke-dasharray="0 0 .2 6.01" stroke-miterlimit="10" stroke-width="5.26"/></g><polygon points="140.87 60.05 139.44 56.47 140.93 52.91 143.78 52.94 143.72 60.08 140.87 60.05" fill="#0ba65b" stroke="#231f20" stroke-linejoin="round" stroke-width=".33"/><g><path d="M121.96,63.36c0,.54-.8,.97-1.79,.97s-1.79-.43-1.79-.97v-.73s1.05,.12,1.79,.12,1.79-.12,1.79-.12v.73Z" fill="#231f20" stroke="#231f20" stroke-linejoin="round" stroke-width=".09"/><path d="M121.96,63.15c0,.54-.8,.97-1.79,.97s-1.79-.43-1.79-.97v-.73s1.05,.12,1.79,.12,1.79-.12,1.79-.12v.73Z" fill="#f088a0" stroke="#231f20" stroke-linejoin="round" stroke-width=".09"/><ellipse cx="120.18" cy="62.3" rx="1.79" ry="1.03" fill="#f088a0" stroke="#231f20" stroke-linejoin="round" stroke-width=".09"/></g><g><path d="M176.29,75c0,.54-.8,.97-1.79,.97s-1.79-.43-1.79-.97v-.73s1.05,.12,1.79,.12,1.79-.12,1.79-.12v.73Z" fill="#231f20" stroke="#231f20" stroke-linejoin="round" stroke-width=".09"/><path d="M176.29,74.78c0,.54-.8,.97-1.79,.97s-1.79-.43-1.79-.97v-.73s1.05,.12,1.79,.12,1.79-.12,1.79-.12v.73Z" fill="#12b2e2" stroke="#231f20" stroke-linejoin="round" stroke-width=".09"/><ellipse cx="174.51" cy="73.93" rx="1.79" ry="1.03" fill="#12b2e2" stroke="#231f20" stroke-linejoin="round" stroke-width=".09"/></g><g><g><polygon points="173.19 60.07 174.75 60.9 174.75 62.7 173.19 61.81 173.19 60.07" fill="#0f0d0e" stroke="#0f0d0e" stroke-linejoin="round" stroke-width=".09"/><polygon points="174.75 59.26 173.19 60.07 174.75 60.9 176.31 60.07 174.75 59.26" fill="#0f0d0e" stroke="#0f0d0e" stroke-linejoin="round" stroke-width=".09"/><polygon points="176.31 60.07 176.31 61.81 174.75 62.7 174.75 60.9 176.31 60.07" fill="#0f0d0e" stroke="#0f0d0e" stroke-linejoin="round" stroke-width=".09"/></g><g><polygon points="173.12 59.77 174.75 60.64 174.75 62.52 173.12 61.59 173.12 59.77" fill="#12b2e2" stroke="#231f20" stroke-linejoin="round" stroke-width=".09"/><polygon points="174.75 58.92 173.12 59.77 174.75 60.64 176.38 59.77 174.75 58.92" fill="#12b2e2" stroke="#231f20" stroke-linejoin="round" stroke-width=".09"/><polygon points="176.38 59.77 176.38 61.59 174.75 62.52 174.75 60.64 176.38 59.77" fill="#12b2e2" stroke="#231f20" stroke-linejoin="round" stroke-width=".09"/></g></g><g><g><polygon points="177.4 59.04 178.96 59.87 178.96 61.67 177.4 60.78 177.4 59.04" fill="#0f0d0e" stroke="#0f0d0e" stroke-linejoin="round" stroke-width=".09"/><polygon points="178.96 58.23 177.4 59.04 178.96 59.87 180.52 59.04 178.96 58.23" fill="#0f0d0e" stroke="#0f0d0e" stroke-linejoin="round" stroke-width=".09"/><polygon points="180.52 59.04 180.52 60.78 178.96 61.67 178.96 59.87 180.52 59.04" fill="#0f0d0e" stroke="#0f0d0e" stroke-linejoin="round" stroke-width=".09"/></g><g><polygon points="177.33 58.74 178.96 59.61 178.96 61.49 177.33 60.56 177.33 58.74" fill="#7b5ea4" stroke="#231f20" stroke-linejoin="round" stroke-width=".09"/><polygon points="178.96 57.89 177.33 58.74 178.96 59.61 180.59 58.74 178.96 57.89" fill="#7b5ea4" stroke="#231f20" stroke-linejoin="round" stroke-width=".09"/><polygon points="180.59 58.74 180.59 60.56 178.96 61.49 178.96 59.61 180.59 58.74" fill="#7b5ea4" stroke="#231f20" stroke-linejoin="round" stroke-width=".09"/></g></g><g><g><polygon points="175.48 61.22 177.04 62.05 177.04 63.85 175.48 62.96 175.48 61.22" fill="#0f0d0e" stroke="#0f0d0e" stroke-linejoin="round" stroke-width=".09"/><polygon points="177.04 60.4 175.48 61.22 177.04 62.05 178.6 61.22 177.04 60.4" fill="#0f0d0e" stroke="#0f0d0e" stroke-linejoin="round" stroke-width=".09"/><polygon points="178.6 61.22 178.6 62.96 177.04 63.85 177.04 62.05 178.6 61.22" fill="#0f0d0e" stroke="#0f0d0e" stroke-linejoin="round" stroke-width=".09"/></g><g><polygon points="175.41 60.92 177.04 61.78 177.04 63.67 175.41 62.74 175.41 60.92" fill="#f9b728" stroke="#231f20" stroke-linejoin="round" stroke-width=".09"/><polygon points="177.04 60.07 175.41 60.92 177.04 61.78 178.67 60.92 177.04 60.07" fill="#f9b728" stroke="#231f20" stroke-linejoin="round" stroke-width=".09"/><polygon points="178.67 60.92 178.67 62.74 177.04 63.67 177.04 61.78 178.67 60.92" fill="#f9b728" stroke="#231f20" stroke-linejoin="round" stroke-width=".09"/></g></g><g><path d="M127.68,87.41c0,.54-.8,.97-1.79,.97s-1.79-.43-1.79-.97v-.73s1.05,.12,1.79,.12,1.79-.12,1.79-.12v.73Z" fill="#231f20" stroke="#231f20" stroke-linejoin="round" stroke-width=".09"/><path d="M127.68,87.2c0,.54-.8,.97-1.79,.97s-1.79-.43-1.79-.97v-.73s1.05,.12,1.79,.12,1.79-.12,1.79-.12v.73Z" fill="#7b5ea4" stroke="#231f20" stroke-linejoin="round" stroke-width=".09"/><ellipse cx="125.9" cy="86.35" rx="1.79" ry="1.03" fill="#7b5ea4" stroke="#231f20" stroke-linejoin="round" stroke-width=".09"/></g></g><rect x="102.92" y="9.49" width="97.61" height="95.03" fill="none" stroke="#231f20" stroke-linejoin="round"/></g></svg>