<svg xmlns="http://www.w3.org/2000/svg" id="p" viewBox="0 0 112 114"><defs><clipPath id="q"><path fill="none" d="M20.34 54.9h81.98V108H20.34z"/></clipPath></defs><path fill="#f6f1d7" d="M20.34 28.19h81.98V108H20.34z"/><path fill="#f9b728" stroke="#231f20" stroke-linejoin="round" d="M9.67 103.31 20.34 108V28.19L9.67 34.57v68.74z"/><g><g fill="#231f20"><path d="M39.53 37.6c2.49 0 3.75 1.17 3.18 3.5-.41 1.67-1.29 2.31-3.11 2.52l-.03.1c1.42.19 1.9.66 1.8 2.11-.01.67-.1 1.61-.1 2.11h-3.51c-.61 0-.73-.22-.67-1.1.19-1.82.12-2.18-.61-2.18-.28 0-.39 0-.65.01-.3 1.31-.54 2.47-.65 3.26h-4.27c.4-1.49.78-2.96 1.34-5.16.55-2.19.91-3.68 1.24-5.16h6.03Zm-.99 3.81c.26-1.07-.04-1.38-.77-1.38-.17 0-.51.01-.84.03-.19.81-.4 1.64-.59 2.42.28.01.62.01 1.02.01.63 0 .98-.32 1.18-1.09ZM53.01 37.6c-.1.33-.25.91-.37 1.38-.12.5-.28 1.12-.34 1.46-1.43-.03-2.96-.03-4.16-.03l-.25 1.02c1.4 0 2.88-.01 4.06-.06-.15.58-.47 1.8-.62 2.45-1.14-.04-2.63-.07-4.02-.07l-.26 1.06c1.23 0 2.85-.01 4.17-.03-.12.4-.29 1.05-.41 1.6-.14.52-.29 1.13-.37 1.54h-8.43c.4-1.45.8-2.96 1.34-5.16.55-2.19.92-3.75 1.24-5.16h8.43ZM62.97 37.6c-.08 1.38-.41 7.71-.37 10.33h-4.59c.1-.4.22-1.06.34-1.86h-2.08c-.28.78-.5 1.45-.61 1.86h-4.45c1.29-2.6 4.12-8.98 4.65-10.33h7.09Zm-4.3 6.13c.11-.94.21-1.91.28-2.78.01-.56.07-1.24.12-1.76H59c-.22.52-.48 1.18-.76 1.78-.37.87-.76 1.83-1.1 2.77h1.53ZM70.13 41.62c.25-.99.01-1.32-.63-1.32-.69.01-1.12.39-1.57 2.24-.45 1.8-.17 2.33.56 2.33.61 0 .98-.51 1.17-1.28.04-.15.07-.33.11-.51.66.01 1.36.01 2.05.01s1.38 0 2.05-.01c-.04.3-.11.59-.18.85-.78 3.13-2.18 4.17-5.69 4.17-4.09 0-5.33-1.89-4.34-5.81.9-3.62 2.66-4.87 6.22-4.87 3.99 0 5.03 1.46 4.5 3.64-.08.3-.18.63-.3.99-.67-.03-1.36-.03-2.04-.03s-1.38 0-2.04.03c.04-.15.08-.3.11-.43ZM84.05 37.6c-.14.48-.33 1.24-.5 1.91-.18.66-.37 1.47-.48 2-.63-.01-1.25-.03-1.86-.03-.73 2.99-1.4 5.78-1.54 6.46-.61-.04-1.61-.04-2.33-.04s-1.69 0-2.33.04c.21-.67.92-3.47 1.67-6.46-.61.01-1.24.01-1.87.03.15-.52.34-1.34.52-2 .17-.67.36-1.43.45-1.91h8.26Z"/></g><g fill="#f088a0"><path d="M85.8 46.19c-.62-.24-.88-.69-.88-1.3 0-1.01.72-1.57 2.1-1.57h2.59v.82c-.28 0-.79-.03-1.26-.05v.05c.59.17.82.45.82.97 0 .75-.62 1.26-2.15 1.26-.32 0-.59-.02-.83-.08-.13.14-.19.29-.19.42 0 .16.14.24.37.24.75 0 1.37-.06 1.87-.06.92 0 1.33.29 1.33.99 0 .76-.55 1.22-2.51 1.22-2.08 0-2.37-.34-2.37-.8 0-.36.28-.57.79-.71v-.02c-.34-.1-.47-.3-.47-.54 0-.39.36-.67.78-.82v-.02Zm.37 1.46h-.27c-.14.1-.23.2-.23.32 0 .3.27.43 1.42.43 1.08 0 1.51-.16 1.51-.5 0-.22-.15-.31-.58-.31-.56 0-1.33.06-1.85.06Zm2.07-2.76c0-.48-.35-.82-1.2-.82s-1.19.36-1.19.82.35.77 1.19.77 1.2-.3 1.2-.76ZM91.26 46.19c-.62-.24-.88-.69-.88-1.3 0-1.01.72-1.57 2.1-1.57h2.59v.82c-.28 0-.79-.03-1.26-.05v.05c.59.17.82.45.82.97 0 .75-.62 1.26-2.15 1.26-.32 0-.59-.02-.83-.08-.13.14-.19.29-.19.42 0 .16.14.24.37.24.75 0 1.37-.06 1.87-.06.92 0 1.33.29 1.33.99 0 .76-.55 1.22-2.51 1.22-2.08 0-2.37-.34-2.37-.8 0-.36.28-.57.79-.71v-.02c-.34-.1-.47-.3-.47-.54 0-.39.36-.67.78-.82v-.02Zm.37 1.46h-.27c-.14.1-.23.2-.23.32 0 .3.27.43 1.42.43 1.08 0 1.51-.16 1.51-.5 0-.22-.15-.31-.58-.31-.56 0-1.33.06-1.85.06Zm2.07-2.76c0-.48-.35-.82-1.2-.82s-1.19.36-1.19.82.35.77 1.19.77 1.2-.3 1.2-.76Z"/></g><circle cx="82.44" cy="47.08" r=".83" fill="#f088a0"/></g><g clip-path="url(#q)"><g fill="none" stroke-miterlimit="10"><path stroke="#231f20" stroke-width="6.5" d="M53.83 67.76c3.72-.02 7.43-.19 11.13-.52 1.91-.17 3.89-.37 5.7.26s3.41 2.36 3.19 4.26c-.22 1.92-2.05 3.19-3.77 4.07-5.72 2.93-16.64 3-23.02 2.21s-17.5-4.93-14.48-11.93c3.02-7 11.29-7.35 15.37-7.66 11.26-.87 22.6-.6 33.8.83 1.85.24 3.77.53 5.32 1.57 2.23 1.51 3.25 4.27 3.67 6.93.36 2.26.39 4.62-.4 6.77-1.53 4.18-5.8 6.71-10 8.18-9.01 3.17-18.8 3.05-28.35 2.9-4.39-.07-8.81-.15-13.09-1.13-2-.46-4.14-1.1-6.02-.29-1.71.74-2.74 2.51-3.44 4.24-.87 2.16-1.43 4.66-.46 6.77 1.09 2.37 3.75 3.57 6.28 4.21 8.79 2.2 18.02-.07 26.7-2.67s17.55-5.57 26.57-4.78c1.14.1 2.32.28 3.3.87 2.26 1.36 2.78 4.57 1.86 7.04s-2.92 4.35-4.88 6.11c-2.12 1.9-4.28 3.79-6.75 5.21"/><path stroke="#f6f1d7" stroke-width="5.26" d="M53.83 67.76c3.72-.02 7.43-.19 11.13-.52 1.91-.17 3.89-.37 5.7.26s3.41 2.36 3.19 4.26c-.22 1.92-2.05 3.19-3.77 4.07-5.72 2.93-16.64 3-23.02 2.21s-17.5-4.93-14.48-11.93c3.02-7 11.29-7.35 15.37-7.66 11.26-.87 22.6-.6 33.8.83 1.85.24 3.77.53 5.32 1.57 2.23 1.51 3.25 4.27 3.67 6.93.36 2.26.39 4.62-.4 6.77-1.53 4.18-5.8 6.71-10 8.18-9.01 3.17-18.8 3.05-28.35 2.9-4.39-.07-8.81-.15-13.09-1.13-2-.46-4.14-1.1-6.02-.29-1.71.74-2.74 2.51-3.44 4.24-.87 2.16-1.43 4.66-.46 6.77 1.09 2.37 3.75 3.57 6.28 4.21 8.79 2.2 18.02-.07 26.7-2.67s17.55-5.57 26.57-4.78c1.14.1 2.32.28 3.3.87 2.26 1.36 2.78 4.57 1.86 7.04s-2.92 4.35-4.88 6.11c-2.12 1.9-4.28 3.79-6.75 5.21"/><path stroke="#231f20" stroke-dasharray="0 0 .2 6.01" stroke-width="5.26" d="M53.83 67.76c3.72-.02 7.43-.19 11.13-.52 1.91-.17 3.89-.37 5.7.26s3.41 2.36 3.19 4.26c-.22 1.92-2.05 3.19-3.77 4.07-5.72 2.93-16.64 3-23.02 2.21s-17.5-4.93-14.48-11.93c3.02-7 11.29-7.35 15.37-7.66 11.26-.87 22.6-.6 33.8.83 1.85.24 3.77.53 5.32 1.57 2.23 1.51 3.25 4.27 3.67 6.93.36 2.26.39 4.62-.4 6.77-1.53 4.18-5.8 6.71-10 8.18-9.01 3.17-18.8 3.05-28.35 2.9-4.39-.07-8.81-.15-13.09-1.13-2-.46-4.14-1.1-6.02-.29-1.71.74-2.74 2.51-3.44 4.24-.87 2.16-1.43 4.66-.46 6.77 1.09 2.37 3.75 3.57 6.28 4.21 8.79 2.2 18.02-.07 26.7-2.67s17.55-5.57 26.57-4.78c1.14.1 2.32.28 3.3.87 2.26 1.36 2.78 4.57 1.86 7.04s-2.92 4.35-4.88 6.11c-2.12 1.9-4.28 3.79-6.75 5.21"/></g><path fill="#0ba65b" stroke="#231f20" stroke-linejoin="round" stroke-width=".33" d="m52.22 70.66-1.21-3.01 1.26-2.99 2.39.02-.05 6-2.39-.02z"/><g stroke="#231f20" stroke-linejoin="round" stroke-width=".09"><path fill="#231f20" d="M36.34 73.44c0 .45-.67.81-1.5.81s-1.5-.36-1.5-.81v-.61s.88.1 1.5.1 1.5-.1 1.5-.1v.61Z"/><path fill="#f088a0" d="M36.34 73.25c0 .45-.67.81-1.5.81s-1.5-.36-1.5-.81v-.61s.88.1 1.5.1 1.5-.1 1.5-.1v.61Z"/><ellipse cx="34.84" cy="72.54" fill="#f088a0" rx="1.5" ry=".86"/></g><g stroke="#231f20" stroke-linejoin="round" stroke-width=".09"><path fill="#231f20" d="M81.97 83.21c0 .45-.67.81-1.5.81s-1.5-.36-1.5-.81v-.61s.88.1 1.5.1 1.5-.1 1.5-.1v.61Z"/><path fill="#12b2e2" d="M81.97 83.03c0 .45-.67.81-1.5.81s-1.5-.36-1.5-.81v-.61s.88.1 1.5.1 1.5-.1 1.5-.1v.61Z"/><ellipse cx="80.47" cy="82.31" fill="#12b2e2" rx="1.5" ry=".86"/></g><g stroke-linejoin="round" stroke-width=".09"><g fill="#0f0d0e" stroke="#0f0d0e"><path d="m79.36 70.67 1.31.7v1.51l-1.31-.74v-1.47z"/><path d="m80.67 69.99-1.31.68 1.31.7 1.31-.7-1.31-.68z"/><path d="M81.98 70.67v1.47l-1.31.74v-1.51l1.31-.7z"/></g><g fill="#12b2e2" stroke="#231f20"><path d="m79.3 70.42 1.37.73v1.58l-1.37-.78v-1.53zM80.67 69.71l-1.37.71 1.37.73 1.37-.73-1.37-.71zM82.04 70.42v1.53l-1.37.78v-1.58l1.37-.73z"/></g></g><g stroke-linejoin="round" stroke-width=".09"><g fill="#0f0d0e" stroke="#0f0d0e"><path d="m82.89 69.81 1.31.69v1.52l-1.31-.75v-1.46z"/><path d="m84.2 69.12-1.31.69 1.31.69 1.31-.69-1.31-.69z"/><path d="M85.51 69.81v1.46l-1.31.75V70.5l1.31-.69z"/></g><g fill="#7b5ea4" stroke="#231f20"><path d="m82.84 69.56 1.36.72v1.58l-1.36-.78v-1.52z"/><path d="m84.2 68.84-1.36.72 1.36.72 1.37-.72-1.37-.72z"/><path d="M85.57 69.56v1.52l-1.37.78v-1.58l1.37-.72z"/></g></g><g stroke-linejoin="round" stroke-width=".09"><g fill="#0f0d0e" stroke="#0f0d0e"><path d="m81.29 71.64 1.31.69v1.51l-1.31-.74v-1.46z"/><path d="m82.6 70.95-1.31.69 1.31.69 1.31-.69-1.31-.69z"/><path d="M83.91 71.64v1.46l-1.31.74v-1.51l1.31-.69z"/></g><g fill="#f9b728" stroke="#231f20"><path d="m81.23 71.38 1.37.73v1.58l-1.37-.78v-1.53z"/><path d="m82.6 70.67-1.37.71 1.37.73 1.36-.73-1.36-.71z"/><path d="M83.96 71.38v1.53l-1.36.78v-1.58l1.36-.73z"/></g></g><g stroke="#231f20" stroke-linejoin="round" stroke-width=".09"><path fill="#231f20" d="M41.14 93.64c0 .45-.67.81-1.5.81s-1.5-.36-1.5-.81v-.61s.88.1 1.5.1 1.5-.1 1.5-.1v.61Z"/><path fill="#7b5ea4" d="M41.14 93.46c0 .45-.67.81-1.5.81s-1.5-.36-1.5-.81v-.61s.88.1 1.5.1 1.5-.1 1.5-.1v.61Z"/><ellipse cx="39.64" cy="92.74" fill="#7b5ea4" rx="1.5" ry=".86"/></g></g><path fill="none" stroke="#231f20" stroke-linejoin="round" d="M20.34 28.19h81.98V108H20.34z"/></svg>