<?xml version="1.0" encoding="UTF-8"?><svg id="p" xmlns="http://www.w3.org/2000/svg" viewBox="0 0 140 114"><path d="M101.2,105.28l29.23,5.17h.02s.02,0,.02,0c.22,.04,.45,.06,.67,.06,.95,0,1.87-.34,2.6-.95,.92-.77,1.44-1.9,1.44-3.1V20.68c0-1.97-1.41-3.64-3.34-3.98l-29.93-5.29h-.04s-.04-.01-.04-.01l-.29-.05h-.3s-.02,0-.03,0h-.04c-.21,0-.42,.02-.63,.05h-.02s-.02,0-.02,0l-29.23,5.17-29.23-5.17h-.03s-.03-.01-.03-.01l-.3-.05h-.31s-.05,0-.07,0h-.32l-.31,.05-29.93,4.94c-1.96,.32-3.38,2-3.38,3.99V106.12c0,1.19,.52,2.32,1.44,3.09,.72,.61,1.65,.95,2.61,.95,.22,0,.45-.02,.67-.06l29.25-4.83,29.26,5.17h.02s.02,0,.02,0c.22,.04,.45,.06,.67,.06s.45-.02,.67-.06h.02s.02,0,.02,0" fill="#231f20" stroke="#231f20" stroke-linejoin="round" stroke-width=".51"/><path d="M38.77,8.82h-.32l-.31,.05L8.21,13.81c-1.96,.32-3.38,2-3.38,3.99V103.59c0,1.19,.52,2.32,1.44,3.09,.72,.61,1.65,.95,2.61,.95,.22,0,.45-.02,.67-.06l29.25-4.83,29.26,5.17h.02s.02,0,.02,0c.22,.04,.45,.06,.67,.06s.45-.02,.67-.06h.02s.02,0,.02,0l29.23-5.17,29.23,5.17h.02s.02,0,.02,0c.22,.04,.45,.06,.67,.06,.95,0,1.87-.34,2.6-.95,.92-.77,1.44-1.9,1.44-3.1V18.16c0-1.97-1.41-3.64-3.34-3.98l-29.93-5.29h-.04s-.04-.01-.04-.01l-.29-.05h-.3s-.02,0-.03,0h-.04c-.21,0-.42,.02-.63,.05h-.02s-.02,0-.02,0l-29.23,5.17-29.23-5.17h-.03s-.03-.01-.03-.01l-.3-.05h-.31s-.05,0-.07,0h0Z" fill="#f9f4da" stroke="#231f20" stroke-linejoin="round" stroke-width=".51"/><g><polygon points="38.8 98.65 8.86 103.59 8.86 17.8 38.8 12.86 38.8 98.65" fill="#f9f4da" stroke="#231f20" stroke-linejoin="round" stroke-width=".51"/><polygon points="38.8 98.65 8.86 103.59 8.86 17.8 38.8 12.86 38.8 98.65" fill="#f9b728" stroke="#231f20" stroke-linecap="round" stroke-linejoin="round" stroke-width=".51"/><polygon points="68.74 103.94 38.8 98.65 38.8 12.86 68.74 18.15 68.74 103.94" fill="#f9f4da" stroke="#231f20" stroke-linejoin="round" stroke-width=".51"/><polygon points="128.61 103.94 98.67 98.65 98.67 12.86 128.61 18.15 128.61 103.94" fill="#f9f4da" stroke="#231f20" stroke-linejoin="round" stroke-width=".51"/><polygon points="98.67 98.65 68.74 103.94 68.74 18.15 98.67 12.86 98.67 98.65" fill="#f9b728" stroke="#231f20" stroke-linecap="round" stroke-linejoin="round" stroke-width=".51"/><path d="M23.39,75.25c-3.49,0-6.32,2.83-6.32,6.32s5.26,10.8,6.32,10.8,6.32-7.31,6.32-10.8-2.83-6.32-6.32-6.32Zm0,7.48c-1.31,0-2.37-1.06-2.37-2.37s1.06-2.37,2.37-2.37,2.37,1.06,2.37,2.37-1.06,2.37-2.37,2.37Z" fill="#231f20" stroke="#231f20" stroke-linecap="round" stroke-linejoin="round" stroke-width=".51"/><path d="M24.01,73.67c-1.87-5.32,4.63-8.45,7.61-11.9,3.35-3.84,1.58-8.96-3.1-9.59s-11.78-8.8-9.41-13.85c2.37-5.05,5.72-2.68,5.95-6.72,.09-3.72,.35-10.12,5.56-9.85,6.12,1.13,2.07,12.4,8.36,13.34,7.25-2.09,10.49,5.73,12.06,11.24,.63,2.64,1.2,5.9,3.85,6.81,3.62,.33,7.08,1.11,5.93,5.55-2.48,6.08-14.61,10.41-13.77,13.59,.84,3.17,5.22,1.34,7.59,.86,.9-.23,1.93-.54,2.68,0,2.91,3.35,1.45,14.4,7.87,13.51,2.78-1.07,2.01-6.35,4.99-6.66,1.39-.15,2.71,1.09,4.05,.72,3.54-2.54,7-8.05,4.72-12.28-4.2-4.6-4.2-6.17,.8-10.21,2.54-2.54,4.21-7.13,2.06-10.3-1.17-1.29-3.27-1.32-4.67-2.37-2.18-1.63-1.79-5-.39-7.29,9.69-13.11,13.88-19.33,17.63-17.68,3.75,1.66-9.71,18.13-3.7,20.49,3.31-1,5.23-6.75,8.3-8.27,2.76,1.19,3.17,5.53,5.86,7.1,3.34,2.64,7.78,1.17,11.66,1.16,4.32,.2,5.13,4.81,1.52,6.87-2.85,1.72-8.17,2.32-8.15,6.4,.26,4.07,7.57,4.21,8.78,8.11,.99,5.93-8.41,1.89-11.4,4.72s-2.45,5.93,1.16,6.41c1.41,.65,1.65,2.66,.78,3.9-1.96,2.65-5.8,1.89-8.72,2.06-4.74,.18-12.27,5.11-9.49,10.15,3.4,3.24,7.44-1.25,10.08-3.38,4.15-2.92,10.58-2.24,13.97,1.48" fill="none" stroke="#231f20" stroke-dasharray="0 0 2.39 2.39" stroke-linecap="round" stroke-miterlimit="10" stroke-width=".48"/><g><path d="M117.09,84.99c1.53,3.98,2.95,8,4.25,12.06,.3,.93,1.76,.53,1.46-.4-1.3-4.06-2.72-8.08-4.25-12.06-.35-.9-1.81-.51-1.46,.4h0Z" fill="#ed203d"/><path d="M123.37,84.87c-3.18,2.85-6.37,5.71-9.55,8.56-.73,.65,.35,1.72,1.07,1.07,3.18-2.85,6.37-5.71,9.55-8.56,.73-.65-.35-1.72-1.07-1.07h0Z" fill="#ed203d"/></g></g></svg>