<svg xmlns="http://www.w3.org/2000/svg" id="p" viewBox="0 0 104 114"><g stroke="#231f20" stroke-linejoin="round" transform="rotate(1.82 53.729 52.359)"><rect width="37.6" height="50.25" x="34.94" y="27.31" fill="#f6f1d7" rx="1.28" ry="1.28"/><path fill="#f97428" d="M37.36 29.83h32.75v45.22H37.36z"/></g><g stroke="#231f20" stroke-linejoin="round" transform="rotate(-11.78 45.66 57.367)"><rect width="37.6" height="50.25" x="26.85" y="32.25" fill="#f6f1d7" rx="1.28" ry="1.28"/><path fill="#0ba65b" d="M29.28 34.76h32.75v45.22H29.28z"/></g><g stroke="#231f20" stroke-linejoin="round" transform="rotate(-34.6 41.039 65.737)"><rect width="37.6" height="50.25" x="22.24" y="40.61" fill="#f6f1d7" rx="1.28" ry="1.28"/><path fill="#7b5ea4" d="M24.67 43.12h32.75v45.22H24.67z"/></g><g stroke="#231f20"><path fill="#f9b728" stroke-linejoin="round" d="M86.2 104.36 82.38 108V51.64l3.82 4.54v48.18z"/><path fill="#f6f1d7" stroke-linejoin="round" d="M38.54 51.64h43.84V108H38.54z"/><path fill="#f6f1d7" stroke-linejoin="round" d="M41.36 54.47h38.27v50.69H41.36z"/><g id="q" fill="none" stroke-miterlimit="10" stroke-width=".43"><path d="M61.44 75.92c.72.03 1.44.08 2.13.17-.61-.8-1.25-1.53-1.9-2.18-.39.3-.78.64-1.17 1.01.32.31.63.64.94.99ZM54.56 76.42c-.2-1.86.14-3.19.94-3.65.23-.13.5-.2.8-.2.77 0 1.75.41 2.83 1.2.06.05.13.09.19.14.39-.38.78-.73 1.17-1.04-.15-.12-.3-.23-.45-.34-2.05-1.5-3.94-1.89-5.32-1.1-1.38.79-1.98 2.62-1.71 5.15.02.18.04.37.07.56.47-.18.97-.35 1.49-.49l-.03-.23ZM64.78 77.85c-.66-.13-1.34-.23-2.05-.3.42.59.83 1.22 1.2 1.88.38.66.72 1.32 1.02 1.98.3-.65.55-1.29.77-1.93-.15-.28-.3-.55-.46-.83-.16-.27-.32-.54-.49-.81ZM60.5 85.37c-.76 0-1.51-.04-2.23-.1.41.58.84 1.13 1.29 1.63.31.01.63.02.94.02s.63 0 .94-.02c.44-.5.87-1.05 1.29-1.63-.72.07-1.47.1-2.23.1ZM56.21 84.97c-.46-.09-.91-.2-1.33-.32-.13.52-.23 1.03-.29 1.52.89.24 1.84.43 2.84.56-.42-.55-.83-1.14-1.21-1.76ZM63.56 86.73c1-.13 1.95-.31 2.84-.56-.06-.49-.16-1-.29-1.52-.43.12-.87.23-1.33.32-.39.61-.79 1.2-1.21 1.76Z"/><path d="M66.26 71.43c-1.38-.79-3.26-.4-5.32 1.1-.15.11-.3.22-.45.34-.39.31-.78.66-1.17 1.04-.65.64-1.29 1.38-1.9 2.18-.42.55-.83 1.14-1.21 1.76-.17.26-.33.53-.49.81-.16.27-.31.55-.46.83.21.63.47 1.28.77 1.93.3-.66.64-1.32 1.02-1.98.38-.66.78-1.29 1.2-1.88.41-.58.84-1.13 1.29-1.63.31-.35.63-.68.94-.99.39-.37.78-.71 1.17-1.01.06-.05.13-.1.19-.14 1.08-.79 2.06-1.2 2.83-1.2.3 0 .57.06.8.2.8.46 1.15 1.79.94 3.65 0 .08-.02.16-.03.23.52.14 1.02.31 1.49.49.03-.19.05-.37.07-.56.28-2.53-.33-4.36-1.71-5.15Z"/><path d="M66.11 78.17a18.9 18.9 0 0 1-1.16 3.24c-.3.66-.64 1.32-1.02 1.98s-.78 1.29-1.2 1.88c-.41.58-.84 1.13-1.29 1.63-.31.35-.63.68-.94.99-.39.37-.78.71-1.17 1.01-.06.05-.13.1-.19.14-1.51 1.1-2.83 1.47-3.63 1.01-.8-.46-1.15-1.79-.94-3.65 0-.08.02-.16.03-.23.06-.49.16-1 .29-1.52.11-.43.24-.87.39-1.31-.34-.64-.64-1.29-.91-1.93-.39.93-.7 1.85-.93 2.74-.14.52-.24 1.04-.32 1.53-.03.19-.05.37-.07.56-.28 2.53.33 4.36 1.71 5.15.47.27.99.4 1.56.4 1.11 0 2.4-.51 3.75-1.5.15-.11.3-.22.45-.34.39-.31.78-.66 1.17-1.04.65-.64 1.29-1.38 1.9-2.18.42-.55.83-1.14 1.21-1.76.17-.26.33-.53.49-.81.16-.27.31-.55.46-.83.34-.64.64-1.29.91-1.93.39-.93.7-1.85.93-2.74-.46-.19-.94-.36-1.46-.51Z"/><path d="M68.41 77.36c-.17-.07-.34-.15-.52-.21a15.3 15.3 0 0 0-1.49-.49c-.89-.24-1.84-.43-2.84-.56-.69-.09-1.4-.14-2.13-.17-.31-.01-.63-.02-.94-.02s-.63 0-.94.02c-.44.5-.87 1.05-1.29 1.63.72-.07 1.47-.1 2.23-.1s1.51.04 2.23.1c.71.07 1.4.17 2.05.3.46.09.91.2 1.33.32.52.15 1.01.32 1.46.51.07.03.15.06.22.09 1.71.75 2.69 1.72 2.69 2.64s-.98 1.89-2.69 2.64c-.07.03-.14.06-.22.09.14.52.24 1.04.32 1.53.18-.07.35-.14.52-.21 2.33-1.03 3.61-2.46 3.61-4.05s-1.28-3.03-3.61-4.05ZM59.55 86.9c-.44-.5-.87-1.05-1.29-1.63-.42-.59-.83-1.22-1.2-1.88-.38-.66-.72-1.32-1.02-1.98-.3-.65-.55-1.29-.77-1.93-.15-.44-.28-.88-.39-1.31-.52.15-1.01.32-1.46.51.23.89.55 1.81.93 2.74.27.64.58 1.29.91 1.93.15.28.3.55.46.83.16.27.32.54.49.81.39.61.79 1.2 1.21 1.76.61.8 1.25 1.53 1.9 2.18.39-.3.78-.64 1.17-1.01-.32-.31-.63-.64-.94-.99Z"/><path d="M67.96 86.23c-.02-.18-.04-.37-.07-.56-.08-.5-.18-1.01-.32-1.53-.23-.89-.55-1.81-.93-2.74-.27.64-.58 1.29-.91 1.93.15.44.28.88.39 1.31.13.52.23 1.03.29 1.52l.03.23c.2 1.86-.14 3.19-.94 3.65-.8.46-2.13.1-3.63-1.01-.06-.05-.13-.09-.19-.14-.39.38-.78.73-1.17 1.04.15.12.3.23.45.34 1.36.99 2.64 1.5 3.75 1.5.57 0 1.1-.13 1.56-.4 1.38-.79 1.98-2.62 1.71-5.15ZM54.59 76.65c-.52.14-1.02.31-1.49.49-.18.07-.35.14-.52.21-2.33 1.03-3.61 2.46-3.61 4.05s1.28 3.03 3.61 4.05c.17.07.34.15.52.21.08-.5.18-1.01.32-1.53-.07-.03-.15-.06-.22-.09-1.71-.75-2.69-1.72-2.69-2.64s.98-1.89 2.69-2.64c.07-.03.14-.06.22-.09.46-.19.94-.36 1.46-.51.43-.12.87-.23 1.33-.32.39-.61.79-1.2 1.21-1.76-1 .13-1.95.31-2.84.56Z"/></g></g></svg>